<svg width="216" height="64" viewBox="0 0 216 64" fill="none"
    xmlns="http://www.w3.org/2000/svg">
    <path fill-rule="evenodd" clip-rule="evenodd" d="M175.949 42.026L175.852 42.0262V50.1724H175.949V42.026ZM113.777 16.1153C113.777 14.4542 113.745 12.792 113.792 11.1323C113.811 10.4787 113.496 10.4167 113.009 10.4721C112.603 10.5185 112.05 10.2431 112.057 11.0687C112.085 14.3577 112.086 17.6469 112.056 20.9359C112.048 21.7495 112.579 21.5106 112.996 21.5465C113.465 21.5866 113.813 21.5719 113.793 20.899C113.743 19.3058 113.777 17.7099 113.777 16.1153V16.1153ZM174.59 21.6542C174.69 21.6542 174.792 21.6677 174.889 21.6518C175.32 21.5822 175.835 21.7084 175.824 20.944C175.814 20.2902 175.564 20.1789 174.989 20.2133C174.344 20.252 174.133 19.765 174.111 19.224C174.07 18.2267 174.127 17.2227 174.041 16.2302C173.969 15.3929 174.246 15.0968 175.077 15.1927C175.372 15.2266 175.863 15.4327 175.921 14.8162C175.974 14.2556 175.921 13.7898 175.161 13.9376C174.208 14.1228 173.925 13.6788 174.046 12.7976C174.073 12.6032 174.184 12.3184 173.891 12.1908C173.449 11.9989 172.405 12.6892 172.4 13.195C172.397 13.6256 172.42 14.0238 171.799 13.9383C171.327 13.873 171.259 14.1482 171.257 14.5412C171.256 14.9607 171.297 15.2863 171.835 15.2093C172.386 15.1304 172.399 15.4707 172.398 15.8782C172.393 17.1105 172.358 18.3459 172.435 19.574C172.523 20.9886 173.28 21.6713 174.59 21.6542H174.59ZM130.013 20.7485C130.092 20.931 130.145 21.0094 130.16 21.0944C130.312 21.9278 130.962 21.4892 131.37 21.517C131.967 21.5576 131.659 21.0662 131.656 20.7896C131.645 19.4915 131.623 18.1935 131.593 16.8959C131.567 15.7972 131.41 14.7298 130.305 14.1627C129.022 13.5047 127.724 13.7324 126.444 14.2246C125.963 14.4099 126.196 14.7608 126.254 15.0626C126.343 15.5249 126.6 15.3939 126.91 15.2714C127.246 15.1383 127.61 15.0376 127.969 15.0086C128.752 14.9454 129.536 14.9368 129.825 15.9188C129.96 16.3746 129.969 16.6521 129.334 16.6648C128.295 16.6854 127.279 16.876 126.43 17.5586C125.644 18.1899 125.331 19.2015 125.621 20.1633C125.885 21.0369 126.721 21.623 127.759 21.675C128.605 21.7173 129.329 21.4497 130.013 20.7485L130.013 20.7485ZM191.299 18.1865C191.964 18.1865 192.63 18.1604 193.293 18.1955C193.733 18.2189 193.858 18.0179 193.916 17.6309C194.123 16.2566 193.287 14.5899 192.088 14.0365C190.83 13.4555 189.213 13.7799 188.275 14.896C187.079 16.3194 186.873 17.945 187.581 19.6501C188.157 21.035 189.414 21.67 191.283 21.5856C191.811 21.5616 192.336 21.4552 192.863 21.4006C193.384 21.3467 193.488 21.0865 193.406 20.5881C193.316 20.0455 193.063 20.1041 192.647 20.1761C191.931 20.3 191.204 20.3929 190.469 20.2395C189.631 20.0651 189.139 19.5545 188.878 18.7655C188.739 18.3457 188.814 18.1561 189.306 18.1793C189.969 18.2105 190.634 18.1869 191.299 18.1865H191.299ZM104.073 15.015C104.045 14.7026 104.024 14.5838 104.026 14.4656C104.043 13.619 103.402 14.009 103.023 13.9444C102.455 13.8474 102.5 14.2242 102.507 14.6248C102.544 16.6211 102.573 18.6181 102.564 20.6148C102.562 21.2151 102.573 21.5685 103.373 21.5803C104.221 21.5925 104.267 21.223 104.243 20.569C104.202 19.4721 104.222 18.3725 104.234 17.2743C104.248 15.9358 104.825 15.226 105.881 15.2156C106.901 15.2056 107.415 15.8578 107.428 17.2127C107.439 18.4773 107.454 19.743 107.422 21.007C107.405 21.6882 107.865 21.5544 108.231 21.5352C108.602 21.5156 109.156 21.7754 109.14 21.0072C109.112 19.5766 109.177 18.1419 109.096 16.7151C109.031 15.5544 108.697 14.4388 107.461 13.9712C106.207 13.497 105.118 13.8586 104.073 15.015H104.073ZM87.8215 17.6844C87.8195 15.4145 86.3116 13.8108 84.18 13.811C82.0374 13.8112 80.4715 15.4797 80.4684 17.7659C80.4653 20.0492 81.9604 21.6807 84.0724 21.6984C86.2591 21.7169 87.8238 20.0416 87.8215 17.6844H87.8215ZM159.485 15.0734C159.768 13.8784 159.19 13.933 158.569 13.9242C157.71 13.9117 158.037 14.5118 158.034 14.8956C158.024 16.7583 158.059 18.6211 158.05 20.4836C158.047 21.1204 157.986 21.6011 158.936 21.5842C159.821 21.5685 159.781 21.1378 159.769 20.5348C159.746 19.4375 159.754 18.3394 159.765 17.2417C159.778 15.912 160.362 15.2098 161.426 15.2169C162.438 15.2234 162.945 15.88 162.958 17.2401C162.971 18.5039 162.981 19.7686 162.955 21.032C162.941 21.7296 163.43 21.5402 163.781 21.5344C164.124 21.5288 164.632 21.7546 164.621 21.0526C164.596 19.4898 164.688 17.9193 164.564 16.3653C164.414 14.4768 163.071 13.4898 161.36 13.8356C160.686 13.972 160.18 14.3922 159.485 15.0734V15.0734ZM123.594 17.7131C123.601 15.4495 122.092 13.825 119.969 13.8108C117.814 13.7966 116.254 15.4367 116.233 17.7374C116.213 20.0644 117.748 21.7238 119.902 21.7035C122.033 21.6833 123.587 20.0036 123.594 17.7131V17.7131ZM155.591 17.6533C155.575 15.4001 154.039 13.7972 151.906 13.809C149.766 13.821 148.22 15.4993 148.232 17.7973C148.243 20.0896 149.739 21.6991 151.86 21.7015C154.032 21.704 155.607 19.9954 155.591 17.6533ZM179.92 14.9318C179.92 13.5709 179.876 12.4206 179.936 11.2761C179.974 10.58 179.71 10.4337 179.082 10.4563C178.521 10.4763 178.183 10.4787 178.194 11.2345C178.242 14.4264 178.235 17.6199 178.198 20.8122C178.19 21.4811 178.448 21.5868 179.012 21.5558C179.525 21.5274 179.983 21.6216 179.939 20.8126C179.869 19.5193 179.894 18.2185 179.936 16.9229C179.97 15.8615 180.574 15.2493 181.506 15.2165C182.479 15.1821 183.063 15.7751 183.103 16.9643C183.149 18.2932 183.145 19.6254 183.108 20.9547C183.091 21.5794 183.449 21.5989 183.867 21.5367C184.22 21.4843 184.805 21.833 184.794 21.0465C184.775 19.517 184.864 17.98 184.743 16.4595C184.589 14.5287 183.315 13.5359 181.614 13.8192C180.967 13.927 180.496 14.3182 179.92 14.9319L179.92 14.9318ZM139.532 14.6071C136.746 12.6388 134.483 14.5566 134.103 16.9709C133.824 18.7433 134.47 20.5536 135.708 21.2963C136.343 21.6773 137.028 21.7064 137.733 21.6316C138.484 21.552 139.073 21.157 139.746 20.3736C139.549 21.5119 140.056 21.5906 140.74 21.5594C141.237 21.5369 141.242 21.2934 141.239 20.9205C141.217 17.6629 141.185 14.4052 141.213 11.1479C141.22 10.3985 140.816 10.4909 140.339 10.4625C139.776 10.4289 139.482 10.5339 139.517 11.2049C139.572 12.2976 139.532 13.3948 139.532 14.6071V14.6071ZM69.9364 16.323C69.9364 17.7873 69.9568 19.2519 69.9255 20.7156C69.9144 21.2389 70.0317 21.5148 70.6096 21.5328C71.5742 21.5627 72.5383 21.6598 73.5016 21.5492C76.1849 21.2414 77.8226 19.871 78.3362 17.5208C79.1071 13.9913 77.4171 11.4488 73.9929 11.0442C72.8681 10.9112 71.7367 10.9857 70.6063 11.1072C70.0401 11.168 69.9138 11.4058 69.9255 11.9302C69.9578 13.3939 69.9366 14.8585 69.9364 16.323V16.323ZM45.2235 11.0775C45.1895 10.5467 45.4986 9.8349 44.412 10.0153C40.6051 10.6475 37.2202 14.3814 37.0188 18.2413C36.9573 19.4141 37.0021 19.457 38.1236 19.2989C41.9608 18.7583 45.0731 15.154 45.2235 11.0775V11.0775ZM175.088 37.937C175.061 37.463 175.051 37.302 175.043 37.141C174.936 35.0153 174.936 35.0501 172.843 35.019C172.121 35.0081 171.981 35.2322 171.99 35.9127C172.043 39.9704 172.05 44.0286 172.065 48.0865C172.073 50.4046 172.068 50.3454 174.383 50.4301C175.39 50.467 175.579 50.1427 175.553 49.2129C175.485 46.82 175.501 44.423 175.54 42.0285C175.579 39.5954 176.885 37.9126 178.895 38.0039C180.215 38.0641 180.288 37.5088 180.171 36.5496C180.164 36.484 180.171 36.4167 180.171 36.3502C180.171 34.6434 179.829 34.4027 178.137 34.9053C177.134 35.2036 176.376 35.8179 175.818 36.6878C175.609 37.0127 175.426 37.355 175.088 37.937ZM145.028 42.1594L145.121 42.1596C145.121 43.6571 145.005 45.1654 145.145 46.6495C145.434 49.7048 146.967 50.9056 150.036 50.6671C152.093 50.5071 152.078 50.508 151.96 48.4578C151.932 47.9591 151.858 47.7805 151.277 47.8423C149.208 48.0625 148.467 47.4003 148.413 45.3155C148.372 43.7179 148.391 42.1185 148.398 40.5199C148.403 39.5925 148.083 38.3639 148.549 37.8163C149.093 37.1782 150.362 37.6172 151.31 37.6283C152.016 37.6364 152.206 37.4361 152.19 36.7368C152.152 35.0395 152.189 35.0388 150.54 35.0388C148.396 35.0388 148.396 35.0388 148.396 32.8548C148.396 31.1915 148.396 31.1918 146.85 31.6836C145.039 32.2605 145.004 32.2613 145.046 34.1083C145.063 34.826 144.921 35.0984 144.134 35.0598C142.798 34.9938 142.795 35.0494 142.796 36.4351C142.796 36.5682 142.813 36.7042 142.793 36.8342C142.696 37.4456 142.933 37.7033 143.558 37.6106C143.786 37.5768 144.028 37.6332 144.256 37.6001C144.866 37.5114 145.068 37.733 145.043 38.3632C144.993 39.6269 145.028 40.894 145.028 42.1594V42.1594ZM190.226 43.5302H193.022C195.583 43.5302 195.63 43.5253 195.359 40.957C195.082 38.332 194.103 36.0998 191.396 35.1218C187.9 33.8591 184.264 35.4193 182.717 38.792C182.037 40.2732 181.753 41.8342 181.853 43.453C182.094 47.3499 184.208 49.9462 187.653 50.5592C189.347 50.8607 191.039 50.7115 192.709 50.3401C194.645 49.9093 194.639 49.8756 194.205 47.9605C194.094 47.4678 193.944 47.4051 193.481 47.5637C192.043 48.0556 190.547 48.1521 189.044 48.0152C186.887 47.819 185.374 46.3062 185.156 44.2505C185.094 43.6691 185.253 43.5041 185.832 43.5183C187.295 43.5549 188.761 43.5305 190.226 43.5302V43.5302ZM169.125 42.4603C169.099 42.192 169.066 41.7608 169.015 41.3317C168.49 36.9207 164.779 34.0974 160.406 34.7795C156.466 35.394 153.882 38.816 154.077 43.1792C154.201 45.9705 155.196 48.309 157.707 49.7697C162.124 52.3392 169.073 50.0077 169.125 42.4602L169.125 42.4603ZM128.479 46.6066C128.267 47.3206 128.118 47.9729 127.878 48.589C127.627 49.2311 127.831 49.5656 128.436 49.8044C131.378 50.9649 134.362 51.1363 137.292 49.9141C140.554 48.5529 141.874 44.6119 140.176 41.6343C139.274 40.0502 137.77 39.1916 136.183 38.4533C135.069 37.9351 133.885 37.5628 132.862 36.8543C131.849 36.1537 131.265 35.2333 131.486 33.9714C131.71 32.6939 132.616 32.07 133.801 31.7802C135.458 31.3749 137.038 31.7286 138.589 32.3007C138.893 32.413 139.193 32.6537 139.352 32.1298C139.546 31.4936 139.748 30.8594 139.964 30.2305C140.082 29.8878 139.914 29.7349 139.63 29.6341C136.482 28.5159 133.351 28.2609 130.433 30.2058C127.245 32.332 127.162 36.7079 130.184 39.0576C131.03 39.7153 131.962 40.2206 132.956 40.6233C133.848 40.985 134.773 41.2747 135.603 41.781C137.036 42.6541 137.654 43.9033 137.376 45.376C137.132 46.6728 136.062 47.5727 134.439 47.8202C132.347 48.1395 130.413 47.6316 128.479 46.6067L128.479 46.6066ZM67.8473 50.4017C68.8558 50.4017 69.7539 50.3569 70.6452 50.4175C71.2445 50.4581 71.4457 50.2035 71.5951 49.6818C72.0527 48.0841 72.5864 46.5082 73.0306 44.9073C73.1954 44.3131 73.475 44.1395 74.0737 44.1557C75.6382 44.1983 77.2123 44.2655 78.7676 44.1394C79.9677 44.0419 80.5078 44.4424 80.6937 45.6055C80.8133 46.3521 81.1217 47.0708 81.3653 47.7951C81.6494 48.641 81.6104 49.8295 82.2743 50.2476C82.9251 50.6574 84.0135 50.3327 84.9019 50.4152C85.7219 50.4914 85.8189 50.2555 85.5726 49.5035C83.5425 43.3129 81.5472 37.1105 79.5461 30.9104C78.9731 29.1358 78.9797 29.1338 77.0613 29.1338C76.5949 29.1338 76.1229 29.1805 75.6635 29.1231C74.9426 29.0329 74.6282 29.3109 74.4082 30.0116C73.0347 34.3879 71.6083 38.7475 70.1993 43.1128C69.4249 45.5122 68.6507 47.9114 67.8473 50.4017ZM91.872 37.449C91.6953 36.572 92.0512 35.528 91.5087 35.1617C90.9762 34.8027 90.0296 35.0828 89.2685 35.0293C88.7052 34.9898 88.613 35.2311 88.6404 35.7306C88.9716 41.8179 88.7321 47.9107 88.7941 54.0009C88.8221 56.7517 88.7984 56.7352 91.5749 56.6479C92.1047 56.6314 92.2483 56.4831 92.242 55.9653C92.2158 53.835 92.2243 51.7043 92.2415 49.5742C92.2434 49.3525 92.065 49.053 92.3886 48.8832C94.6619 51.6258 99.7975 51.3153 101.899 47.9499C103.994 44.5926 104.08 41.0885 102.158 37.6354C101.007 35.5691 99.1177 34.6503 96.7367 34.7508C94.7171 34.8365 93.138 35.7288 91.872 37.449ZM109.934 48.7771C112.868 51.6898 117.428 51.2814 119.591 47.9035C121.708 44.5986 121.785 41.0794 119.855 37.6803C117.773 34.0132 112.747 33.6702 110.003 36.875C109.875 37.0246 109.838 37.3262 109.527 37.2725C109.296 36.5535 109.747 35.5601 109.204 35.1852C108.7 34.8371 107.797 35.0873 107.073 35.0307C106.52 34.9874 106.325 35.1412 106.349 35.7429C106.592 41.8369 106.427 47.9345 106.468 54.0305C106.485 56.6759 106.471 56.6519 109.107 56.6504C109.761 56.65 109.961 56.4874 109.949 55.8209C109.909 53.5236 109.934 51.2252 109.934 48.7771V48.7771ZM20.4412 31.7588C20.4503 33.6914 20.6346 35.2443 21.0124 36.767C22.1351 41.2927 24.0122 45.4278 27.3014 48.8295C29.2444 50.8392 31.4259 51.333 33.9932 50.0691C36.5023 48.8341 39.0321 48.8802 41.6068 50.0063C44.5443 51.2907 46.5157 50.8607 48.7312 48.5499C50.9337 46.2528 52.3558 43.4852 53.4738 40.5345C53.6688 40.0188 53.5139 39.8659 53.095 39.6359C47.012 36.2982 46.4314 28.4431 51.9801 24.3274C52.5839 23.8798 52.5562 23.6574 52.1 23.1483C49.319 20.0462 45.0979 18.8468 41.1906 20.4962C38.5575 21.6079 36.2486 21.7118 33.5698 20.5622C30.2312 19.1296 27.0078 19.9661 24.3109 22.3973C21.4424 24.9831 20.5334 28.4005 20.4412 31.7587V31.7588ZM92.436 19.3865C92.0735 17.7635 91.6984 16.143 91.3534 14.5162C91.1524 13.5691 90.4074 13.9248 89.914 13.973C89.2591 14.0371 89.7243 14.5378 89.7963 14.7948C90.3533 16.7796 90.9812 18.7447 91.5127 20.7358C91.683 21.3742 91.9505 21.5596 92.5959 21.5724C93.2469 21.5853 93.4467 21.2996 93.5925 20.7577C93.9981 19.2527 94.4418 17.7581 94.9552 15.9636C95.4695 17.8282 95.9195 19.386 96.3201 20.9567C96.4306 21.3898 96.6034 21.6187 97.0544 21.5411C97.4648 21.4706 98.0053 21.7974 98.2127 21.1015C98.9135 18.7497 99.6402 16.4055 100.359 14.0509C98.8442 13.7959 98.8394 13.7945 98.486 15.1592C98.1047 16.632 97.7334 18.1076 97.2846 19.8691C96.7552 17.9339 96.2719 16.2816 95.8639 14.6112C95.7345 14.0804 95.5212 13.9231 94.9945 13.9184C94.4649 13.9136 94.2451 14.0905 94.1083 14.6C93.6948 16.1408 93.2226 17.6658 92.773 19.1971C92.6607 19.2604 92.5481 19.3235 92.436 19.3865V19.3865ZM107.897 64.0002C75.837 64.0002 43.7776 64.0014 11.7182 63.9989C6.4787 63.9983 2.37388 61.268 0.680596 56.6636C0.204908 55.3708 0.00349492 54.0263 0.00389943 52.6481C0.00615795 38.8863 -0.0109158 25.1245 0.0125459 11.3627C0.0234508 4.88849 4.83604 0.0961636 11.3207 0.013567C11.5205 0.0109379 11.7205 0.0129434 11.9204 0.0129434C75.9729 0.0129434 140.025 0.0187072 204.077 0.000489068C208.574 -0.00084232 212.084 1.68717 214.459 5.55127C215.456 7.1733 215.97 8.96842 215.972 10.8653C215.99 24.9603 216.032 39.0555 215.958 53.1501C215.927 59.0358 211.149 63.7484 205.274 63.9804C204.808 63.9989 204.341 63.9994 203.875 63.9994C171.882 64.0002 139.889 64.0002 107.897 64.0002H107.897Z" fill="black"/>
    <path fill-rule="evenodd" clip-rule="evenodd" d="M20.4492 31.7599C20.5414 28.4018 21.4503 24.9848 24.3185 22.3991C27.0151 19.968 30.2382 19.1316 33.5765 20.5642C36.2548 21.7138 38.5637 21.6098 41.1968 20.4982C45.1033 18.849 49.3243 20.0483 52.1049 23.1501C52.561 23.6592 52.5888 23.8814 51.9852 24.3291C46.437 28.4445 47.0173 36.2989 53.0998 39.6363C53.5189 39.8663 53.6736 40.0193 53.4785 40.5349C52.3608 43.4853 50.9387 46.2528 48.7364 48.5499C46.5214 50.8604 44.5499 51.2903 41.6128 50.006C39.0385 48.88 36.5085 48.8338 33.9999 50.0688C31.4329 51.3326 29.2516 50.8387 27.3087 48.8293C24.0198 45.4278 22.1432 41.293 21.0203 36.7679C20.6424 35.2451 20.4583 33.6924 20.4492 31.7599L20.4492 31.7599Z" fill="#FEFEFE"/>
    <path fill-rule="evenodd" clip-rule="evenodd" d="M109.993 42.905C109.993 43.5697 109.908 44.2482 110.01 44.897C110.245 46.3774 110.977 47.5509 112.518 47.9349C114.01 48.3066 115.363 47.9948 116.398 46.7563C118.089 44.7328 118.091 40.7465 116.404 38.7325C114.685 36.6818 111.482 37.1376 110.383 39.573C109.899 40.6473 109.921 41.7726 109.993 42.905ZM109.934 48.7769C109.934 51.225 109.91 53.5235 109.949 55.8207C109.961 56.4871 109.761 56.6497 109.107 56.6501C106.471 56.6518 106.486 56.6758 106.468 54.0302C106.427 47.9342 106.592 41.8366 106.349 35.7427C106.325 35.1411 106.52 34.9873 107.073 35.0304C107.797 35.0871 108.701 34.8369 109.204 35.185C109.747 35.56 109.296 36.5533 109.527 37.2723C109.838 37.3259 109.875 37.0243 110.003 36.875C112.747 33.6701 117.773 34.0131 119.855 37.6802C121.785 41.0793 121.708 44.5984 119.592 47.9033C117.428 51.2812 112.869 51.6895 109.934 48.7769Z" fill="#FEFEFE"/>
    <path fill-rule="evenodd" clip-rule="evenodd" d="M92.235 42.7481C92.2288 43.6862 92.1823 44.5217 92.4107 45.3356C92.7765 46.6378 93.5052 47.6332 94.8813 47.9485C96.2988 48.2735 97.5963 48.0125 98.6332 46.9022C100.491 44.9116 100.527 40.7044 98.7056 38.6696C96.8856 36.6368 93.6702 37.1897 92.6452 39.7122C92.2341 40.7234 92.1926 41.784 92.235 42.7481ZM91.8728 37.4496C93.1385 35.7294 94.7178 34.8371 96.7374 34.7516C99.1187 34.6511 101.008 35.5698 102.158 37.6361C104.081 41.0892 103.995 44.5932 101.899 47.9506C99.7981 51.316 94.6627 51.6265 92.3892 48.8841C92.0658 49.0537 92.2439 49.3532 92.2423 49.5748C92.225 51.7051 92.2164 53.8358 92.2427 55.9659C92.2489 56.4839 92.1057 56.632 91.5757 56.6486C88.7989 56.7358 88.8228 56.7524 88.7948 54.0016C88.7327 47.9114 88.9722 41.8185 88.6409 35.7312C88.6138 35.2318 88.7059 34.9906 89.2693 35.03C90.0305 35.0834 90.977 34.8034 91.5094 35.1624C92.0518 35.5286 91.6958 36.5726 91.8728 37.4496Z" fill="#FEFEFE"/>
    <path fill-rule="evenodd" clip-rule="evenodd" d="M76.7238 32.1681C75.7899 35.2783 74.9455 38.1092 74.0851 40.9353C73.9643 41.3334 73.947 41.5543 74.4744 41.5473C76.0049 41.5269 77.5363 41.5354 79.0672 41.543C79.4627 41.5449 79.5867 41.4587 79.4487 41.0199C78.5533 38.1725 77.6885 35.3156 76.7238 32.1681L76.7238 32.1681ZM67.8472 50.4015C68.651 47.9114 69.425 45.512 70.1992 43.1128C71.6084 38.7475 73.0346 34.3876 74.4086 30.0113C74.6283 29.3107 74.9427 29.0327 75.6636 29.1229C76.1231 29.1803 76.595 29.1337 77.0615 29.1337C78.9798 29.1337 78.9733 29.1358 79.5462 30.9103C81.5475 37.1104 83.5424 43.3128 85.5727 49.5033C85.819 50.2553 85.7221 50.4912 84.9018 50.4152C84.0134 50.3326 82.925 50.6572 82.2744 50.2474C81.6105 49.8293 81.6496 48.6409 81.3654 47.7951C81.122 47.0707 80.8134 46.352 80.6939 45.6054C80.5079 44.4421 79.9676 44.0418 78.7679 44.1392C77.2123 44.2654 75.6383 44.1982 74.0738 44.1557C73.4751 44.1394 73.1957 44.313 73.0307 44.9072C72.5865 46.508 72.0528 48.0841 71.5952 49.6818C71.4459 50.2034 71.2444 50.458 70.6455 50.4173C69.7542 50.3567 68.8557 50.4015 67.8472 50.4015V50.4015Z" fill="#FEFEFE"/>
    <path fill-rule="evenodd" clip-rule="evenodd" d="M128.471 46.6009C130.405 47.6257 132.339 48.1333 134.43 47.8142C136.054 47.5666 137.123 46.6671 137.368 45.3704C137.645 43.8982 137.027 42.6493 135.595 41.7763C134.764 41.2702 133.84 40.9806 132.947 40.6192C131.954 40.2165 131.021 39.7112 130.176 39.0537C127.154 36.7047 127.237 32.3298 130.425 30.2042C133.343 28.2597 136.474 28.5146 139.621 29.6326C139.906 29.7333 140.073 29.8862 139.955 30.2288C139.739 30.8576 139.537 31.4916 139.344 32.1276C139.184 32.6515 138.884 32.4108 138.58 32.2986C137.029 31.7265 135.45 31.373 133.792 31.7781C132.607 32.0678 131.702 32.6918 131.478 33.9689C131.257 35.2303 131.841 36.1506 132.853 36.851C133.877 37.5592 135.06 37.9316 136.174 38.4496C137.761 39.1876 139.265 40.046 140.168 41.6297C141.866 44.6067 140.546 48.5466 137.283 49.9075C134.354 51.1295 131.369 50.9581 128.428 49.7979C127.823 49.5592 127.619 49.2246 127.87 48.5827C128.11 47.9667 128.259 47.3147 128.471 46.6009V46.6009Z" fill="#FEFEFE"/>
    <path fill-rule="evenodd" clip-rule="evenodd" d="M157.53 42.8339C157.534 44.0816 157.732 45.284 158.39 46.3696C159.885 48.833 162.939 48.9225 164.564 46.5544C165.911 44.5914 165.949 41.0598 164.646 39.056C163.154 36.7639 160.257 36.6743 158.639 38.8774C157.775 40.054 157.532 41.4125 157.53 42.8339ZM169.125 42.4613C169.072 50.0088 162.123 52.3403 157.707 49.7707C155.196 48.3101 154.201 45.9716 154.077 43.1801C153.882 38.8172 156.465 35.3951 160.406 34.7806C164.779 34.0985 168.49 36.9218 169.015 41.3326C169.066 41.762 169.099 42.1931 169.125 42.4613L169.125 42.4613Z" fill="#FEFEFE"/>
    <path fill-rule="evenodd" clip-rule="evenodd" d="M188.803 37.0341C187.026 37.0377 185.27 38.8027 185.165 40.6454C185.139 41.0918 185.331 41.1367 185.678 41.1357C187.671 41.1295 189.662 41.1318 191.654 41.1348C191.944 41.1352 192.133 41.1062 192.17 40.7208C192.349 38.8162 190.736 37.0301 188.803 37.0341V37.0341ZM190.225 43.5306C188.761 43.5308 187.295 43.5552 185.831 43.5186C185.253 43.5044 185.094 43.6695 185.156 44.2509C185.374 46.3065 186.887 47.8194 189.043 48.0155C190.547 48.1523 192.042 48.0557 193.48 47.564C193.944 47.4054 194.094 47.4681 194.205 47.961C194.639 49.876 194.645 49.9096 192.708 50.3405C191.039 50.7119 189.347 50.8609 187.653 50.5597C184.208 49.9465 182.094 47.3504 181.853 43.4532C181.753 41.8345 182.037 40.2735 182.717 38.7923C184.264 35.4196 187.899 33.8594 191.395 35.1223C194.103 36.1003 195.082 38.3323 195.358 40.9573C195.63 43.5256 195.582 43.5307 193.022 43.5307C192.09 43.5307 191.158 43.5307 190.225 43.5307V43.5306Z" fill="#FEFEFE"/>
    <path fill-rule="evenodd" clip-rule="evenodd" d="M145.035 42.1584C145.035 40.8928 144.999 39.6258 145.049 38.362C145.074 37.7317 144.872 37.5101 144.262 37.5987C144.034 37.6319 143.793 37.5756 143.565 37.6093C142.939 37.7019 142.702 37.4443 142.8 36.8328C142.82 36.7028 142.802 36.5668 142.802 36.4336C142.802 35.0478 142.805 34.9923 144.14 35.0583C144.927 35.0971 145.069 34.8244 145.052 34.1067C145.01 32.2595 145.045 32.2586 146.856 31.6818C148.401 31.19 148.401 31.1898 148.401 32.8531C148.401 35.0372 148.401 35.0372 150.545 35.0372C152.193 35.0372 152.157 35.038 152.195 36.7354C152.211 37.4347 152.021 37.6351 151.315 37.6269C150.367 37.6159 149.098 37.1768 148.555 37.8149C148.088 38.3626 148.408 39.5913 148.404 40.5188C148.397 42.1176 148.378 43.7173 148.419 45.3148C148.472 47.3999 149.213 48.0622 151.281 47.8419C151.863 47.7801 151.936 47.9588 151.965 48.4574C152.082 50.5078 152.098 50.5068 150.041 50.6668C146.973 50.9054 145.44 49.7045 145.152 46.649C145.011 45.1648 145.127 43.6562 145.127 42.1587L145.035 42.1584Z" fill="#FEFEFE"/>
    <path fill-rule="evenodd" clip-rule="evenodd" d="M175.086 37.9426C175.424 37.3605 175.606 37.0181 175.815 36.6931C176.374 35.8231 177.131 35.2087 178.133 34.9105C179.824 34.4077 180.165 34.6484 180.165 36.3555C180.165 36.4221 180.159 36.4893 180.167 36.555C180.283 37.5143 180.21 38.0696 178.891 38.0096C176.882 37.9181 175.577 39.6012 175.538 42.0347C175.499 44.4294 175.482 46.8268 175.551 49.2201C175.577 50.1501 175.388 50.4744 174.381 50.4375C172.068 50.3527 172.072 50.4119 172.064 48.0935C172.05 44.035 172.043 39.9764 171.99 35.918C171.981 35.2373 172.12 35.0133 172.843 35.0242C174.934 35.0553 174.935 35.0205 175.04 37.1464C175.049 37.3074 175.059 37.4685 175.086 37.9426L175.086 37.9426Z" fill="#FDFDFD"/>
    <path fill-rule="evenodd" clip-rule="evenodd" d="M45.2175 11.0857C45.0682 15.1578 41.9574 18.7587 38.1222 19.2989C37.0012 19.4567 36.9566 19.4139 37.0177 18.2423C37.2192 14.3858 40.6023 10.6553 44.4075 10.0237C45.4935 9.84343 45.1846 10.5546 45.2175 11.0857V11.0857Z" fill="#FEFEFE"/>
    <path fill-rule="evenodd" clip-rule="evenodd" d="M70.201 20.9779C70.2673 20.9677 70.3335 20.9574 70.3998 20.9472C70.3998 18.1582 70.3977 15.3693 70.4014 12.5804C70.4027 12.1255 70.2566 11.584 71.0113 11.488C70.4969 11.3703 70.1936 11.4376 70.1957 12.0196C70.2072 15.0057 70.201 17.9918 70.201 20.9779ZM72.8486 12.3414C72.5161 12.6637 71.5717 11.8315 71.5503 12.9132C71.5059 15.1693 71.5388 17.4273 71.5359 19.6846C71.5351 19.9769 71.5693 20.1987 71.9474 20.2148C73.4057 20.2757 74.8764 20.2607 75.8467 18.9619C76.9536 17.48 76.9705 15.7852 76.3113 14.1343C75.7183 12.6497 74.3456 12.3965 72.8486 12.3414H72.8486ZM69.9367 16.3235C69.9367 14.859 69.9576 13.3944 69.9256 11.9307C69.9136 11.4063 70.0399 11.1685 70.6062 11.1076C71.7365 10.9861 72.8681 10.9117 73.9927 11.0448C77.4167 11.4493 79.1071 13.9918 78.336 17.5213C77.8229 19.8715 76.1851 21.2419 73.5014 21.5496C72.5381 21.6602 71.574 21.5632 70.6094 21.5332C70.0313 21.5153 69.9144 21.2394 69.9256 20.716C69.9564 19.2524 69.9363 17.7877 69.9367 16.3235V16.3235Z" fill="#FDFDFD"/>
    <path fill-rule="evenodd" clip-rule="evenodd" d="M139.533 17.6629C139.542 16.7433 139.489 15.8151 138.559 15.3266C137.902 14.9814 137.189 15.0593 136.597 15.5439C135.865 16.1417 135.686 16.9801 135.722 17.8727C135.783 19.3725 136.631 20.3607 137.79 20.3158C138.901 20.2726 139.515 19.4084 139.531 17.8625C139.532 17.7964 139.531 17.7298 139.533 17.6629L139.533 17.6629ZM139.531 14.606C139.531 13.3938 139.571 12.2965 139.516 11.2039C139.482 10.533 139.775 10.4279 140.338 10.4616C140.815 10.49 141.219 10.3976 141.212 11.1469C141.184 14.4042 141.216 17.662 141.238 20.9194C141.241 21.2925 141.237 21.5358 140.739 21.5584C140.055 21.5897 139.548 21.5109 139.745 20.3726C139.072 21.156 138.483 21.551 137.733 21.6306C137.027 21.7055 136.342 21.6763 135.707 21.2953C134.47 20.5526 133.823 18.7423 134.102 16.9699C134.482 14.5557 136.745 12.6379 139.531 14.606L139.531 14.606Z" fill="#FDFDFD"/>
    <path fill-rule="evenodd" clip-rule="evenodd" d="M92.7716 19.1951C93.2213 17.6632 93.6936 16.1375 94.1075 14.596C94.2444 14.0865 94.464 13.9093 94.9937 13.9142C95.5207 13.919 95.7337 14.0762 95.8634 14.6072C96.2715 16.2784 96.7548 17.9313 97.2845 19.8674C97.7336 18.1052 98.1048 16.629 98.4862 15.1555C98.8398 13.7903 98.8445 13.7917 100.36 14.0468C99.6408 16.4023 98.9138 18.7475 98.2129 21.1004C98.0054 21.7965 97.4648 21.4695 97.0542 21.54C96.6031 21.6177 96.4304 21.3886 96.3197 20.9555C95.919 19.3841 95.4689 17.8257 94.9544 15.9603C94.4409 17.7554 93.997 19.2507 93.5913 20.7564C93.4454 21.2984 93.2458 21.5844 92.5944 21.5714C91.949 21.5585 91.6815 21.373 91.5109 20.7344C90.9793 18.7425 90.3512 16.7766 89.7943 14.7909C89.7222 14.5338 89.2567 14.033 89.9118 13.9688C90.4053 13.9205 91.1505 13.5649 91.3516 14.5122C91.6967 16.1398 92.0719 17.7608 92.4345 19.3846C92.459 19.497 92.4837 19.6094 92.5082 19.7219C92.7467 19.6217 92.8214 19.4396 92.7716 19.1951L92.7716 19.1951Z" fill="#FDFDFD"/>
    <path fill-rule="evenodd" clip-rule="evenodd" d="M179.919 14.933C180.494 14.3199 180.964 13.9289 181.611 13.8212C183.309 13.5379 184.581 14.5301 184.735 16.4596C184.856 17.9791 184.767 19.5152 184.786 21.0435C184.797 21.8297 184.213 21.481 183.861 21.5334C183.442 21.5955 183.086 21.5762 183.103 20.9518C183.139 19.6234 183.143 18.2921 183.098 16.9641C183.057 15.7757 182.475 15.183 181.503 15.2174C180.572 15.2502 179.969 15.8621 179.935 16.9227C179.894 18.2175 179.868 19.5175 179.939 20.8099C179.982 21.6183 179.525 21.5241 179.012 21.5526C178.449 21.5836 178.191 21.4779 178.199 20.8095C178.237 17.6192 178.244 14.428 178.196 11.2382C178.184 10.4829 178.523 10.4804 179.082 10.4605C179.709 10.4378 179.973 10.584 179.936 11.2797C179.875 12.4234 179.919 13.5728 179.919 14.933L179.919 14.933Z" fill="#FCFCFC"/>
    <path fill-rule="evenodd" clip-rule="evenodd" d="M153.821 17.693C153.82 16.1231 153.013 15.0152 151.882 15.0326C150.787 15.0497 149.984 16.1167 149.941 17.6143C149.94 17.6474 149.937 17.6804 149.937 17.7135C149.918 19.3656 150.701 20.4819 151.868 20.4671C153.013 20.4525 153.823 19.3022 153.821 17.693ZM155.591 17.6534C155.607 19.9955 154.033 21.7042 151.861 21.7015C149.739 21.6992 148.244 20.0897 148.232 17.7974C148.22 15.4994 149.767 13.8211 151.907 13.8091C154.039 13.7973 155.576 15.4001 155.591 17.6534H155.591Z" fill="#FDFDFD"/>
    <path fill-rule="evenodd" clip-rule="evenodd" d="M121.823 17.6541C121.811 16.1359 121.041 15.0624 119.945 15.0344C118.817 15.0056 117.976 16.1046 117.942 17.6535C117.906 19.3095 118.656 20.4389 119.811 20.4645C120.996 20.491 121.836 19.3181 121.823 17.6541V17.6541ZM123.594 17.713C123.587 20.0035 122.033 21.6831 119.902 21.7033C117.748 21.7237 116.213 20.0643 116.234 17.7372C116.254 15.4365 117.814 13.7965 119.969 13.8106C122.092 13.8248 123.601 15.4493 123.594 17.713Z" fill="#FDFDFD"/>
    <path fill-rule="evenodd" clip-rule="evenodd" d="M159.492 15.0697C160.187 14.3888 160.692 13.9686 161.367 13.8323C163.077 13.4866 164.419 14.4733 164.57 16.3613C164.694 17.9149 164.602 19.4847 164.626 21.0471C164.638 21.749 164.129 21.5232 163.787 21.5288C163.436 21.5346 162.947 21.7239 162.961 21.0265C162.987 19.7635 162.977 18.4992 162.964 17.2358C162.951 15.8762 162.444 15.2196 161.432 15.2131C160.369 15.2061 159.785 15.9082 159.772 17.2374C159.761 18.3346 159.753 19.4327 159.776 20.5294C159.788 21.1324 159.828 21.5628 158.943 21.5786C157.993 21.5954 158.054 21.115 158.058 20.4782C158.067 18.6164 158.031 16.7541 158.042 14.892C158.044 14.5083 157.717 13.9086 158.576 13.9209C159.198 13.9297 159.775 13.8751 159.492 15.0697V15.0697Z" fill="#FCFCFC"/>
    <path fill-rule="evenodd" clip-rule="evenodd" d="M86.0583 17.6961C86.0589 16.1263 85.2552 15.0175 84.1284 15.0331C83.0392 15.0481 82.2217 16.1303 82.1787 17.6131C82.13 19.3062 82.9262 20.4834 84.1103 20.4686C85.259 20.4542 86.0579 19.3171 86.0583 17.6961ZM87.8219 17.6849C87.8243 20.0421 86.2596 21.7174 84.073 21.6989C81.9608 21.6812 80.4657 20.0496 80.4688 17.7665C80.4718 15.4802 82.0378 13.8118 84.1804 13.8115C86.3121 13.8114 87.8198 15.4151 87.8219 17.6849Z" fill="#FDFDFD"/>
    <path fill-rule="evenodd" clip-rule="evenodd" d="M104.076 15.0142C105.121 13.8564 106.21 13.4944 107.463 13.9692C108.698 14.4374 109.031 15.5543 109.097 16.7163C109.177 18.1448 109.113 19.581 109.141 21.0134C109.156 21.7825 108.602 21.5225 108.232 21.542C107.867 21.5613 107.406 21.6953 107.424 21.0132C107.456 19.7477 107.441 18.4805 107.429 17.2145C107.417 15.858 106.903 15.2051 105.883 15.2151C104.827 15.2254 104.251 15.9361 104.237 17.2761C104.225 18.3756 104.205 19.4766 104.246 20.5747C104.27 21.2295 104.224 21.5993 103.377 21.5871C102.577 21.5753 102.566 21.2214 102.568 20.6205C102.576 18.6215 102.548 16.6221 102.511 14.6236C102.504 14.2225 102.459 13.8452 103.026 13.9424C103.405 14.007 104.047 13.6165 104.029 14.4642C104.027 14.5825 104.048 14.7015 104.076 15.0142H104.076Z" fill="#FDFDFD"/>
    <path fill-rule="evenodd" clip-rule="evenodd" d="M188.815 16.9771C189.839 16.9771 190.798 16.9753 191.756 16.978C192.072 16.979 192.346 16.9958 192.308 16.5192C192.246 15.7362 191.646 15.0686 190.862 14.9894C189.786 14.881 189.171 15.443 188.815 16.9771ZM191.3 18.1852C190.634 18.1853 189.968 18.2089 189.305 18.1778C188.815 18.1545 188.739 18.3441 188.878 18.764C189.139 19.5529 189.631 20.0637 190.468 20.238C191.204 20.3914 191.931 20.2986 192.647 20.1746C193.063 20.1026 193.317 20.044 193.406 20.5866C193.487 21.085 193.384 21.3452 192.864 21.399C192.336 21.4536 191.811 21.56 191.283 21.5841C189.414 21.6684 188.157 21.0335 187.581 19.6485C186.873 17.9436 187.079 16.3179 188.275 14.8944C189.213 13.7784 190.83 13.4539 192.088 14.035C193.287 14.5885 194.122 16.2551 193.916 17.6293C193.858 18.0164 193.734 18.2174 193.293 18.1939C192.63 18.159 191.964 18.1849 191.3 18.1852H191.3Z" fill="#FCFCFC"/>
    <path fill-rule="evenodd" clip-rule="evenodd" d="M130 18.4729C130.023 18.1504 130.102 17.7089 129.339 17.7453C128.067 17.8059 127.225 18.3285 127.208 19.2269C127.194 19.9781 127.563 20.415 128.341 20.4364C129.325 20.4633 129.979 19.7432 130 18.4729ZM130.014 20.7478C129.329 21.449 128.605 21.7166 127.759 21.6742C126.721 21.6223 125.885 21.0362 125.621 20.1626C125.331 19.2007 125.645 18.1891 126.43 17.5579C127.279 16.8753 128.295 16.6847 129.334 16.664C129.97 16.6513 129.96 16.3738 129.826 15.918C129.536 14.936 128.753 14.9446 127.969 15.0078C127.61 15.0368 127.246 15.1376 126.91 15.2706C126.601 15.3931 126.343 15.5242 126.254 15.0618C126.196 14.76 125.963 14.4092 126.444 14.2238C127.725 13.7316 129.022 13.504 130.305 14.162C131.41 14.729 131.567 15.7965 131.593 16.895C131.623 18.1928 131.645 19.4908 131.656 20.7888C131.659 21.0654 131.968 21.5568 131.37 21.5162C130.962 21.4885 130.313 21.9271 130.16 21.0936C130.145 21.0086 130.093 20.9302 130.014 20.7478V20.7478Z" fill="#FDFDFD"/>
    <path fill-rule="evenodd" clip-rule="evenodd" d="M174.589 21.6553C173.276 21.6722 172.517 20.99 172.429 19.5758C172.352 18.3482 172.386 17.1132 172.392 15.8815C172.393 15.474 172.381 15.1339 171.828 15.2127C171.288 15.2896 171.247 14.9643 171.249 14.545C171.251 14.152 171.318 13.877 171.792 13.9422C172.414 14.0278 172.39 13.6296 172.394 13.1992C172.399 12.6935 173.445 12.0036 173.888 12.1953C174.181 12.3229 174.07 12.6076 174.043 12.8019C173.923 13.6827 174.206 14.1267 175.16 13.9415C175.922 13.7937 175.975 14.2593 175.922 14.8197C175.864 15.4359 175.372 15.23 175.077 15.1962C174.244 15.1003 173.966 15.3963 174.039 16.2334C174.124 17.2254 174.067 18.2291 174.108 19.226C174.13 19.7668 174.342 20.2536 174.988 20.2149C175.565 20.1805 175.815 20.2918 175.824 20.9453C175.836 21.7096 175.32 21.5833 174.888 21.6529C174.791 21.6687 174.689 21.6553 174.589 21.6553H174.589Z" fill="#FDFDFD"/>
    <path fill-rule="evenodd" clip-rule="evenodd" d="M113.779 16.1203C113.779 17.7144 113.746 19.3099 113.796 20.9026C113.816 21.5752 113.467 21.59 112.998 21.5498C112.58 21.514 112.049 21.7527 112.057 20.9394C112.087 17.6514 112.086 14.363 112.058 11.0751C112.051 10.2498 112.604 10.5251 113.012 10.4787C113.499 10.4234 113.814 10.4854 113.795 11.1388C113.748 12.7979 113.779 14.4597 113.779 16.1203Z" fill="#F9F9F9"/>
    <path fill-rule="evenodd" clip-rule="evenodd" d="M175.831 46.104C175.831 42.9244 175.862 40.3467 175.901 40.3467C175.939 40.3467 175.97 42.9244 175.97 46.104C175.97 49.2837 175.939 51.8614 175.901 51.8614C175.862 51.8614 175.831 49.2837 175.831 46.104Z" fill="#060606"/>
    <path fill-rule="evenodd" clip-rule="evenodd" d="M92.7697 19.1964C92.8195 19.4428 92.7452 19.6263 92.5082 19.7273C92.4841 19.614 92.4596 19.5007 92.4355 19.3874C92.5466 19.3239 92.6586 19.2602 92.7697 19.1964Z" fill="#5A5A5A"/>
    <path fill-rule="evenodd" clip-rule="evenodd" d="M109.998 42.9063C109.925 41.7744 109.904 40.6497 110.388 39.5759C111.486 37.1415 114.687 36.6858 116.404 38.7356C118.091 40.7488 118.089 44.7334 116.399 46.7559C115.364 47.9941 114.013 48.3057 112.521 47.934C110.982 47.5502 110.25 46.3773 110.015 44.8975C109.913 44.249 109.998 43.5708 109.998 42.9063Z" fill="black"/>
    <path fill-rule="evenodd" clip-rule="evenodd" d="M92.239 42.7436C92.1964 41.7797 92.2377 40.7195 92.6483 39.7087C93.672 37.1868 96.8836 36.634 98.7011 38.6664C100.521 40.7006 100.485 44.9064 98.6288 46.8964C97.5933 48.0064 96.2973 48.2673 94.8815 47.9424C93.5074 47.6273 92.7794 46.6321 92.4142 45.3303C92.1859 44.5167 92.2324 43.6813 92.2389 42.7436H92.239Z" fill="black"/>
    <path fill-rule="evenodd" clip-rule="evenodd" d="M76.7204 32.1625C77.6842 35.313 78.5479 38.1727 79.4422 41.023C79.5801 41.4623 79.456 41.5485 79.061 41.5465C77.5321 41.5389 76.0026 41.5304 74.4737 41.5508C73.947 41.5578 73.9643 41.3366 74.0851 40.9383C74.9445 38.1095 75.7879 35.2757 76.7204 32.1625V32.1625Z" fill="#010101"/>
    <path fill-rule="evenodd" clip-rule="evenodd" d="M157.529 42.838C157.531 41.4149 157.774 40.0556 158.638 38.8781C160.255 36.6735 163.151 36.7633 164.641 39.0569C165.945 41.0621 165.906 44.5961 164.56 46.5605C162.936 48.9303 159.883 48.8407 158.389 46.3755C157.73 45.2892 157.533 44.0859 157.529 42.838Z" fill="black"/>
    <path fill-rule="evenodd" clip-rule="evenodd" d="M188.801 37.0398C190.736 37.0357 192.352 38.8172 192.172 40.717C192.136 41.1014 191.946 41.1303 191.656 41.1299C189.662 41.127 187.667 41.1246 185.672 41.1307C185.324 41.1317 185.132 41.0871 185.157 40.6418C185.263 38.8039 187.021 37.0434 188.801 37.0399V37.0398Z" fill="#010101"/>
    <path fill-rule="evenodd" clip-rule="evenodd" d="M72.8534 12.3407C74.3461 12.3957 75.7149 12.6486 76.3057 14.1321C76.9635 15.7816 76.9466 17.4751 75.8429 18.9559C74.8754 20.2537 73.4085 20.2686 71.9544 20.2076C71.5773 20.1917 71.5436 19.97 71.5441 19.6779C71.5473 17.4224 71.5145 15.1663 71.5588 12.9118C71.5802 11.8311 72.5218 12.6627 72.8534 12.3407Z" fill="black"/>
    <path fill-rule="evenodd" clip-rule="evenodd" d="M70.2093 20.9734C70.2093 17.9874 70.2154 15.0015 70.204 12.0154C70.2016 11.4335 70.5013 11.3661 71.0086 11.4839C70.2637 11.5799 70.4079 12.1213 70.4075 12.5763C70.4034 15.365 70.4055 18.1538 70.4055 20.9426C70.3401 20.9527 70.2743 20.9632 70.2093 20.9734Z" fill="#F8F8F8"/>
    <path fill-rule="evenodd" clip-rule="evenodd" d="M139.538 17.6586C139.538 17.7251 139.538 17.7914 139.537 17.8576C139.521 19.4021 138.906 20.2656 137.794 20.3088C136.632 20.3536 135.783 19.3664 135.722 17.8677C135.686 16.976 135.865 16.1382 136.598 15.5409C137.192 15.0566 137.905 14.9789 138.564 15.3238C139.495 15.8118 139.549 16.7394 139.538 17.6586V17.6586Z" fill="#010101"/>
    <path fill-rule="evenodd" clip-rule="evenodd" d="M153.822 17.6955C153.823 19.3071 153.012 20.4591 151.864 20.4736C150.695 20.4885 149.91 19.3705 149.928 17.7161C149.929 17.6829 149.932 17.6499 149.933 17.6168C149.976 16.1169 150.78 15.0482 151.879 15.0312C153.011 15.0138 153.82 16.1233 153.822 17.6955H153.822Z" fill="#010101"/>
    <path fill-rule="evenodd" clip-rule="evenodd" d="M121.831 17.6556C121.844 19.321 121.003 20.4948 119.816 20.4683C118.66 20.4428 117.908 19.3124 117.944 17.655C117.978 16.1048 118.82 15.0049 119.951 15.0338C121.048 15.0618 121.819 16.1363 121.831 17.6556V17.6556Z" fill="#010101"/>
    <path fill-rule="evenodd" clip-rule="evenodd" d="M86.0496 17.6988C86.0492 19.3226 85.2529 20.4615 84.1078 20.4759C82.9272 20.4907 82.1334 19.3115 82.1822 17.6156C82.2248 16.1304 83.04 15.0462 84.1256 15.0313C85.2488 15.0156 86.0502 16.1262 86.0496 17.6988Z" fill="#010101"/>
    <path fill-rule="evenodd" clip-rule="evenodd" d="M188.818 16.9857C189.173 15.4415 189.786 14.8757 190.859 14.9848C191.642 15.0646 192.239 15.7367 192.301 16.5248C192.339 17.0047 192.066 16.9878 191.751 16.9867C190.795 16.9839 189.839 16.9857 188.818 16.9857Z" fill="#060606"/>
    <path fill-rule="evenodd" clip-rule="evenodd" d="M130.007 18.4697C129.985 19.7388 129.33 20.4584 128.343 20.4315C127.563 20.41 127.193 19.9736 127.207 19.223C127.224 18.3254 128.068 17.8033 129.343 17.7427C130.109 17.7065 130.03 18.1477 130.007 18.4697Z" fill="#030303"/>
</svg>
