<svg width="31" height="30" viewBox="0 0 31 30" fill="none"
    xmlns="http://www.w3.org/2000/svg">
    <path d="M30.0864 15C30.0864 12.0333 29.2067 9.13319 27.5585 6.66645C25.9102 4.19972 23.5676 2.27713 20.8267 1.14181C18.0858 0.00649926 15.0698 -0.290551 12.1601 0.288228C9.25036 0.867006 6.57761 2.29562 4.47982 4.39341C2.38204 6.49119 0.953424 9.16394 0.374645 12.0737C-0.204133 14.9834 0.0929169 17.9994 1.22823 20.7403C2.36355 23.4812 4.28614 25.8238 6.75287 27.4721C9.21961 29.1203 12.1197 30 15.0864 30C19.0647 30 22.88 28.4197 25.693 25.6066C28.5061 22.7936 30.0864 18.9783 30.0864 15V15ZM3.08643 15C3.08643 12.6266 3.79021 10.3066 5.10879 8.33316C6.42737 6.35977 8.30151 4.8217 10.4942 3.91345C12.6869 3.0052 15.0997 2.76756 17.4275 3.23058C19.7553 3.69361 21.8935 4.83649 23.5717 6.51473C25.2499 8.19296 26.3928 10.3312 26.8558 12.6589C27.3189 14.9867 27.0812 17.3995 26.173 19.5922C25.2647 21.7849 23.7267 23.6591 21.7533 24.9776C19.7799 26.2962 17.4598 27 15.0864 27C11.9038 27 8.85158 25.7357 6.60114 23.4853C4.35071 21.2349 3.08643 18.1826 3.08643 15Z" fill="#515151"/>
    <path d="M19.1514 19.935L14.2014 15L19.1514 10.065C19.4338 9.78252 19.5925 9.39943 19.5925 8.99997C19.5925 8.60052 19.4338 8.21743 19.1514 7.93497C18.8689 7.65252 18.4858 7.49384 18.0864 7.49384C17.6869 7.49384 17.3038 7.65252 17.0214 7.93497L11.0214 13.935C10.8808 14.0744 10.7692 14.2403 10.6931 14.4231C10.6169 14.6059 10.5777 14.802 10.5777 15C10.5777 15.198 10.6169 15.394 10.6931 15.5768C10.7692 15.7596 10.8808 15.9255 11.0214 16.065L17.0214 22.065C17.1612 22.2048 17.3273 22.3158 17.51 22.3915C17.6928 22.4672 17.8886 22.5061 18.0864 22.5061C18.2842 22.5061 18.48 22.4672 18.6628 22.3915C18.8455 22.3158 19.0115 22.2048 19.1514 22.065C19.2913 21.9251 19.4022 21.7591 19.4779 21.5763C19.5536 21.3936 19.5925 21.1978 19.5925 21C19.5925 20.8022 19.5536 20.6063 19.4779 20.4236C19.4022 20.2409 19.2913 20.0748 19.1514 19.935V19.935Z" fill="#515151"/>
</svg>
