<svg width="30" height="30" viewBox="0 0 30 30" fill="none"
    xmlns="http://www.w3.org/2000/svg">
    <path d="M0 15C0 17.9667 0.879734 20.8668 2.52796 23.3335C4.17618 25.8003 6.51886 27.7229 9.25975 28.8582C12.0006 29.9935 15.0166 30.2906 17.9264 29.7118C20.8361 29.133 23.5088 27.7044 25.6066 25.6066C27.7044 23.5088 29.133 20.8361 29.7118 17.9263C30.2906 15.0166 29.9935 12.0006 28.8582 9.25974C27.7229 6.51885 25.8003 4.17617 23.3336 2.52795C20.8668 0.879728 17.9667 -8.10623e-06 15 -8.10623e-06C11.0218 -8.10623e-06 7.20644 1.58034 4.3934 4.39339C1.58035 7.20644 0 11.0217 0 15V15ZM27 15C27 17.3734 26.2962 19.6934 24.9776 21.6668C23.6591 23.6402 21.7849 25.1783 19.5922 26.0865C17.3995 26.9948 14.9867 27.2324 12.6589 26.7694C10.3311 26.3064 8.19295 25.1635 6.51472 23.4853C4.83649 21.807 3.6936 19.6688 3.23058 17.3411C2.76755 15.0133 3.00519 12.6005 3.91345 10.4078C4.8217 8.21508 6.35977 6.34093 8.33316 5.02236C10.3065 3.70378 12.6266 2.99999 15 2.99999C18.1826 2.99999 21.2348 4.26427 23.4853 6.51471C25.7357 8.76515 27 11.8174 27 15Z" fill="#515151"/>
    <path d="M10.935 10.065L15.885 15L10.935 19.935C10.6526 20.2174 10.4939 20.6005 10.4939 21C10.4939 21.3994 10.6526 21.7825 10.935 22.065C11.2175 22.3474 11.6006 22.5061 12 22.5061C12.3995 22.5061 12.7826 22.3474 13.065 22.065L19.065 16.065C19.2056 15.9255 19.3172 15.7596 19.3934 15.5768C19.4695 15.394 19.5087 15.198 19.5087 15C19.5087 14.8019 19.4695 14.6059 19.3934 14.4231C19.3172 14.2403 19.2056 14.0744 19.065 13.935L13.065 7.93497C12.9252 7.79511 12.7591 7.68416 12.5764 7.60847C12.3937 7.53278 12.1978 7.49383 12 7.49383C11.8022 7.49383 11.6064 7.53278 11.4237 7.60847C11.2409 7.68416 11.0749 7.79511 10.935 7.93497C10.7952 8.07482 10.6842 8.24086 10.6085 8.42359C10.5329 8.60632 10.4939 8.80218 10.4939 8.99996C10.4939 9.19775 10.5329 9.3936 10.6085 9.57634C10.6842 9.75907 10.7952 9.92511 10.935 10.065V10.065Z" fill="#515151"/>
</svg>
