<svg width="60" height="60" viewBox="0 0 60 60" fill="none"
    xmlns="http://www.w3.org/2000/svg">
    <path d="M47.0625 33.8783V19.9592C47.0609 19.4321 46.9471 18.9114 46.7288 18.4316C46.5104 17.9519 46.1924 17.5241 45.7959 17.1767C45.1275 16.5977 44.2718 16.2806 43.3875 16.2842H12.675C11.7925 16.2798 10.9386 16.5971 10.2731 17.1767C9.87448 17.5227 9.55458 17.95 9.33497 18.43C9.11536 18.91 9.00114 19.4314 9 19.9592V40.0405C9.00159 40.5676 9.11536 41.0883 9.33374 41.5681C9.55211 42.0478 9.8701 42.4756 10.2666 42.823C10.935 43.402 11.7907 43.7191 12.675 43.7155H35.1253C35.7146 45.2746 36.7638 46.6179 38.1339 47.5672C39.5039 48.5165 41.1301 49.027 42.7969 49.0311V46.4061C41.6875 46.4113 40.6017 46.0855 39.6784 45.4705C38.7551 44.8555 38.0361 43.9791 37.6134 42.9533C37.1908 41.9276 37.0835 40.7991 37.3055 39.7121C37.5274 38.6252 38.0684 37.629 38.8594 36.8511C39.3894 36.3241 40.0211 35.9103 40.7161 35.6351C41.411 35.3598 42.1547 35.2287 42.9019 35.2499C44.3908 35.3146 45.7957 35.9577 46.8179 37.0423C47.84 38.1269 48.3986 39.5675 48.375 41.0577V43.453C48.375 43.627 48.3059 43.7939 48.1828 43.917C48.0597 44.0401 47.8928 44.1092 47.7188 44.1092C47.5447 44.1092 47.3778 44.0401 47.2547 43.917C47.1316 43.7939 47.0625 43.627 47.0625 43.453V40.828C47.0653 39.8976 46.7647 38.9917 46.2064 38.2475C45.6481 37.5033 44.8625 36.9614 43.9685 36.7038C43.0746 36.4461 42.121 36.4869 41.2523 36.8199C40.3836 37.1529 39.6471 37.76 39.1543 38.5492C38.6616 39.3383 38.4396 40.2666 38.5218 41.1933C38.604 42.12 38.986 42.9946 39.6099 43.6847C40.2338 44.3749 41.0657 44.8428 41.9795 45.0177C42.8932 45.1926 43.8391 45.0649 44.6738 44.6539C44.957 45.3596 45.4766 45.9449 46.1436 46.31C46.8106 46.675 47.5837 46.7971 48.3308 46.6552C49.0778 46.5134 49.7524 46.1166 50.2393 45.5325C50.7261 44.9484 50.995 44.2133 51 43.453V41.0577C50.9984 39.6268 50.6369 38.2193 49.9489 36.9647C49.2608 35.7101 48.2682 34.6488 47.0625 33.8783ZM41.9175 18.9092L30.1706 28.3658C29.5628 28.8503 28.8085 29.1141 28.0312 29.1141C27.254 29.1141 26.4997 28.8503 25.8919 28.3658L14.145 18.9092H41.9175ZM44.4375 32.802C43.9476 32.6963 43.4488 32.6369 42.9478 32.6249C40.8234 32.583 38.767 33.3745 37.2188 34.8299L33.0122 31.8767L31.5028 34.0292L35.5978 36.897C34.9392 38.1046 34.5961 39.459 34.6003 40.8345C34.6003 40.9264 34.6003 41.0117 34.6003 41.097H14.4797L24.5662 34.0292L23.0634 31.8767L11.625 39.883V20.248L24.2447 30.4067C25.3201 31.265 26.6553 31.7325 28.0312 31.7325C29.4072 31.7325 30.7424 31.265 31.8178 30.4067L44.4375 20.248V32.802ZM42.7969 42.4686C42.4724 42.4686 42.1552 42.3724 41.8854 42.1921C41.6156 42.0118 41.4053 41.7556 41.2811 41.4558C41.157 41.156 41.1245 40.8262 41.1878 40.5079C41.2511 40.1897 41.4073 39.8973 41.6368 39.6679C41.8662 39.4384 42.1586 39.2822 42.4768 39.2189C42.7951 39.1556 43.1249 39.1881 43.4247 39.3122C43.7245 39.4364 43.9807 39.6467 44.161 39.9165C44.3413 40.1863 44.4375 40.5035 44.4375 40.828C44.4375 41.2631 44.2646 41.6804 43.957 41.9881C43.6493 42.2958 43.232 42.4686 42.7969 42.4686Z" fill="#CF2929"/>
</svg>
