<svg width="42" height="34" viewBox="0 0 42 34" fill="none"
    xmlns="http://www.w3.org/2000/svg">
    <path d="M38.0625 17.8783V3.95923C38.0609 3.43211 37.9471 2.91138 37.7288 2.43163C37.5104 1.95187 37.1924 1.5241 36.7959 1.17673C36.1275 0.597677 35.2718 0.280587 34.3875 0.284226H3.675C2.79249 0.279783 1.9386 0.597075 1.27313 1.17673C0.874476 1.52267 0.554577 1.95001 0.334969 2.42998C0.11536 2.90995 0.00114038 3.4314 0 3.95923L0 24.0405C0.00159243 24.5676 0.115358 25.0883 0.333735 25.5681C0.552113 26.0478 0.8701 26.4756 1.26656 26.823C1.93498 27.402 2.79066 27.7191 3.675 27.7155H26.1253C26.7146 29.2746 27.7638 30.6179 29.1339 31.5672C30.5039 32.5165 32.1301 33.027 33.7969 33.0311V30.4061C32.6875 30.4113 31.6017 30.0855 30.6784 29.4705C29.7551 28.8555 29.0361 27.9791 28.6134 26.9533C28.1908 25.9276 28.0835 24.7991 28.3055 23.7121C28.5274 22.6252 29.0684 21.629 29.8594 20.8511C30.3894 20.3241 31.0211 19.9103 31.7161 19.6351C32.411 19.3598 33.1547 19.2287 33.9019 19.2499C35.3908 19.3146 36.7957 19.9577 37.8179 21.0423C38.84 22.1269 39.3986 23.5675 39.375 25.0577V27.453C39.375 27.627 39.3059 27.7939 39.1828 27.917C39.0597 28.0401 38.8928 28.1092 38.7188 28.1092C38.5447 28.1092 38.3778 28.0401 38.2547 27.917C38.1316 27.7939 38.0625 27.627 38.0625 27.453V24.828C38.0653 23.8976 37.7647 22.9917 37.2064 22.2475C36.6481 21.5033 35.8625 20.9614 34.9685 20.7038C34.0746 20.4461 33.121 20.4869 32.2523 20.8199C31.3836 21.1529 30.6471 21.76 30.1543 22.5492C29.6616 23.3383 29.4396 24.2666 29.5218 25.1933C29.604 26.12 29.986 26.9946 30.6099 27.6847C31.2338 28.3749 32.0657 28.8428 32.9795 29.0177C33.8932 29.1926 34.8391 29.0649 35.6738 28.6539C35.957 29.3596 36.4766 29.9449 37.1436 30.31C37.8106 30.675 38.5837 30.7971 39.3308 30.6552C40.0778 30.5134 40.7524 30.1166 41.2393 29.5325C41.7261 28.9484 41.995 28.2133 42 27.453V25.0577C41.9984 23.6268 41.6369 22.2193 40.9489 20.9647C40.2608 19.7101 39.2682 18.6488 38.0625 17.8783ZM32.9175 2.90923L21.1706 12.3658C20.5628 12.8503 19.8085 13.1141 19.0312 13.1141C18.254 13.1141 17.4997 12.8503 16.8919 12.3658L5.145 2.90923H32.9175ZM35.4375 16.802C34.9476 16.6963 34.4488 16.6369 33.9478 16.6249C31.8234 16.583 29.767 17.3745 28.2188 18.8299L24.0122 15.8767L22.5028 18.0292L26.5978 20.897C25.9392 22.1046 25.5961 23.459 25.6003 24.8345C25.6003 24.9264 25.6003 25.0117 25.6003 25.097H5.47969L15.5662 18.0292L14.0634 15.8767L2.625 23.883V4.24798L15.2447 14.4067C16.3201 15.265 17.6553 15.7325 19.0312 15.7325C20.4072 15.7325 21.7424 15.265 22.8178 14.4067L35.4375 4.24798V16.802ZM33.7969 26.4686C33.4724 26.4686 33.1552 26.3724 32.8854 26.1921C32.6156 26.0118 32.4053 25.7556 32.2811 25.4558C32.157 25.156 32.1245 24.8262 32.1878 24.5079C32.2511 24.1897 32.4073 23.8973 32.6368 23.6679C32.8662 23.4384 33.1586 23.2822 33.4768 23.2189C33.7951 23.1556 34.1249 23.1881 34.4247 23.3122C34.7245 23.4364 34.9807 23.6467 35.161 23.9165C35.3413 24.1863 35.4375 24.5035 35.4375 24.828C35.4375 25.2631 35.2646 25.6804 34.957 25.9881C34.6493 26.2958 34.232 26.4686 33.7969 26.4686Z" fill="#CF2929"/>
</svg>
