<svg width="65" height="50" viewBox="0 0 65 50" fill="none" xmlns="http://www.w3.org/2000/svg">
<path d="M58.0273 26.91V5.7C58.0249 4.89678 57.8516 4.10328 57.5188 3.37223C57.186 2.64118 56.7015 1.98933 56.0973 1.46C55.0788 0.57764 53.7749 0.0944549 52.4273 0.1H5.62734C4.28256 0.0932297 2.9814 0.576723 1.96734 1.46C1.35988 1.98715 0.872414 2.63834 0.537772 3.36972C0.203131 4.10111 0.0290815 4.8957 0.0273438 5.7L0.0273438 36.3C0.0297703 37.1032 0.203127 37.8967 0.535893 38.6278C0.868658 39.3588 1.35321 40.0107 1.95734 40.54C2.97588 41.4224 4.27977 41.9055 5.62734 41.9H39.8373C40.7353 44.2758 42.3341 46.3227 44.4218 47.7692C46.5095 49.2158 48.9875 49.9938 51.5273 50V46C49.8368 46.0079 48.1824 45.5115 46.7754 44.5743C45.3684 43.6371 44.2729 42.3017 43.6288 40.7386C42.9847 39.1756 42.8213 37.456 43.1595 35.7997C43.4977 34.1433 44.3221 32.6254 45.5273 31.44C46.335 30.6369 47.2976 30.0065 48.3566 29.587C49.4156 29.1675 50.5488 28.9678 51.6873 29C53.9562 29.0987 56.097 30.0786 57.6546 31.7314C59.2121 33.3841 60.0633 35.5793 60.0273 37.85V41.5C60.0273 41.7652 59.922 42.0196 59.7345 42.2071C59.5469 42.3946 59.2926 42.5 59.0273 42.5C58.7621 42.5 58.5078 42.3946 58.3202 42.2071C58.1327 42.0196 58.0273 41.7652 58.0273 41.5V37.5C58.0316 36.0823 57.5736 34.7019 56.7229 33.5679C55.8721 32.4339 54.675 31.608 53.3127 31.2155C51.9505 30.8229 50.4974 30.8851 49.1737 31.3925C47.8499 31.8999 46.7276 32.825 45.9768 34.0275C45.226 35.23 44.8876 36.6445 45.0129 38.0566C45.1381 39.4688 45.7202 40.8016 46.671 41.8532C47.6218 42.9048 48.8894 43.6178 50.2818 43.8843C51.6742 44.1508 53.1155 43.9562 54.3873 43.33C54.819 44.4053 55.6107 45.2973 56.6271 45.8535C57.6435 46.4098 58.8216 46.5957 59.96 46.3796C61.0983 46.1635 62.1263 45.5588 62.8682 44.6688C63.61 43.7787 64.0198 42.6587 64.0273 41.5V37.85C64.0249 35.6696 63.4741 33.5249 62.4256 31.6131C61.3771 29.7014 59.8646 28.0841 58.0273 26.91ZM50.1873 4.1L32.2873 18.51C31.3612 19.2483 30.2118 19.6503 29.0273 19.6503C27.8429 19.6503 26.6935 19.2483 25.7673 18.51L7.86734 4.1H50.1873ZM54.0273 25.27C53.2809 25.1088 52.5208 25.0184 51.7573 25C48.5201 24.9363 45.3865 26.1423 43.0273 28.36L36.6173 23.86L34.3173 27.14L40.5573 31.51C39.5537 33.3502 39.0309 35.4139 39.0373 37.51C39.0373 37.65 39.0373 37.78 39.0373 37.91H8.37734L23.7473 27.14L21.4573 23.86L4.02734 36.06V6.14L23.2573 21.62C24.8961 22.9279 26.9306 23.6402 29.0273 23.6402C31.1241 23.6402 33.1586 22.9279 34.7973 21.62L54.0273 6.14V25.27ZM51.5273 40C51.0329 40 50.5495 39.8534 50.1384 39.5787C49.7273 39.304 49.4069 38.9135 49.2176 38.4567C49.0284 37.9999 48.9789 37.4972 49.0754 37.0123C49.1718 36.5273 49.4099 36.0819 49.7596 35.7322C50.1092 35.3826 50.5547 35.1445 51.0396 35.048C51.5246 34.9516 52.0272 35.0011 52.4841 35.1903C52.9409 35.3795 53.3313 35.7 53.606 36.1111C53.8807 36.5222 54.0273 37.0055 54.0273 37.5C54.0273 38.163 53.764 38.7989 53.2951 39.2678C52.8263 39.7366 52.1904 40 51.5273 40Z" fill="#CF2929"/>
</svg>
