<svg width="216" height="64" viewBox="0 0 216 64" fill="none"
    xmlns="http://www.w3.org/2000/svg">
    <path fill-rule="evenodd" clip-rule="evenodd" d="M85.6552 17.9856L85.7276 17.9844V9.07067L85.6552 9.07187V17.9856ZM130.369 26.2712L130.269 26.2324V46.3369L130.369 46.3365V26.2712ZM151.967 26.4721L151.867 26.4315V46.5374L151.967 46.537V26.4721ZM86.0583 13.5071C86.0583 14.8386 86.0655 16.1701 86.0542 17.5016C86.0505 17.934 86.0388 18.2621 86.6566 18.2623C87.2412 18.2627 87.2855 17.9979 87.2828 17.5354C87.2684 14.8724 87.2729 12.2094 87.2787 9.54639C87.2797 9.12637 87.3205 8.77714 86.6885 8.78415C86.1124 8.79054 86.0431 9.03996 86.0509 9.51281C86.0727 10.8439 86.0585 12.1756 86.0583 13.5071L86.0583 13.5071ZM91.8109 8.80707C90.9444 8.80707 90.0775 8.82247 89.2118 8.80048C88.7787 8.78948 88.5463 8.85888 88.5485 9.38653C88.5506 9.94878 88.8557 9.95237 89.2513 9.93958C89.6175 9.92778 89.9905 9.98017 90.3496 9.92817C91.0691 9.82395 91.2283 10.1192 91.2137 10.803C91.1686 12.9348 91.1785 15.0686 91.2145 17.2007C91.2211 17.5836 90.829 18.2392 91.7673 18.2598C92.6733 18.2798 92.3857 17.6696 92.3911 17.2445C92.4129 15.5452 92.3937 13.8455 92.4034 12.146C92.4071 11.4521 92.2063 10.597 92.5351 10.11C92.8661 9.62014 93.7723 9.96098 94.4224 9.95338C94.9196 9.94778 95.0278 9.76938 95.0365 9.31054C95.0462 8.8019 94.7756 8.79809 94.4103 8.80309C93.5437 8.81529 92.6774 8.80709 91.8109 8.80709V8.80707ZM78.0603 14.0701C78.0603 15.2 78.0734 16.33 78.0541 17.4595C78.0459 17.941 78.0592 18.2694 78.7145 18.263C79.3714 18.2566 79.2753 17.8722 79.2751 17.4785C79.2742 15.6508 79.2747 13.823 79.2747 11.9953C79.2747 10.0174 79.2747 10.0174 81.2519 9.93814C81.285 9.93674 81.3187 9.93395 81.3515 9.93796C81.7685 9.98936 81.9503 9.83475 81.9491 9.38651C81.9479 8.96908 81.8374 8.79426 81.3881 8.79907C79.5937 8.81867 77.7988 8.81587 76.0044 8.80046C75.5868 8.79686 75.4132 8.91308 75.4181 9.36251C75.4229 9.79174 75.5584 9.96656 75.9925 9.94236C76.4231 9.91856 76.8598 9.97375 77.2873 9.92955C77.878 9.86874 78.1084 10.0372 78.0759 10.6812C78.0191 11.8083 78.0601 12.9402 78.0603 14.0701ZM68.8715 13.509C68.8715 14.8393 68.893 16.1702 68.861 17.4999C68.8481 18.0394 68.9686 18.2724 69.57 18.2544C70.9656 18.2124 72.3635 18.2292 73.7604 18.2484C74.1908 18.2544 74.4162 18.1996 74.4201 17.6701C74.424 17.1209 74.2317 16.9809 73.7268 17.0201C73.231 17.0587 72.7297 17.0285 72.2308 17.0285C69.8923 17.0285 69.9104 17.0295 70.0507 14.6777C70.0806 14.1783 70.2583 14.0601 70.7091 14.0755C71.4731 14.1013 72.2411 14.1177 73.0027 14.0665C73.3744 14.0415 73.985 14.4057 74.0126 13.5528C74.0397 12.7062 73.4446 13.0068 73.0529 12.9834C72.4561 12.9476 71.8488 12.9152 71.259 12.9874C70.3322 13.1008 69.9886 12.842 70.038 11.8293C70.1303 9.94155 70.0633 9.93796 71.2094 9.93715C72.0742 9.93674 72.9401 9.91136 73.8034 9.94696C74.3024 9.96775 74.4072 9.77093 74.4154 9.3115C74.4249 8.80266 74.1553 8.80107 73.7914 8.80346C72.3945 8.81246 70.9971 8.83008 69.601 8.79586C69.0445 8.78206 68.8423 8.93766 68.8592 9.51832C68.8978 10.8476 68.8715 12.1787 68.8715 13.509H68.8715ZM65.1093 13.2078C64.5426 13.2078 63.976 13.2148 63.4096 13.2051C63.0293 13.1989 62.7022 13.159 62.719 13.7408C62.7338 14.2398 62.9169 14.3798 63.3745 14.3512C63.8061 14.3242 64.2435 14.3154 64.6732 14.3538C65.1495 14.3964 65.8841 14.0872 66.0458 14.5236C66.2606 15.1039 65.8265 15.7291 65.3801 16.2064C65.2225 16.375 65.0415 16.5284 64.8503 16.6582C63.3603 17.6695 61.2425 17.4018 60.0261 16.0559C58.7276 14.6194 58.7321 12.4187 60.0362 10.9496C61.2888 9.53846 63.2767 9.25683 64.8084 10.3691C65.3132 10.7357 65.5936 10.7238 65.9135 10.2485C66.3081 9.66288 65.6852 9.54786 65.4315 9.38265C63.8857 8.37538 62.2208 8.28417 60.5805 9.07124C58.8422 9.9055 57.9649 11.3896 57.8491 13.3014C57.6895 15.9374 59.5807 18.1391 62.1792 18.3812C64.9357 18.638 67.0403 17.0827 67.3618 14.5507C67.5326 13.2082 67.5326 13.2082 66.2092 13.2076C65.8426 13.2074 65.476 13.2076 65.1094 13.2078H65.1093ZM103.37 8.58679C100.673 8.58498 98.52 10.7372 98.4795 13.4748C98.4392 16.1784 100.6 18.3811 103.315 18.4039C106.071 18.4271 108.203 16.3326 108.225 13.5804C108.247 10.7653 106.131 8.58857 103.37 8.58677L103.37 8.58679ZM110.862 10.8339L111.039 10.7727C111.266 11.1317 111.496 11.4888 111.719 11.85C112.946 13.8299 114.193 15.7977 115.382 17.8C115.733 18.3901 116.219 18.2231 116.688 18.2283C117.036 18.2321 116.973 17.9254 116.973 17.7048C116.976 14.9062 116.966 12.1076 116.983 9.30919C116.986 8.80335 116.712 8.81234 116.349 8.79935C115.937 8.78435 115.741 8.89015 115.756 9.349C115.784 10.2476 115.763 11.1477 115.763 12.0474C115.763 13.3483 115.763 14.6494 115.763 16.1525C115.484 15.7109 115.325 15.4635 115.17 15.2135C113.961 13.2617 112.719 11.329 111.562 9.3468C111.148 8.63655 110.561 8.76637 110.008 8.83237C109.386 8.90659 109.689 9.47802 109.685 9.81065C109.657 12.3756 109.675 14.941 109.665 17.5064C109.663 17.9499 109.67 18.2535 110.277 18.2599C110.907 18.2665 110.867 17.9257 110.865 17.5058C110.858 15.2819 110.862 13.0579 110.862 10.8339H110.862ZM171.994 36.6044C171.994 33.842 171.994 31.0796 171.994 28.3172C171.994 26.1734 171.993 26.2108 169.831 26.163C169.048 26.1458 168.843 26.3574 168.848 27.1435C168.883 32.9343 168.867 38.7256 168.867 44.5166C168.867 46.8352 168.867 46.8058 171.202 46.8216C171.873 46.826 172.015 46.624 172.009 45.9897C171.976 42.8617 171.994 39.7329 171.994 36.6044ZM129.933 36.4114C129.933 33.6501 129.933 30.8886 129.933 28.1272C129.933 25.9131 129.932 25.9529 127.692 25.9113C126.91 25.8969 126.775 26.1489 126.779 26.8659C126.808 32.7212 126.795 38.5768 126.795 44.4325C126.795 46.777 126.795 46.7476 129.13 46.7482C129.812 46.7484 129.953 46.5304 129.947 45.8932C129.916 42.7329 129.933 39.5721 129.933 36.4114ZM138.084 32.9778C137.899 33 137.429 33.0172 136.977 33.117C134.168 33.7372 132.179 35.9514 131.775 38.8796C131.34 42.0365 132.659 44.8385 135.241 46.2478C137.856 47.6741 141.091 47.3331 143.365 45.3911C144.837 44.1332 144.837 44.1334 143.271 43.1251C143.131 43.0349 142.982 42.9551 142.857 42.8475C142.4 42.4549 142.118 42.5071 141.681 43.0018C140.086 44.8065 137.232 44.7379 135.781 42.9669C135.294 42.3725 135.318 42.1057 136.087 41.8021C138.747 40.752 141.379 39.6317 144.019 38.5296C144.327 38.4012 144.719 38.386 144.56 37.798C143.836 35.1074 141.122 32.9666 138.084 32.9778L138.084 32.9778ZM95.1319 40.1185C95.1525 44.0948 98.3065 47.1811 102.299 47.1321C106.278 47.0833 109.351 44.0204 109.36 40.0951C109.368 36.0806 106.206 32.9472 102.176 32.977C98.1874 33.0064 95.1114 36.1252 95.1319 40.1185V40.1185ZM86.706 32.975C82.717 32.9822 79.6089 36.0866 79.6035 40.0695C79.598 44.0368 82.7343 47.1445 86.7319 47.133C90.7464 47.1215 93.8424 44.0272 93.8249 40.0441C93.8076 36.0544 90.6993 32.9678 86.706 32.975V32.975ZM191.439 53.2014C192.386 53.2014 193.157 53.1412 193.913 53.218C194.699 53.2979 195.071 53.0102 195.383 52.2854C198.037 46.1193 200.736 39.9726 203.415 33.8174C203.541 33.5265 203.782 33.2587 203.678 32.8125C203.091 32.8125 202.496 32.8161 201.901 32.8117C200.156 32.7987 200.161 32.7993 199.524 34.3964C198.509 36.9408 197.488 39.4824 196.398 42.203C196.206 41.7864 196.097 41.5598 195.997 41.3289C194.861 38.7061 193.728 36.0823 192.592 33.4597C192.451 33.1349 192.381 32.7799 191.865 32.8015C190.883 32.8427 189.898 32.8135 188.788 32.8135C188.964 33.2327 189.059 33.4725 189.163 33.7083C190.87 37.5698 192.558 41.4397 194.304 45.2834C194.627 45.9927 194.609 46.5371 194.263 47.2254C193.298 49.1495 192.417 51.1163 191.439 53.2014L191.439 53.2014ZM184.366 44.9188C184.582 46.8045 184.582 46.8045 186.484 46.8027C186.617 46.8027 186.753 46.7863 186.883 46.8055C187.447 46.8883 187.611 46.6583 187.604 46.0925C187.574 43.4967 187.616 40.8997 187.579 38.3039C187.537 35.4051 186.187 33.4175 183.708 32.4848C180.941 31.4439 177.72 32.072 175.933 34.0007C174.844 35.1746 174.849 35.1982 176.255 35.8569C176.466 35.9555 176.686 36.0393 176.882 36.1627C177.423 36.5039 177.778 36.4843 178.277 35.9341C179.533 34.5494 182.084 34.5498 183.443 35.8445C184.016 36.3911 184.448 37.0288 184.31 37.8992C181.786 37.0388 179.334 36.9966 176.994 38.2283C173.976 39.817 173.68 43.8945 176.374 45.9911C178.96 48.0026 182.007 47.626 184.366 44.9188V44.9188ZM121.385 45.559C121.385 46.2471 121.444 46.8153 121.374 47.367C121.189 48.8127 120.587 50.0017 119.064 50.429C117.479 50.8736 115.849 50.7832 114.926 49.3243C114.178 48.1414 113.525 48.2876 112.591 48.8035C112.417 48.8993 112.227 48.9737 112.036 49.0267C111.511 49.1713 111.487 49.4249 111.724 49.891C112.996 52.3863 115.661 53.7186 118.782 53.3782C121.52 53.0792 123.506 51.2737 124.145 48.4794C124.354 47.5668 124.401 46.6357 124.399 45.6996C124.392 42.2016 124.396 38.7037 124.396 35.2056C124.396 33.4371 124.396 33.4333 122.628 33.4395C121.976 33.4419 121.104 33.1525 121.428 34.4716C118.412 32.2124 114.959 32.6174 112.603 35.3908C110.156 38.2724 110.345 42.528 113.036 45.1758C115.465 47.5644 118.935 47.7652 121.385 45.559H121.385ZM73.1632 35.1413C72.1969 35.1413 71.2305 35.1413 70.264 35.1413C68.032 35.1413 68.0645 35.1415 68.0548 37.3861C68.0519 38.0821 68.2935 38.2067 68.9152 38.1947C70.7808 38.1587 72.6479 38.2028 74.5135 38.1698C75.1173 38.159 75.2227 38.308 75.0871 38.8988C74.7879 40.2035 74.2471 41.3578 73.2542 42.2627C71.5003 43.8608 69.3744 44.2258 67.1062 44.0122C64.0236 43.7218 61.3351 41.4412 60.4778 38.4328C59.5674 35.2369 60.6621 31.7821 63.2092 29.8141C65.6874 27.8991 69.2179 27.6461 71.869 29.1355C72.4541 29.4641 72.9178 30.3229 73.5729 30.1003C74.1681 29.8983 74.5518 29.1332 75.0914 28.6934C75.6405 28.2464 75.4444 27.9994 74.9984 27.6541C71.5067 24.9529 67.6722 24.3051 63.6432 26.1044C59.4676 27.9692 57.0537 31.2854 56.9278 35.9212C56.8091 40.3053 58.8722 43.6381 62.6934 45.7103C66.5315 47.7921 70.4868 47.7331 74.1658 45.3213C77.5401 43.1095 78.58 39.7381 78.2391 35.8356C78.1894 35.2655 78.005 35.1173 77.4621 35.1301C76.03 35.1637 74.5962 35.1415 73.1632 35.1413H73.1632ZM152.382 26.4065C152.383 26.4723 152.384 26.5379 152.384 26.6037C152.367 26.9681 152.334 27.3323 152.333 27.6968C152.33 33.2928 152.331 38.889 152.331 44.485C152.331 46.9412 152.33 46.9256 154.824 46.8164C155.301 46.7956 155.447 46.6704 155.437 46.1924C155.408 44.8272 155.418 43.4611 155.429 42.0954C155.439 41.0364 155.067 39.6083 155.604 39.016C156.221 38.3364 157.671 38.823 158.757 38.8176C160.137 38.8106 161.486 38.7078 162.747 38.0945C165.337 36.8346 166.591 34.104 165.998 31.0392C165.476 28.343 163.092 26.3172 160.14 26.2128C157.711 26.127 155.277 26.1862 152.846 26.1874C152.669 26.1874 152.428 26.1056 152.382 26.4064L152.382 26.4065ZM22.1993 51.9814C22.7046 51.7908 23.1819 51.5488 23.6061 51.2103C24.2544 50.9663 24.8502 50.6259 25.4135 50.2257C25.9336 50.0658 26.3864 49.7814 26.8219 49.465C27.3848 49.2428 27.9251 48.9794 28.4036 48.6027C28.9367 48.3191 29.4698 48.0357 30.0028 47.7523C30.5544 47.4456 31.1056 47.139 31.6571 46.8324C32.2091 46.6274 32.7311 46.3668 33.1958 46.0007C33.417 45.8781 33.6378 45.7557 33.8585 45.6333C33.9225 45.6409 33.9733 45.6187 34.0114 45.5665L34.2568 45.4193C34.5514 45.3603 34.8053 45.2255 35.0148 45.0091C35.397 44.9116 35.7225 44.7092 36.0247 44.4636C36.457 44.3086 36.868 44.115 37.2184 43.811C38.1234 43.4037 39.0089 42.9607 39.8232 42.3878C42.1523 41.1283 44.508 39.9145 46.8007 38.5925C48.2085 37.7809 48.2112 36.5416 46.8042 35.7371C44.5063 34.4234 42.1441 33.2219 39.8092 31.9734C38.883 31.3422 37.8946 30.8241 36.8725 30.3679C36.5681 30.0987 36.2226 29.9043 35.8303 29.7957L35.6108 29.6593C35.5719 29.5947 35.5155 29.5703 35.4418 29.5865C35.1349 29.3152 34.7835 29.125 34.3912 29.0088C33.9264 28.651 33.4154 28.3781 32.8642 28.1787C32.5568 27.9069 32.204 27.7181 31.8106 27.6029C31.6014 27.3787 31.3393 27.2519 31.0441 27.1859C30.7383 26.9129 30.3851 26.7262 29.994 26.6088C29.6566 26.322 29.2749 26.117 28.8515 25.9886L28.6098 25.843C28.5777 25.7834 28.5285 25.7608 28.4625 25.7752C28.0251 25.4401 27.5531 25.1691 27.0289 24.9939C26.8211 24.7753 26.5646 24.6461 26.2728 24.5817L26.0076 24.427C25.9813 24.3709 25.9379 24.3496 25.8774 24.3632C25.4474 24.022 24.9699 23.7684 24.4525 23.5884L24.2095 23.4418C24.1782 23.3848 24.1309 23.363 24.0675 23.3764C23.504 22.9677 22.9018 22.6295 22.2492 22.3843C21.7728 22.1031 21.309 21.7971 20.8167 21.5472C20.2491 21.2592 19.6957 20.8256 18.9922 21.1758C18.2864 21.2906 17.958 21.7584 17.8323 22.4157C17.6636 22.8965 17.6704 23.3964 17.67 23.8958C17.6591 32.7479 17.6463 41.6 17.6408 50.452C17.6404 50.8431 17.5439 51.2533 17.7749 51.6209C17.7591 51.6883 17.7747 51.7475 17.8214 51.7983C17.9064 52.4266 18.1967 52.8896 18.8414 53.067C20.2281 53.5321 21.142 52.5352 22.1993 51.9814L22.1993 51.9814ZM108.003 63.9997C75.9099 63.9997 43.817 64.0009 11.7241 63.9985C6.48138 63.9981 2.37922 61.2723 0.682727 56.6685C0.206252 55.3756 0.00360114 54.0315 0.00380339 52.6532C0.00606181 38.8908 -0.0105898 25.1283 0.0120281 11.3659C0.0229325 4.88879 4.83118 0.0944278 11.3141 0.0100111C11.4807 0.00782024 11.6474 0.00940442 11.814 0.00940442C75.9331 0.00940442 140.052 0.0138199 204.171 4.46007e-07C208.631 -0.00101073 212.102 1.71734 214.456 5.54283C215.454 7.16456 215.97 8.9591 215.972 10.856C215.99 24.9517 216.031 39.0476 215.958 53.1429C215.928 59.0297 211.153 63.7467 205.281 63.9797C204.815 63.9981 204.348 63.9989 203.881 63.9989C171.922 63.9997 139.962 63.9997 108.003 63.9997Z" fill="black"/>
    <path fill-rule="evenodd" clip-rule="evenodd" d="M73.1633 35.1377C74.5956 35.138 76.0287 35.1601 77.4601 35.1265C78.0028 35.1137 78.1871 35.262 78.2368 35.8321C78.5776 39.735 77.5381 43.1068 74.1654 45.3188C70.4881 47.7308 66.5347 47.7898 62.6983 45.7078C58.8789 43.6354 56.8168 40.3023 56.9354 35.9177C57.0613 31.2814 59.474 27.9649 63.6477 26.0999C67.6747 24.3004 71.5075 24.9483 74.9976 27.6498C75.4434 27.9951 75.6394 28.2421 75.0905 28.6892C74.5511 29.129 74.1676 29.8942 73.5727 30.0962C72.918 30.3189 72.4544 29.4599 71.8696 29.1312C69.2197 27.6418 65.691 27.8948 63.2138 29.81C60.668 31.7781 59.5738 35.2333 60.4837 38.4295C61.3406 41.4382 64.0279 43.719 67.109 44.0095C69.3762 44.2231 71.5011 43.8581 73.2542 42.2598C74.2466 41.3548 74.7872 40.2004 75.0862 38.8956C75.2217 38.3047 75.1164 38.1557 74.5129 38.1665C72.6482 38.1995 70.782 38.1555 68.9172 38.1915C68.2958 38.2035 68.0543 38.0788 68.0572 37.3827C68.0669 35.1379 68.0344 35.1377 70.2654 35.1377C71.2315 35.1377 72.1974 35.1377 73.1633 35.1377L73.1633 35.1377Z" fill="#FEFEFE"/>
    <path fill-rule="evenodd" clip-rule="evenodd" d="M121.66 40.0984C121.675 37.5638 120.154 35.7949 117.948 35.7823C115.688 35.7695 114.025 37.5622 114.005 40.032C113.985 42.4526 115.702 44.3341 117.921 44.3221C120.054 44.3105 121.645 42.5132 121.66 40.0984ZM121.384 45.5584C118.934 47.7645 115.463 47.5637 113.035 45.1751C110.344 42.5273 110.155 38.2718 112.602 35.3902C114.958 32.6168 118.411 32.2118 121.427 34.4709C121.103 33.1518 121.975 33.4412 122.627 33.4388C124.395 33.4326 124.395 33.4364 124.395 35.205C124.395 38.703 124.391 42.2009 124.398 45.699C124.4 46.635 124.353 47.5661 124.144 48.4788C123.506 51.273 121.52 53.0785 118.78 53.3775C115.66 53.718 112.995 52.3856 111.723 49.8903C111.485 49.4242 111.511 49.1706 112.034 49.026C112.226 48.973 112.416 48.8986 112.589 48.8028C113.524 48.2869 114.178 48.1407 114.925 49.3236C115.848 50.7825 117.477 50.8729 119.063 50.4283C120.586 50.0011 121.187 48.812 121.373 47.3663C121.443 46.8146 121.384 46.2464 121.384 45.5583V45.5584Z" fill="#FEFEFE"/>
    <path fill-rule="evenodd" clip-rule="evenodd" d="M155.427 32.4925C155.427 33.3916 155.442 34.2913 155.421 35.1899C155.41 35.599 155.51 35.798 155.97 35.7888C157.268 35.7626 158.57 35.833 159.865 35.7548C161.659 35.6466 162.988 34.1707 162.951 32.4515C162.914 30.745 161.506 29.2887 159.759 29.2201C158.528 29.1719 157.294 29.2355 156.063 29.1935C155.499 29.1743 155.399 29.4039 155.418 29.8953C155.451 30.7598 155.427 31.6267 155.427 32.4925L155.427 32.4925ZM152.381 26.4075C152.427 26.1067 152.668 26.1885 152.845 26.1885C155.277 26.1873 157.71 26.1281 160.139 26.2139C163.092 26.3183 165.476 28.3441 165.998 31.0403C166.591 34.1051 165.336 36.8357 162.746 38.0956C161.485 38.7089 160.137 38.8117 158.756 38.8187C157.671 38.8241 156.221 38.3374 155.604 39.0171C155.066 39.6093 155.438 41.0375 155.429 42.0965C155.417 43.4622 155.407 44.8283 155.437 46.1934C155.447 46.6715 155.301 46.7967 154.823 46.8175C152.33 46.9267 152.331 46.9423 152.331 44.4861C152.331 38.8901 152.33 33.2939 152.333 27.6978C152.333 27.3334 152.366 26.9692 152.384 26.6047C152.744 26.928 152.586 27.3562 152.587 27.736C152.597 33.5333 152.592 39.3307 152.599 45.128C152.6 45.4842 152.505 45.8558 152.694 46.2248C152.883 45.8562 152.789 45.4846 152.789 45.1285C152.796 39.3313 152.817 33.5337 152.771 27.7368C152.764 26.7853 153.064 26.5577 153.958 26.5879C155.823 26.6505 157.692 26.6069 159.559 26.6069L159.557 26.4075H152.381Z" fill="#FEFEFE"/>
    <path fill-rule="evenodd" clip-rule="evenodd" d="M181.539 39.9427C180.301 39.9317 179.348 40.174 178.692 40.6758C178.059 41.159 177.749 41.7975 177.875 42.5917C177.999 43.379 178.563 43.774 179.272 43.9924C181.255 44.6029 183.738 43.2796 184.356 41.3198C184.501 40.86 184.329 40.6388 183.957 40.4528C183.194 40.0717 182.381 39.9423 181.539 39.9427H181.539ZM184.367 44.9194C182.007 47.6266 178.96 48.0033 176.375 45.9917C173.68 43.8952 173.977 39.8176 176.994 38.2289C179.334 36.9972 181.787 37.0394 184.311 37.8999C184.448 37.0294 184.016 36.3918 183.443 35.8451C182.085 34.5504 179.533 34.5501 178.278 35.9347C177.778 36.485 177.424 36.5046 176.883 36.1634C176.687 36.04 176.466 35.9561 176.255 35.8575C174.849 35.1989 174.845 35.1753 175.933 34.0014C177.721 32.0727 180.942 31.4446 183.709 32.4855C186.188 33.4182 187.538 35.4057 187.58 38.3046C187.617 40.9003 187.574 43.4973 187.605 46.0931C187.611 46.659 187.448 46.889 186.884 46.8062C186.753 46.787 186.618 46.8034 186.485 46.8034C184.583 46.8052 184.583 46.8052 184.367 44.9195V44.9194Z" fill="#FEFEFE"/>
    <path fill-rule="evenodd" clip-rule="evenodd" d="M191.432 53.2093C192.41 51.1237 193.29 49.1565 194.256 47.2319C194.601 46.5435 194.619 45.9989 194.297 45.2895C192.55 41.445 190.863 37.5742 189.155 33.7118C189.051 33.4759 188.956 33.2361 188.781 32.8168C189.89 32.8168 190.875 32.846 191.857 32.8047C192.373 32.7831 192.443 33.1383 192.584 33.4632C193.72 36.0863 194.853 38.7107 195.989 41.3341C196.089 41.565 196.199 41.7916 196.391 42.2084C197.48 39.4872 198.501 36.945 199.516 34.4C200.153 32.8026 200.149 32.802 201.894 32.815C202.488 32.8194 203.083 32.8158 203.671 32.8158C203.774 33.2621 203.534 33.53 203.407 33.8209C200.728 39.9775 198.029 46.1256 195.375 52.293C195.063 53.018 194.691 53.3057 193.906 53.2259C193.149 53.1491 192.379 53.2093 191.432 53.2093L191.432 53.2093Z" fill="#FEFEFE"/>
    <path fill-rule="evenodd" clip-rule="evenodd" d="M82.7429 40.0168C82.6989 42.3606 84.4677 44.2958 86.6799 44.3242C88.8256 44.3518 90.6769 42.462 90.7257 40.1948C90.7796 37.6861 89.1295 35.8195 86.8272 35.7849C84.5023 35.7499 82.7898 37.5243 82.7429 40.0168ZM86.705 32.9771C90.6983 32.9699 93.8066 36.0565 93.8239 40.0462C93.8414 44.0293 90.7456 47.1235 86.7309 47.1351C82.7333 47.1465 79.597 44.0389 79.6025 40.0716C79.6079 36.0887 82.716 32.9843 86.705 32.9771Z" fill="#FEFEFE"/>
    <path fill-rule="evenodd" clip-rule="evenodd" d="M106.219 40.1066C106.218 37.5414 104.611 35.7864 102.259 35.7822C99.9837 35.7785 98.2439 37.6414 98.2258 40.1014C98.2087 42.3839 100.105 44.3551 102.285 44.3209C104.458 44.2867 106.22 42.3994 106.219 40.1066ZM95.1324 40.1183C95.1118 36.125 98.1879 33.0062 102.176 32.9768C106.207 32.947 109.369 36.0804 109.36 40.0949C109.352 44.0202 106.279 47.0831 102.3 47.1319C98.307 47.1809 95.153 44.0946 95.1324 40.1183V40.1183Z" fill="#FEFEFE"/>
    <path fill-rule="evenodd" clip-rule="evenodd" d="M18.8479 53.0617C18.2027 52.8843 17.9124 52.4214 17.8275 51.7934C18.1317 51.4891 18.0035 51.1025 18.0046 50.7522C18.0138 47.0356 18.0103 43.3189 18.0105 39.6023C18.2666 39.4873 18.4637 39.3438 18.8132 39.3519C21.307 39.4104 23.8024 39.3933 26.2975 39.4029C28.2985 39.4106 30.2995 39.4218 32.3004 39.4313L32.2245 39.6405C31.8577 40.014 31.491 40.3875 31.1244 40.7611C30.6754 41.2146 30.2265 41.6679 29.7775 42.1214C29.2437 42.6602 28.7099 43.1993 28.1763 43.7382C27.5782 44.3427 26.9802 44.9469 26.382 45.5514C25.8579 45.9611 25.3965 46.4332 24.9864 46.9563C24.3981 47.4366 23.8633 47.9697 23.3924 48.5663C22.8008 49.0402 22.2714 49.5755 21.8015 50.1699C21.7318 50.2437 21.6619 50.3175 21.5919 50.3915L21.595 50.3835C20.6792 51.2763 19.7637 52.1689 18.8479 53.0617Z" fill="#66FED3"/>
    <path fill-rule="evenodd" clip-rule="evenodd" d="M134.754 39.8215C136.619 39.0556 138.394 38.3328 140.162 37.5941C140.46 37.4695 140.957 37.4501 140.984 37.1257C141.018 36.7235 140.596 36.454 140.262 36.24C139.114 35.5028 137.924 35.517 136.772 36.1966C135.446 36.9783 134.743 38.1432 134.754 39.8215V39.8215ZM138.085 32.9781C141.122 32.9669 143.837 35.1076 144.561 37.7982C144.72 38.3863 144.328 38.4015 144.02 38.5299C141.38 39.632 138.748 40.7523 136.088 41.8024C135.318 42.106 135.295 42.3728 135.782 42.9672C137.233 44.7382 140.087 44.8068 141.681 43.002C142.119 42.5074 142.401 42.4552 142.857 42.8478C142.982 42.9554 143.132 43.0352 143.272 43.1254C144.838 44.1337 144.838 44.1335 143.366 45.3914C141.092 47.3334 137.857 47.6744 135.242 46.2481C132.659 44.8388 131.341 42.0368 131.776 38.8799C132.18 35.9517 134.169 33.7375 136.978 33.1173C137.43 33.0175 137.9 33.0002 138.085 32.978V32.9781Z" fill="#FEFEFE"/>
    <path fill-rule="evenodd" clip-rule="evenodd" d="M39.8023 31.9747C42.137 33.2234 44.4988 34.4248 46.7962 35.7384C48.203 36.5428 48.2003 37.7821 46.7927 38.5937C44.5004 39.9155 42.1452 41.1293 39.8165 42.3888C39.0731 41.5296 38.2814 40.7187 37.4076 39.9909L37.4111 39.9991L37.2033 39.7783C36.9345 39.3845 36.5994 39.0563 36.21 38.7827C35.8054 38.2533 35.3288 37.7969 34.8039 37.3889C34.7446 37.3221 34.685 37.2553 34.6253 37.1884C34.622 37.129 34.6241 37.0694 34.6321 37.0102C34.7574 36.8868 34.8827 36.7632 35.0081 36.6398C35.0758 36.5642 35.1437 36.4886 35.2116 36.413L35.2054 36.4198L35.4113 36.2132L35.415 36.2182C35.9572 35.8334 36.4032 35.3512 36.8158 34.8348C37.8112 33.8814 38.8068 32.9282 39.8023 31.9747V31.9747Z" fill="#FEC366"/>
    <path fill-rule="evenodd" clip-rule="evenodd" d="M129.939 36.4123C129.939 39.5715 129.921 42.7309 129.952 45.8896C129.959 46.5266 129.818 46.7445 129.136 46.7443C126.802 46.7437 126.802 46.7731 126.802 44.4296C126.802 38.5767 126.814 32.7237 126.785 26.8712C126.781 26.1544 126.916 25.9026 127.698 25.9169C129.938 25.9585 129.938 25.9187 129.938 28.1319C129.938 30.892 129.938 33.6522 129.938 36.4123L129.939 36.4123Z" fill="#FDFDFD"/>
    <path fill-rule="evenodd" clip-rule="evenodd" d="M171.993 36.608C171.993 39.7361 171.975 42.8646 172.007 45.9924C172.014 46.6265 171.872 46.8285 171.202 46.8241C168.873 46.8083 168.872 46.8377 168.872 44.5194C168.872 38.7289 168.889 32.9383 168.854 27.1481C168.849 26.3621 169.053 26.1505 169.835 26.1677C171.992 26.2155 171.993 26.1781 171.993 28.3217C171.993 31.0838 171.993 33.8459 171.993 36.608Z" fill="#FDFDFD"/>
    <path fill-rule="evenodd" clip-rule="evenodd" d="M110.861 10.833C110.861 13.0594 110.857 15.2858 110.864 17.5122C110.865 17.9324 110.906 18.2736 110.275 18.267C109.668 18.2606 109.661 17.9567 109.662 17.5127C109.673 14.9446 109.655 12.3764 109.683 9.80866C109.686 9.47567 109.384 8.90361 110.006 8.82932C110.56 8.76325 111.146 8.6333 111.561 9.34432C112.718 11.3286 113.961 13.2635 115.17 15.2173C115.326 15.4676 115.485 15.7153 115.764 16.1574C115.764 14.6527 115.764 13.3501 115.764 12.0478C115.764 11.1472 115.785 10.2461 115.757 9.34651C115.743 8.88717 115.938 8.78126 116.35 8.79627C116.714 8.80928 116.988 8.80027 116.985 9.30666C116.967 12.1081 116.978 14.9097 116.975 17.7114C116.974 17.9322 117.038 18.2392 116.689 18.2354C116.22 18.2302 115.733 18.3974 115.383 17.8067C114.193 15.8022 112.946 13.8323 111.718 11.8502C111.495 11.4886 111.264 11.1312 111.037 10.7718L110.861 10.833Z" fill="#FCFCFC"/>
    <path fill-rule="evenodd" clip-rule="evenodd" d="M107.016 13.5495C107.027 11.4424 105.39 9.69966 103.383 9.68065C101.392 9.66185 99.7652 11.4056 99.7747 13.5483C99.7842 15.6719 101.342 17.2768 103.382 17.2648C105.423 17.2528 107.006 15.6347 107.016 13.5495H107.016ZM103.371 8.5874C106.132 8.58921 108.248 10.766 108.225 13.581C108.204 16.3332 106.072 18.4277 103.316 18.4046C100.601 18.3818 98.4397 16.179 98.48 13.4754C98.5206 10.7378 100.674 8.58562 103.371 8.58742L103.371 8.5874Z" fill="#FCFCFC"/>
    <path fill-rule="evenodd" clip-rule="evenodd" d="M65.1028 13.2084C65.4692 13.2084 65.8356 13.2082 66.202 13.2084C67.5246 13.209 67.5246 13.209 67.354 14.552C67.0326 17.0851 64.9293 18.6411 62.1742 18.3842C59.5774 18.1421 57.6871 15.9393 57.8469 13.3022C57.9627 11.3897 58.8393 9.90493 60.5767 9.07032C62.216 8.28292 63.8799 8.37416 65.4248 9.38186C65.6783 9.54714 66.3007 9.66221 65.9065 10.2481C65.5868 10.7235 65.3064 10.7355 64.802 10.3687C63.2713 9.256 61.2846 9.53773 60.0327 10.9494C58.7294 12.4192 58.725 14.6209 60.0226 16.058C61.2383 17.4044 63.3548 17.6722 64.844 16.6605C65.035 16.5306 65.2159 16.3771 65.3734 16.2084C65.8195 15.731 66.2534 15.1055 66.0387 14.525C65.8771 14.0884 65.1429 14.3978 64.6669 14.3551C64.2375 14.3167 63.8003 14.3255 63.3692 14.3525C62.9117 14.3812 62.7285 14.2411 62.7141 13.7418C62.6971 13.1597 63.0242 13.1998 63.4041 13.206C63.9702 13.2156 64.5366 13.2086 65.1028 13.2084V13.2084Z" fill="#FCFCFC"/>
    <path fill-rule="evenodd" clip-rule="evenodd" d="M68.8665 13.5073C68.8665 12.1762 68.8928 10.8443 68.8542 9.51419C68.8373 8.93318 69.0396 8.77749 69.5961 8.7913C70.9923 8.82551 72.3899 8.80791 73.7869 8.7989C74.1509 8.79651 74.4204 8.79811 74.4109 9.30725C74.4027 9.76696 74.298 9.9639 73.7988 9.94309C72.9355 9.90746 72.0696 9.93288 71.2046 9.93328C70.0584 9.93409 70.1255 9.9377 70.0331 11.8266C69.9837 12.8399 70.3273 13.0989 71.2542 12.9854C71.8441 12.9131 72.4514 12.9456 73.0483 12.9814C73.44 13.0048 74.0352 12.704 74.0081 13.5512C73.9805 14.4046 73.3699 14.0401 72.9981 14.0651C72.2364 14.1164 71.4684 14.0999 70.7042 14.0741C70.2535 14.0587 70.0757 14.177 70.0459 14.6767C69.9056 17.03 69.8875 17.029 72.2262 17.029C72.7251 17.029 73.2265 17.0592 73.7223 17.0206C74.2272 16.9813 74.4196 17.1214 74.4157 17.671C74.4118 18.2007 74.1863 18.2556 73.7559 18.2496C72.3589 18.2304 70.9608 18.2136 69.5651 18.2556C68.9637 18.2736 68.8431 18.0404 68.8561 17.5007C68.888 16.1702 68.8666 14.8385 68.8666 13.5073H68.8665Z" fill="#FBFBFB"/>
    <path fill-rule="evenodd" clip-rule="evenodd" d="M78.0609 14.0659C78.0607 12.9368 78.0197 11.8058 78.0766 10.6796C78.1091 10.036 77.8784 9.86775 77.2869 9.92851C76.8589 9.97268 76.4215 9.91753 75.9903 9.94131C75.5557 9.96549 75.4199 9.79081 75.4152 9.36191C75.4102 8.91282 75.5841 8.79671 76.0023 8.80029C77.7991 8.81569 79.5965 8.81848 81.3933 8.7989C81.8432 8.7941 81.9538 8.96878 81.9551 9.38589C81.9563 9.83378 81.7742 9.98827 81.3566 9.93691C81.3239 9.9329 81.2901 9.9357 81.2569 9.9371C79.277 10.0162 79.277 10.0162 79.277 11.9927C79.277 13.819 79.2766 15.6453 79.2774 17.4717C79.2776 17.865 79.3738 18.2491 78.716 18.2555C78.0599 18.2619 78.0465 17.9338 78.0547 17.4527C78.0741 16.3241 78.0609 15.1949 78.0609 14.0659Z" fill="#F9F9F9"/>
    <path fill-rule="evenodd" clip-rule="evenodd" d="M91.8094 8.80691C92.6759 8.80691 93.5422 8.81512 94.4087 8.80291C94.774 8.7979 95.0446 8.80171 95.0349 9.31069C95.0262 9.76982 94.918 9.94836 94.4208 9.95396C93.7708 9.96158 92.8646 9.62052 92.5336 10.1107C92.2048 10.598 92.4056 11.4537 92.4019 12.148C92.3922 13.8487 92.4114 15.5495 92.3896 17.25C92.3842 17.6753 92.6718 18.2859 91.7658 18.2659C90.8276 18.2453 91.2196 17.5892 91.2131 17.2061C91.1771 15.0726 91.1672 12.9374 91.2122 10.8042C91.2269 10.1199 91.0676 9.82446 90.3482 9.92873C89.989 9.98077 89.6161 9.92833 89.2499 9.94015C88.8543 9.95297 88.5492 9.94936 88.5472 9.38673C88.5449 8.85873 88.7774 8.78928 89.2104 8.8003C90.0761 8.8223 90.943 8.80689 91.8094 8.80689L91.8094 8.80691Z" fill="#FBFBFB"/>
    <path fill-rule="evenodd" clip-rule="evenodd" d="M86.0542 13.5054C86.0544 12.1753 86.0686 10.845 86.0468 9.51526C86.039 9.04294 86.1084 8.79376 86.6855 8.78738C87.3187 8.78037 87.2779 9.12923 87.2769 9.54882C87.2711 12.209 87.2666 14.8692 87.281 17.5294C87.2837 17.9913 87.2393 18.2559 86.6536 18.2555C86.0347 18.2553 86.0464 17.9276 86.0501 17.4956C86.0615 16.1655 86.0542 14.8354 86.0542 13.5053L86.0542 13.5054Z" fill="#F7F7F7"/>
    <path fill-rule="evenodd" clip-rule="evenodd" d="M29.7659 42.1196C30.2181 41.6652 30.67 41.2109 31.1222 40.7565C31.5356 41.2746 31.6064 41.8838 31.6098 42.5165C31.617 43.9568 31.5041 45.3987 31.6622 46.8371C31.1069 47.1441 30.552 47.4513 29.9966 47.7585C29.8892 45.8799 30.2394 43.983 29.7659 42.1196H29.7659Z" fill="#C03C80"/>
    <path fill-rule="evenodd" clip-rule="evenodd" d="M32.8586 28.1777C33.4088 28.377 33.919 28.6497 34.3829 29.0073C33.8627 29.6367 33.868 30.4119 33.8676 31.1509C33.8668 32.5148 33.9405 33.8789 34.0011 35.2422C34.0165 35.5902 34.0114 35.8884 33.5994 35.9879C33.187 35.7327 32.8588 35.3937 32.6025 34.9831C32.6723 33.0483 32.8633 31.1142 32.6729 29.1776C32.637 28.8124 32.6173 28.4784 32.8586 28.1777H32.8586Z" fill="#B0EDA7"/>
    <path fill-rule="evenodd" clip-rule="evenodd" d="M34.6266 37.195C34.6855 37.2617 34.7446 37.3284 34.8033 37.3951C34.7605 39.2271 34.6137 41.0657 34.7287 42.8875C34.7719 43.5713 34.2817 44.3981 35.0066 45.0051C34.799 45.2212 34.5475 45.3558 34.2553 45.4147C34.1742 45.4636 34.0933 45.5126 34.0123 45.5617C33.9746 45.6138 33.9243 45.636 33.8607 45.6284C33.5257 44.5082 33.7869 43.35 33.6454 42.214C33.4905 40.9662 33.8672 39.6819 33.4179 38.4484C33.508 38.3106 33.5981 38.1728 33.688 38.035C34.0009 37.755 34.3138 37.475 34.6266 37.195H34.6266Z" fill="#CC3E6E"/>
    <path fill-rule="evenodd" clip-rule="evenodd" d="M33.6049 35.9922C34.0172 35.8926 34.0223 35.5944 34.0069 35.2464C33.9463 33.8831 33.8725 32.5191 33.8733 31.1552C33.8737 30.4162 33.8684 29.641 34.389 29.0116C34.7809 29.1277 35.132 29.3178 35.4385 29.5889C34.9028 30.8416 35.104 32.1737 35.0718 33.47C35.0492 34.3854 34.7176 35.3777 35.4177 36.2152L35.414 36.2103C35.3451 36.279 35.2767 36.3478 35.2083 36.4167L35.2142 36.4099C35.1464 36.4855 35.0788 36.561 35.0111 36.6366C34.8858 36.7599 34.7606 36.8835 34.6352 37.0068C34.361 36.7959 34.0868 36.5852 33.8126 36.3745C33.7436 36.247 33.6741 36.1197 33.6048 35.9921L33.6049 35.9922Z" fill="#B7F0A6"/>
    <path fill-rule="evenodd" clip-rule="evenodd" d="M35.4223 36.2157C34.7247 35.3783 35.0551 34.3861 35.0776 33.4707C35.1098 32.1745 34.9093 30.8425 35.443 29.5899C35.5165 29.5738 35.5725 29.5981 35.6114 29.6627L35.8299 29.799C36.2205 29.9076 36.5644 30.1018 36.8675 30.3708C36.4345 31.046 36.4073 31.7654 36.5863 32.5285C36.6346 32.7337 36.5363 32.9754 36.4978 33.1991C36.396 33.7855 36.4067 34.3483 36.8172 34.8332C36.4063 35.3493 35.9622 35.8312 35.4223 36.2157H35.4223Z" fill="#BEF3A5"/>
    <path fill-rule="evenodd" clip-rule="evenodd" d="M29.7668 42.1298C30.2375 43.9873 29.8893 45.8782 29.9962 47.7507C29.4627 48.0338 28.9292 48.3168 28.3958 48.6C28.3958 48.0428 28.4028 47.4855 28.3941 46.9284C28.3776 45.863 28.6126 44.7791 28.1641 43.7449C28.6982 43.2066 29.2325 42.6681 29.7669 42.1298H29.7668Z" fill="#BB3B89"/>
    <path fill-rule="evenodd" clip-rule="evenodd" d="M35.0079 45.0028C34.2746 44.3959 34.7705 43.5693 34.7268 42.8856C34.6105 41.0641 34.759 39.2259 34.8023 37.3943C35.3285 37.8017 35.8063 38.2573 36.2117 38.7861C35.7795 40.6644 35.8412 42.5593 36.0202 44.4582C35.7173 44.7034 35.391 44.9055 35.0079 45.0028H35.0079Z" fill="#D13F68"/>
    <path fill-rule="evenodd" clip-rule="evenodd" d="M36.8142 34.83C36.4009 34.3448 36.3902 33.7817 36.4927 33.1949C36.5315 32.9711 36.6304 32.7293 36.5818 32.5239C36.4015 31.7603 36.429 31.0405 36.8649 30.365C37.8894 30.8212 38.8801 31.3391 39.8085 31.9703C38.8102 32.9235 37.8121 33.8767 36.8142 34.83L36.8142 34.83Z" fill="#C7F7A3"/>
    <path fill-rule="evenodd" clip-rule="evenodd" d="M32.8625 28.1753C32.6197 28.4763 32.6395 28.8107 32.6757 29.1763C32.8671 31.1151 32.6751 33.0515 32.6048 34.9887C32.5418 34.9877 32.4792 34.9845 32.4168 34.9793C32.0776 34.5808 31.7389 34.1826 31.4 33.7844C31.6092 33.4586 31.5992 33.0945 31.598 32.7279C31.5932 31.4025 31.5757 30.0765 31.6089 28.7519C31.6184 28.3699 31.4728 27.9362 31.8042 27.5992C32.1994 27.7145 32.5538 27.9034 32.8625 28.1753Z" fill="#AAEAA9"/>
    <path fill-rule="evenodd" clip-rule="evenodd" d="M28.1711 43.7464C28.6188 44.781 28.3843 45.8653 28.4007 46.9311C28.4093 47.4884 28.4023 48.0458 28.4023 48.6033C27.9242 48.9795 27.3844 49.2427 26.8219 49.4645C26.8156 48.4457 26.787 47.4262 26.8143 46.4084C26.8248 46.013 26.5683 45.8172 26.3779 45.5582C26.9757 44.9543 27.5733 44.3504 28.1711 43.7464L28.1711 43.7464Z" fill="#B53A91"/>
    <path fill-rule="evenodd" clip-rule="evenodd" d="M33.409 38.4412C33.8631 39.6778 33.4824 40.9655 33.639 42.2165C33.782 43.3554 33.518 44.5165 33.8565 45.6396C33.6357 45.7622 33.4146 45.8847 33.1931 46.0074C32.7897 45.9774 32.6014 45.7463 32.6037 45.3559C32.6144 43.5551 32.5029 41.7404 32.6964 39.9591C32.7924 39.0759 32.2328 39.9177 32.2169 39.6418C32.2425 39.5719 32.2676 39.5023 32.2928 39.4323C32.6646 39.1019 33.0369 38.7716 33.409 38.4412Z" fill="#C93E73"/>
    <path fill-rule="evenodd" clip-rule="evenodd" d="M32.2212 39.646C32.2369 39.9213 32.7917 39.0814 32.6965 39.9627C32.5047 41.74 32.6153 43.5507 32.6046 45.3475C32.6024 45.7371 32.7891 45.9676 33.189 45.9976C32.7276 46.3633 32.2094 46.6236 31.6613 46.8283C31.5053 45.3943 31.6168 43.9566 31.6097 42.5206C31.6064 41.8896 31.5365 41.2823 31.1288 40.7656C31.4928 40.3924 31.857 40.0192 32.2212 39.646H32.2212Z" fill="#C53D79"/>
    <path fill-rule="evenodd" clip-rule="evenodd" d="M27.0274 24.993C27.5506 25.1684 28.0217 25.4397 28.4582 25.775C28.2098 26.0477 28.3667 26.3752 28.3354 26.6778C28.2075 27.9257 28.6938 29.1971 28.1907 30.43C27.9921 30.2927 27.7931 30.1553 27.5946 30.0182C27.3284 29.6864 27.0621 29.3549 26.796 29.0232C26.8945 28.7871 26.973 28.5717 26.9502 28.2836C26.8637 27.1873 26.7186 26.0823 27.0274 24.993V24.993Z" fill="#90DFAD"/>
    <path fill-rule="evenodd" clip-rule="evenodd" d="M29.9924 26.6053C30.3834 26.7227 30.7365 26.9094 31.0422 27.1825L30.8015 27.4024C30.3682 28.6079 30.7005 29.8549 30.6088 31.0796C30.572 31.5706 30.6353 32.074 30.1718 32.4165C30.1119 32.4203 30.0514 32.4225 29.9912 32.4231L29.3914 31.628C29.3949 30.3169 29.3925 29.006 29.4058 27.6951C29.4104 27.2393 29.3894 26.7484 29.9924 26.6053H29.9924Z" fill="#9DE5AB"/>
    <path fill-rule="evenodd" clip-rule="evenodd" d="M30.1767 32.419C30.6416 32.0763 30.5781 31.5731 30.615 31.0822C30.7069 29.8578 30.3739 28.611 30.8081 27.4058L30.8541 27.4886L30.8914 27.4516L30.8081 27.4058L31.0492 27.186C31.3449 27.252 31.6075 27.3788 31.8171 27.603C31.4865 27.9399 31.6318 28.3734 31.6223 28.7552C31.5892 30.0792 31.6067 31.4046 31.6114 32.7294C31.6126 33.0959 31.6225 33.4597 31.414 33.7856C31.3555 33.789 31.2969 33.7916 31.2384 33.7934C30.8844 33.3353 30.5307 32.8771 30.1767 32.419L30.1767 32.419Z" fill="#A3E7A9"/>
    <path fill-rule="evenodd" clip-rule="evenodd" d="M26.383 45.5535C26.5738 45.8129 26.8309 46.009 26.8204 46.405C26.793 47.4246 26.8217 48.4457 26.8279 49.4662C26.3918 49.783 25.9383 50.0676 25.4174 50.2275C25.1377 49.7786 25.2267 49.2771 25.2049 48.7891C25.1771 48.1745 25.3356 47.5358 24.9848 46.9597C25.3957 46.4361 25.8579 45.9636 26.383 45.5535H26.383Z" fill="#AF399A"/>
    <path fill-rule="evenodd" clip-rule="evenodd" d="M36.0307 44.4674C35.8528 42.5645 35.7915 40.6656 36.2212 38.7832C36.6095 39.0567 36.9434 39.3851 37.2112 39.7793C37.2805 39.853 37.3494 39.9266 37.4184 40L37.4148 39.9918C36.8887 41.2424 37.2993 42.541 37.2202 43.8145C36.8711 44.1186 36.4615 44.3123 36.0307 44.4674Z" fill="#D54061"/>
    <path fill-rule="evenodd" clip-rule="evenodd" d="M17.7787 51.6195C17.5531 51.2518 17.6475 50.8416 17.6475 50.4506C17.6531 41.5988 17.6656 32.747 17.676 23.8953C17.6766 23.3958 17.67 22.896 17.8348 22.4152C18.1444 22.7746 17.9457 23.209 18.0026 23.6058C17.6278 24.1877 17.8702 24.8271 17.8388 25.4411C17.8406 26.1644 17.8426 26.8878 17.8444 27.6112C17.8448 28.2205 17.8454 28.8299 17.8456 29.4387C17.8476 30.2297 17.8498 31.0212 17.8517 31.8124C17.8529 32.4796 17.8539 33.1468 17.8549 33.8141C17.8551 34.8147 17.8553 35.8152 17.8557 36.8158C17.8452 37.6106 17.8283 38.4053 17.8249 39.2001C17.8076 43.3399 17.7938 47.4796 17.7787 51.6194L17.7787 51.6195Z" fill="#43AABF"/>
    <path fill-rule="evenodd" clip-rule="evenodd" d="M24.0731 23.3723C24.1365 23.3589 24.1838 23.3807 24.2151 23.4378L24.4582 23.5847C24.976 23.7651 25.4534 24.0192 25.8835 24.3611C25.4964 24.6117 25.6228 25.0087 25.6139 25.3574C25.5948 26.1156 25.6785 26.8816 25.4044 27.6155C25.2064 27.4798 25.0087 27.3439 24.8107 27.2082L24.8105 27.2086C24.744 27.1409 24.6774 27.0729 24.6107 27.005C24.3514 26.598 24.0174 26.2649 23.615 26C23.6128 25.9368 23.6101 25.8739 23.6068 25.8112C23.7416 25.4981 24.1396 25.2756 23.9278 24.8439C23.6735 24.3255 23.955 23.8561 24.0731 23.3723H24.0731Z" fill="#81D8AF"/>
    <path fill-rule="evenodd" clip-rule="evenodd" d="M29.9878 26.6087C29.3859 26.7516 29.4068 27.2419 29.4023 27.6971C29.389 29.0062 29.3914 30.3154 29.3879 31.6245C29.2549 31.5544 29.1218 31.4844 28.9884 31.4147L28.1918 30.4219C28.695 29.1912 28.2088 27.9222 28.3367 26.6768C28.3679 26.3749 28.2111 26.048 28.4595 25.7759C28.5254 25.7615 28.5745 25.7841 28.6065 25.8436L28.8477 25.9891C29.2703 26.1173 29.6511 26.3222 29.9879 26.6087H29.9878Z" fill="#97E2AB"/>
    <path fill-rule="evenodd" clip-rule="evenodd" d="M37.212 43.8024C37.2915 42.5311 36.8789 41.2345 37.4075 39.9859C38.283 40.7129 39.0758 41.5228 39.8203 42.381C39.0049 42.9532 38.1182 43.3957 37.212 43.8024Z" fill="#DA4159"/>
    <path fill-rule="evenodd" clip-rule="evenodd" d="M152.389 26.4018H159.564L159.565 26.6012C157.699 26.6012 155.83 26.6448 153.965 26.5822C153.072 26.552 152.772 26.7796 152.779 27.731C152.825 33.5273 152.804 39.3244 152.797 45.1211C152.796 45.4771 152.891 45.8487 152.702 46.2173C152.513 45.8483 152.608 45.4767 152.607 45.1205C152.6 39.3238 152.605 33.5269 152.595 27.7302C152.594 27.3504 152.752 26.9222 152.392 26.599C152.391 26.5332 152.39 26.4676 152.389 26.4018L152.389 26.4018Z" fill="#F8F8F8"/>
    <path fill-rule="evenodd" clip-rule="evenodd" d="M24.9782 46.9658C25.3289 47.5398 25.1704 48.1761 25.1981 48.7884C25.2199 49.2746 25.1311 49.7742 25.4108 50.2214C24.8465 50.6204 24.2496 50.9598 23.6002 51.2031C23.5118 50.3271 23.8003 49.4199 23.3811 48.5713C23.8529 47.9763 24.3889 47.4447 24.9782 46.9658Z" fill="#A938A2"/>
    <path fill-rule="evenodd" clip-rule="evenodd" d="M24.0671 23.3797C23.9491 23.8632 23.6681 24.3323 23.922 24.8504C24.1336 25.2819 23.7361 25.5042 23.6016 25.8168C23.1382 25.4114 22.6744 25.0061 22.2107 24.6009L21.8063 24.012L21.6072 23.8103L21.409 23.6092L21.4084 23.6085L21.2114 23.4082L21.2108 23.4054C21.4024 23.0657 21.6668 22.7991 22.0069 22.6084L22.0893 22.6545L22.0065 22.6088L22.2516 22.3863C22.9032 22.6319 23.5044 22.9705 24.067 23.3797L24.0671 23.3797Z" fill="#76D3B1"/>
    <path fill-rule="evenodd" clip-rule="evenodd" d="M25.3969 27.6109C25.6702 26.8795 25.5867 26.1162 25.6058 25.3607C25.6146 25.0133 25.4886 24.6176 25.8746 24.368C25.9349 24.3544 25.9782 24.3756 26.0045 24.4317L26.269 24.5861C26.5599 24.6504 26.8158 24.7794 27.0231 24.9977C26.7145 26.0842 26.8595 27.1864 26.9459 28.28C26.9687 28.5673 26.8903 28.7822 26.7918 29.0176C26.6597 28.9475 26.5275 28.8775 26.3952 28.8076V28.8042L26.1996 28.6057L26.198 28.6039L26.0004 28.4058L25.7964 28.0175L25.5959 27.808L25.5984 27.8106C25.5311 27.7432 25.464 27.6756 25.3967 27.6083L25.3969 27.6109Z" fill="#88DBAE"/>
    <path fill-rule="evenodd" clip-rule="evenodd" d="M18.0035 23.6135C17.9454 23.2166 18.1484 22.782 17.8321 22.4225C17.9575 21.7651 18.2851 21.2971 18.9893 21.1822C19.6605 21.9233 20.3315 22.6642 21.0026 23.4052C20.6757 23.5609 20.3546 23.5731 19.9823 23.5321C19.3157 23.4587 18.6224 23.4363 18.0042 23.8128C18.004 23.7464 18.0038 23.6799 18.0035 23.6135Z" fill="#40A2BC"/>
    <path fill-rule="evenodd" clip-rule="evenodd" d="M23.3793 48.5678C23.7969 49.4207 23.5095 50.3326 23.5975 51.213C23.1742 51.5521 22.698 51.7946 22.1937 51.9856C21.9909 51.4535 21.7881 50.9212 21.5855 50.3891L21.5826 50.397C21.6522 50.323 21.722 50.2491 21.7916 50.1751C22.2605 49.5793 22.7889 49.0428 23.3793 48.5678V48.5678Z" fill="#A338AB"/>
    <path fill-rule="evenodd" clip-rule="evenodd" d="M21.5909 50.3842C21.7942 50.9156 21.9977 51.4471 22.2011 51.9784C21.1427 52.5326 20.2277 53.53 18.84 53.0647C19.7573 52.1712 20.674 51.2778 21.5909 50.3842H21.5909Z" fill="#9B37B4"/>
    <path fill-rule="evenodd" clip-rule="evenodd" d="M151.964 26.4763V46.5416L151.865 46.542V26.4357L151.964 26.4763Z" fill="#050505"/>
    <path fill-rule="evenodd" clip-rule="evenodd" d="M130.374 26.2793V46.3436L130.275 46.344V26.2405L130.374 26.2793Z" fill="#060606"/>
    <path fill-rule="evenodd" clip-rule="evenodd" d="M21.0106 23.3902C20.3368 22.6501 19.6634 21.9103 18.9898 21.1702C19.6941 20.8203 20.2482 21.2535 20.8165 21.5412C21.3095 21.7908 21.7738 22.0965 22.2509 22.3774C22.1689 22.4513 22.0871 22.5253 22.0051 22.5994L22.0055 22.599C21.6644 22.7892 21.3993 23.0552 21.2069 23.394C21.1414 23.3948 21.0759 23.3934 21.0106 23.3902Z" fill="#68CAB1"/>
    <path fill-rule="evenodd" clip-rule="evenodd" d="M17.7793 51.6279C17.7949 47.485 17.8092 43.3421 17.8271 39.1991C17.8307 38.4037 17.8481 37.6085 17.8587 36.813C17.9086 36.8054 17.9592 36.8016 18.0101 36.8016L18.0099 36.8014C18.0106 37.3347 18.011 37.8677 18.0116 38.4009L18.0114 39.6019C18.0112 43.3222 18.0147 47.0428 18.0054 50.7631C18.0043 51.1139 18.1339 51.5007 17.8263 51.8054C17.7791 51.7546 17.7633 51.6953 17.7793 51.6279H17.7793Z" fill="#69FEDB"/>
    <path fill-rule="evenodd" clip-rule="evenodd" d="M85.6476 13.5206C85.6476 10.0397 85.6709 7.21778 85.6995 7.21778C85.7281 7.21778 85.7513 10.0397 85.7513 13.5206C85.7513 17.0016 85.7281 19.8235 85.6995 19.8235C85.6709 19.8235 85.6476 17.0016 85.6476 13.5206Z" fill="#060606"/>
    <path fill-rule="evenodd" clip-rule="evenodd" d="M34.0102 45.5612C34.0894 45.5135 34.1686 45.4659 34.2481 45.4184C34.1689 45.4659 34.0896 45.5135 34.0102 45.5612Z" fill="#C93E73"/>
    <path fill-rule="evenodd" clip-rule="evenodd" d="M28.8494 25.9881L28.6179 25.8483C28.695 25.895 28.7722 25.9416 28.8494 25.9881Z" fill="#90DFAD"/>
    <path fill-rule="evenodd" clip-rule="evenodd" d="M26.2703 24.5742L26.0095 24.4323L26.2703 24.5742Z" fill="#81D8AF"/>
    <path fill-rule="evenodd" clip-rule="evenodd" d="M35.829 29.7931L35.6091 29.6551L35.829 29.7931Z" fill="#B7F0A6"/>
    <path fill-rule="evenodd" clip-rule="evenodd" d="M24.4493 23.5809L24.2158 23.4392L24.4493 23.5809Z" fill="#76D3B1"/>
    <path fill-rule="evenodd" clip-rule="evenodd" d="M121.653 40.0991C121.638 42.5125 120.05 44.309 117.921 44.3205C115.705 44.3325 113.99 42.452 114.011 40.0327C114.031 37.5642 115.691 35.7724 117.947 35.7852C120.15 35.7978 121.668 37.5658 121.653 40.0991V40.0991Z" fill="black"/>
    <path fill-rule="evenodd" clip-rule="evenodd" d="M155.434 32.4904C155.434 31.6253 155.458 30.7592 155.425 29.8954C155.406 29.4044 155.506 29.175 156.069 29.1942C157.297 29.2362 158.529 29.1726 159.757 29.2208C161.502 29.2893 162.907 30.7444 162.944 32.4494C162.981 34.167 161.654 35.6417 159.864 35.7498C158.572 35.8279 157.271 35.7576 155.976 35.7838C155.517 35.793 155.418 35.5941 155.428 35.1854C155.449 34.2875 155.434 33.3887 155.434 32.4904V32.4904Z" fill="black"/>
    <path fill-rule="evenodd" clip-rule="evenodd" d="M181.536 39.943C182.377 39.942 183.188 40.0715 183.95 40.4528C184.322 40.639 184.493 40.8604 184.348 41.3206C183.732 43.2818 181.253 44.6061 179.274 43.9952C178.566 43.7766 178.003 43.3813 177.879 42.5934C177.754 41.7986 178.063 41.1596 178.695 40.676C179.35 40.1738 180.301 39.9314 181.536 39.943L181.536 39.943Z" fill="#010101"/>
    <path fill-rule="evenodd" clip-rule="evenodd" d="M82.751 40.0153C82.7979 37.524 84.5095 35.7506 86.8334 35.7856C89.1346 35.8202 90.7839 37.6858 90.7298 40.1932C90.6813 42.4593 88.8308 44.348 86.6861 44.3204C84.475 44.292 82.707 42.3579 82.751 40.0153Z" fill="black"/>
    <path fill-rule="evenodd" clip-rule="evenodd" d="M106.226 40.1068C106.227 42.3981 104.464 44.2843 102.289 44.3185C100.107 44.3527 98.2099 42.3828 98.227 40.1016C98.2451 37.6432 99.9861 35.7814 102.263 35.7852C104.616 35.7894 106.225 37.5432 106.226 40.1068Z" fill="black"/>
    <path fill-rule="evenodd" clip-rule="evenodd" d="M18.0087 39.6008C18.0087 39.2013 18.0087 38.8019 18.0089 38.4025C18.3666 38.1698 18.6887 37.9843 19.1899 38.0391C19.6395 38.0882 20.1129 38.2801 20.542 38.1847C22.4674 37.7561 24.3891 38.3916 26.3306 38.1187C27.594 37.9412 28.9194 38.059 30.2139 38.0694C31.3696 38.0786 32.5225 38.1317 33.676 38.0281C33.5853 38.1659 33.4945 38.3036 33.4036 38.4415C33.0323 38.771 32.6609 39.1005 32.2898 39.43C30.2904 39.4204 28.2905 39.4092 26.2907 39.4016C23.7971 39.392 21.3032 39.409 18.8108 39.3507C18.4616 39.3425 18.2646 39.4859 18.0087 39.6008Z" fill="#63F7D1"/>
    <path fill-rule="evenodd" clip-rule="evenodd" d="M21.7999 50.1758C21.7276 50.2504 21.6552 50.325 21.583 50.3996C21.6552 50.325 21.7276 50.2504 21.7999 50.1758Z" fill="#9B37B4"/>
    <path fill-rule="evenodd" clip-rule="evenodd" d="M134.762 39.818C134.751 38.1443 135.454 36.9826 136.779 36.203C137.93 35.5253 139.119 35.5111 140.267 36.2463C140.6 36.4598 141.023 36.7285 140.989 37.1296C140.962 37.4531 140.465 37.4725 140.167 37.5968C138.4 38.3334 136.626 39.0543 134.762 39.818V39.818Z" fill="#010101"/>
    <path fill-rule="evenodd" clip-rule="evenodd" d="M33.6858 38.0249C32.5315 38.1281 31.3778 38.0752 30.2212 38.066C28.9257 38.0557 27.5995 37.9384 26.3351 38.1152C24.3922 38.3867 22.4691 37.754 20.5423 38.1807C20.113 38.2758 19.639 38.0847 19.1893 38.0358C18.6877 37.9813 18.3654 38.166 18.0074 38.3977C18.0068 37.868 18.0064 37.3385 18.0058 36.8088C18.4944 36.7424 19.0196 36.5274 19.4652 36.6356C21.3918 37.1037 23.3256 36.58 25.26 36.7504C26.2112 36.8341 27.2236 36.9404 28.1897 36.7907C29.6242 36.5686 31.0406 36.7385 32.4675 36.7836C32.9135 36.7977 33.5671 37.1544 33.816 36.3825C34.0904 36.5921 34.3648 36.8016 34.6393 37.0114C34.6315 37.0703 34.6292 37.1295 34.6327 37.1886C34.3173 37.4673 34.0015 37.7461 33.6857 38.0249L33.6858 38.0249Z" fill="#60F0D0"/>
    <path fill-rule="evenodd" clip-rule="evenodd" d="M37.419 40.0028C37.3477 39.9289 37.2766 39.8548 37.2051 39.7807C37.2766 39.8546 37.3477 39.9287 37.419 40.0028Z" fill="#DA4159"/>
    <path fill-rule="evenodd" clip-rule="evenodd" d="M35.2131 36.4157C35.2831 36.3452 35.3532 36.2749 35.4232 36.2046C35.3532 36.2749 35.2833 36.3452 35.2131 36.4157Z" fill="#BEF3A5"/>
    <path fill-rule="evenodd" clip-rule="evenodd" d="M35.0212 36.6376C35.0842 36.5649 35.1468 36.4923 35.2098 36.4196C35.147 36.4923 35.0842 36.5649 35.0212 36.6376Z" fill="#BEF3A5"/>
    <path fill-rule="evenodd" clip-rule="evenodd" d="M107.012 13.553C107.001 15.6383 105.419 17.2565 103.38 17.2685C101.341 17.2805 99.7847 15.6755 99.7753 13.5517C99.7658 11.4088 101.391 9.66497 103.381 9.68378C105.387 9.7028 107.022 11.4456 107.012 13.553H107.012Z" fill="black"/>
    <path fill-rule="evenodd" clip-rule="evenodd" d="M33.8185 36.3779C33.5695 37.1509 32.9158 36.7937 32.4697 36.7795C31.0426 36.7344 29.626 36.5643 28.1913 36.7867C27.2251 36.9367 26.2125 36.8301 25.2611 36.7463C23.3264 36.5757 21.3923 37.1002 19.4654 36.6314C19.0198 36.5231 18.4945 36.7383 18.0058 36.8048L18.006 36.805C18.0066 36.4725 18.0074 36.14 18.0081 35.8077C18.2585 35.6325 18.2319 35.2016 18.7002 35.2032C20.9112 35.2104 23.1225 35.1676 25.3337 35.1662C27.5559 35.1648 29.7782 35.1953 32.0006 35.1959C32.1417 35.1961 32.2829 35.0597 32.4244 34.987C32.4866 34.9922 32.5491 34.9953 32.6117 34.9964C32.8685 35.4051 33.1973 35.7428 33.6104 35.9971C33.68 36.1241 33.7493 36.2509 33.8184 36.378L33.8185 36.3779Z" fill="#5DE8CE"/>
    <path fill-rule="evenodd" clip-rule="evenodd" d="M32.4128 34.9802C32.2714 35.0536 32.1304 35.1915 31.9892 35.1913C29.769 35.1907 27.5487 35.1599 25.3287 35.1614C23.1193 35.1627 20.9101 35.206 18.701 35.1988C18.2332 35.1972 18.2597 35.6328 18.0095 35.81C18.0093 35.3405 18.0091 34.8713 18.0087 34.4018C18.4385 33.9094 19.002 33.7932 19.6205 33.7956C21.5333 33.8027 23.4462 33.7997 25.3588 33.7977C27.3147 33.7956 29.2705 33.7902 31.2265 33.7862C31.2849 33.7844 31.3431 33.7817 31.4014 33.7783C31.7386 34.1787 32.0755 34.5794 32.4128 34.9802V34.9802Z" fill="#59E0CC"/>
    <path fill-rule="evenodd" clip-rule="evenodd" d="M26.4042 28.8083C26.5371 28.8783 26.6698 28.9485 26.8025 29.0187C27.0694 29.35 27.3367 29.6812 27.6037 30.0123C27.1263 30.4045 26.6177 30.4769 25.9757 30.4569C23.4722 30.3789 20.965 30.4187 18.459 30.4279C18.3051 30.4285 18.1518 30.5419 17.9983 30.6029C17.9365 30.2157 18.1423 29.7918 17.8368 29.4382C17.8364 28.8291 17.836 28.2198 17.8349 27.6106C17.8889 27.6064 17.9431 27.6044 17.9975 27.6042C17.9977 27.7374 17.9979 27.8704 17.9983 28.0034C18.0457 28.3467 17.8928 28.7135 18.0486 28.9657C19.6294 28.8049 21.1491 28.8297 22.6708 28.8475C23.9151 28.8621 25.1599 28.8233 26.4042 28.8083V28.8083Z" fill="#4FC7C6"/>
    <path fill-rule="evenodd" clip-rule="evenodd" d="M18.0086 30.6028C18.1619 30.5417 18.3149 30.4282 18.4686 30.4276C20.9711 30.4184 23.4748 30.3786 25.9749 30.4566C26.6158 30.4767 27.1237 30.4042 27.6004 30.0115C27.7993 30.1489 27.9987 30.2862 28.1976 30.4236C28.4636 30.7554 28.7296 31.0871 28.9958 31.4185C28.6609 31.684 28.2717 31.661 27.874 31.6544C26.3615 31.6288 24.8434 31.5365 23.3371 31.63C21.9055 31.7189 20.4858 31.8272 19.0611 31.6093C18.6318 31.5439 18.2781 31.6556 18.0082 32.0044C18.008 31.9377 18.0076 31.8713 18.0076 31.8048C18.0078 31.4041 18.0082 31.0034 18.0086 30.6028H18.0086Z" fill="#52CEC7"/>
    <path fill-rule="evenodd" clip-rule="evenodd" d="M31.2343 33.7945C29.2771 33.7985 27.32 33.8039 25.3626 33.806C23.4486 33.808 21.5344 33.811 19.6203 33.8039C19.0013 33.8015 18.4374 33.9178 18.0073 34.4106C18.0069 34.2097 18.0064 34.0088 18.006 33.8078C18.0067 33.5386 18.0073 33.2694 18.0077 33.0003C19.8768 32.6539 21.7702 32.6547 23.651 32.737C25.5389 32.8196 27.423 32.7708 29.3088 32.7781C29.5662 32.7791 29.818 32.6384 29.9943 32.4166C30.0545 32.416 30.115 32.4138 30.1749 32.41C30.5279 32.8716 30.8809 33.3331 31.2343 33.7945H31.2343Z" fill="#57DACA"/>
    <path fill-rule="evenodd" clip-rule="evenodd" d="M29.9846 32.4291C29.8084 32.6494 29.5569 32.7891 29.2998 32.7881C27.4157 32.7809 25.5333 32.8293 23.6472 32.7473C21.7681 32.6656 19.8763 32.6648 18.0091 33.0088C18.0091 32.6754 18.0089 32.3423 18.0087 32.0089C18.2783 31.6604 18.6316 31.5488 19.0606 31.6142C20.4838 31.8319 21.9021 31.7236 23.3324 31.6348C24.8372 31.5414 26.3538 31.6336 27.8648 31.6592C28.2621 31.6658 28.651 31.6888 28.9855 31.4235C29.1189 31.4935 29.2521 31.5636 29.3853 31.6338C29.5851 31.8991 29.7848 32.164 29.9846 32.4291H29.9846Z" fill="#55D5C9"/>
    <path fill-rule="evenodd" clip-rule="evenodd" d="M30.7971 27.4064L30.8783 27.4514L30.8417 27.488L30.7971 27.4064Z" fill="#9DE5AB"/>
    <path fill-rule="evenodd" clip-rule="evenodd" d="M18.0093 23.5998C18.0095 23.6661 18.0097 23.7325 18.0097 23.7989C18.0097 24.1942 18.0097 24.5893 18.0097 25.0087C18.8422 24.6057 19.6053 25.1803 20.374 24.9991C20.9835 24.8556 21.6834 25.1179 22.207 24.5889C22.6706 24.9933 23.1344 25.398 23.5979 25.8027C23.6012 25.8654 23.6038 25.9282 23.6061 25.9912C22.1379 26.6204 20.5897 26.4091 19.0749 26.3435C18.6403 26.3245 18.3338 26.3735 18.0101 26.5972C17.9452 26.2109 18.1606 25.7839 17.8418 25.4344C17.8739 24.8206 17.6261 24.1814 18.0092 23.5998L18.0093 23.5998Z" fill="#46B1C0"/>
    <path fill-rule="evenodd" clip-rule="evenodd" d="M18.008 33.803C18.0084 34.0033 18.0088 34.2035 18.0092 34.4036C18.0096 34.8718 18.0099 35.3397 18.0101 35.8078C18.0094 36.1429 18.0086 36.4781 18.008 36.8134C17.9572 36.8134 17.9068 36.8172 17.8571 36.8248C17.8569 35.8205 17.8567 34.8163 17.856 33.812C17.9064 33.8058 17.957 33.8028 18.008 33.803Z" fill="#60F0D0"/>
    <path fill-rule="evenodd" clip-rule="evenodd" d="M18.0037 30.5987C18.0033 30.9986 18.0028 31.3984 18.0026 31.7982C17.9497 31.7982 17.8971 31.8008 17.8444 31.806C17.8425 31.0155 17.8402 30.2249 17.8381 29.4347C18.1512 29.7883 17.9406 30.2119 18.0037 30.5987H18.0037Z" fill="#55D5C9"/>
    <path fill-rule="evenodd" clip-rule="evenodd" d="M17.8411 25.4331C18.1517 25.7848 17.9418 26.2146 18.005 26.6033C18.0047 26.939 18.0044 27.2744 18.0042 27.6099C17.9516 27.6101 17.8988 27.6121 17.8463 27.6163C17.8449 26.8885 17.8429 26.1607 17.8411 25.4331L17.8411 25.4331Z" fill="#4CBFC4"/>
    <path fill-rule="evenodd" clip-rule="evenodd" d="M17.8508 31.8153C17.9035 31.8101 17.9559 31.8075 18.0088 31.8075C18.0088 31.874 18.0092 31.9405 18.0094 32.0073C18.0096 32.3412 18.0098 32.6749 18.0098 33.0088C18.0094 33.2765 18.0088 33.5443 18.0082 33.812C17.9563 33.8118 17.9049 33.8148 17.8537 33.8211C17.8531 33.1525 17.852 32.4839 17.8508 31.8153L17.8508 31.8153Z" fill="#59E0CC"/>
    <path fill-rule="evenodd" clip-rule="evenodd" d="M26.4044 28.8057C25.161 28.8207 23.9171 28.8593 22.6736 28.8448C21.153 28.827 19.6343 28.8023 18.0547 28.9625C17.899 28.7113 18.0518 28.3459 18.0044 28.0039C18.2401 27.7688 18.4699 27.5413 18.8573 27.606C20.4959 27.8794 22.1357 27.5281 23.7756 27.603C24.1697 27.6211 24.5948 27.6741 24.8089 27.207C25.007 27.3419 25.205 27.4769 25.4028 27.6118V27.6094C25.4704 27.6766 25.5375 27.7439 25.605 27.8112L25.6025 27.8086C25.6696 27.8784 25.7368 27.9479 25.8037 28.0176C25.872 28.1467 25.9404 28.2758 26.0083 28.4049C26.0744 28.4709 26.1405 28.5368 26.2066 28.6026L26.2082 28.6043C26.2737 28.6703 26.3389 28.7364 26.4044 28.8024L26.4044 28.8057Z" fill="#4CBFC4"/>
    <path fill-rule="evenodd" clip-rule="evenodd" d="M24.8001 27.1973C24.5864 27.6665 24.1621 27.6132 23.7688 27.595C22.1319 27.5198 20.4953 27.8725 18.8599 27.598C18.4732 27.533 18.2439 27.7615 18.0086 27.9976C18.0082 27.8645 18.008 27.7315 18.0078 27.5982C18.008 27.2647 18.0082 26.9312 18.0086 26.5975C18.3324 26.3737 18.639 26.3246 19.0738 26.3436C20.589 26.4093 22.1377 26.6207 23.6062 25.9911C24.0082 26.2556 24.3414 26.5881 24.6003 26.9945C24.6669 27.0623 24.7335 27.1301 24.7999 27.1977L24.8001 27.1973Z" fill="#49B9C2"/>
    <path fill-rule="evenodd" clip-rule="evenodd" d="M24.7994 27.208C24.7337 27.14 24.6679 27.0719 24.602 27.0038C24.6679 27.0719 24.7337 27.14 24.7994 27.208Z" fill="#4CBFC4"/>
    <path fill-rule="evenodd" clip-rule="evenodd" d="M22.2026 24.5952C21.6796 25.1222 20.9801 24.8609 20.3713 25.0039C19.6031 25.1843 18.8406 24.6119 18.0087 25.0135C18.0087 24.5956 18.0087 24.2021 18.0087 23.8083C18.6271 23.4335 19.3204 23.4558 19.9871 23.5289C20.3594 23.5697 20.6804 23.5576 21.0074 23.4026C21.0727 23.4058 21.138 23.4072 21.2032 23.4064L21.2043 23.4092C21.2695 23.4755 21.3352 23.5418 21.4009 23.6084L21.4015 23.6092C21.4676 23.6757 21.5337 23.7424 21.5996 23.8091L21.7985 24.0097L22.2026 24.5952Z" fill="#43AABF"/>
    <path fill-rule="evenodd" clip-rule="evenodd" d="M21.4044 23.5966C21.3402 23.5305 21.2762 23.4647 21.212 23.3988C21.2762 23.4647 21.3402 23.5305 21.4044 23.5966Z" fill="#68CAB1"/>
    <path fill-rule="evenodd" clip-rule="evenodd" d="M21.9945 22.6111L22.0965 22.6526L21.995 22.6107L21.9945 22.6111Z" fill="#68CAB1"/>
    <path fill-rule="evenodd" clip-rule="evenodd" d="M21.7964 24.0159L21.5999 23.797C21.6652 23.8698 21.7309 23.9428 21.7964 24.0159Z" fill="#68CAB1"/>
    <path fill-rule="evenodd" clip-rule="evenodd" d="M21.6003 23.7975C21.5355 23.7309 21.4704 23.6644 21.4054 23.598C21.4704 23.6644 21.5355 23.7309 21.6003 23.7975Z" fill="#68CAB1"/>
    <path fill-rule="evenodd" clip-rule="evenodd" d="M26.1953 28.6111C26.1306 28.5405 26.0659 28.4696 26.0012 28.3988C26.0659 28.4696 26.1306 28.5405 26.1953 28.6111Z" fill="#4FC7C6"/>
    <path fill-rule="evenodd" clip-rule="evenodd" d="M25.7941 28.026C25.7274 27.9534 25.6607 27.881 25.594 27.8083C25.6607 27.881 25.7274 27.9534 25.7941 28.026Z" fill="#81D8AF"/>
    <path fill-rule="evenodd" clip-rule="evenodd" d="M25.5996 27.8133C25.5322 27.7456 25.4652 27.6779 25.3978 27.6104C25.465 27.6779 25.5322 27.7456 25.5996 27.8133Z" fill="#81D8AF"/>
    <path fill-rule="evenodd" clip-rule="evenodd" d="M26.406 28.8093C26.3368 28.7442 26.2678 28.6789 26.1987 28.6138C26.2678 28.6791 26.3368 28.7442 26.406 28.8093Z" fill="#4FC7C6"/>
</svg>
