<svg width="37" height="34" viewBox="0 0 37 34" fill="none"
    xmlns="http://www.w3.org/2000/svg">
    <path d="M4.49034 0.5C2.16564 0.5 0.25 2.41546 0.25 4.74034V21.7018C0.25 24.027 2.12422 26.0013 4.49034 25.9423H5.90386V30.1826V33.5396L8.28913 31.1545L13.5012 25.9423H32.7594C35.0841 25.9423 37 24.0266 37 21.7018V4.74034C37 2.41546 35.0841 0.5 32.7594 0.5H4.49034ZM6.69904 6.15386C6.75814 6.15019 6.81749 6.15019 6.8766 6.15386C7.02292 6.13072 7.17182 6.13072 7.31814 6.15386H18.6259C18.8131 6.15128 18.999 6.18585 19.1728 6.25572C19.3465 6.3256 19.5046 6.42941 19.638 6.56091C19.7713 6.69242 19.8772 6.84911 19.9495 7.02188C20.0218 7.19465 20.0591 7.37999 20.0591 7.56727C20.0591 7.75455 20.0218 7.94001 19.9495 8.11278C19.8772 8.28555 19.7713 8.44224 19.638 8.57375C19.5046 8.70526 19.3465 8.80894 19.1728 8.87882C18.999 8.94869 18.8131 8.98338 18.6259 8.9808H7.31814C7.13233 9.02192 6.94021 9.02598 6.75283 8.99275C6.56545 8.95952 6.38646 8.88968 6.22612 8.78717C6.06578 8.68466 5.92726 8.55145 5.81845 8.39531C5.70963 8.23918 5.63274 8.06311 5.59207 7.87719C5.55141 7.69128 5.54792 7.49918 5.58161 7.31188C5.6153 7.12458 5.68541 6.94576 5.78831 6.78567C5.89121 6.62558 6.02489 6.48742 6.18129 6.37899C6.33769 6.27057 6.51377 6.19407 6.69978 6.15386H6.69904ZM6.69904 11.8077C6.75814 11.8041 6.81749 11.8041 6.8766 11.8077C7.02292 11.7846 7.17182 11.7846 7.31814 11.8077H29.9336C30.1209 11.8051 30.3067 11.8397 30.4805 11.9096C30.6542 11.9795 30.8123 12.0831 30.9457 12.2147C31.079 12.3462 31.185 12.5028 31.2572 12.6756C31.3295 12.8484 31.3666 13.0339 31.3666 13.2211C31.3666 13.4084 31.3295 13.5939 31.2572 13.7666C31.185 13.9394 31.079 14.0961 30.9457 14.2276C30.8123 14.3591 30.6542 14.4628 30.4805 14.5327C30.3067 14.6026 30.1209 14.6372 29.9336 14.6347H7.31814C7.13233 14.6758 6.94021 14.6798 6.75283 14.6466C6.56545 14.6134 6.38646 14.5434 6.22612 14.4409C6.06578 14.3384 5.92726 14.2053 5.81845 14.0492C5.70963 13.893 5.63274 13.717 5.59207 13.5311C5.55141 13.3451 5.54792 13.153 5.58161 12.9657C5.6153 12.7784 5.68541 12.5996 5.78831 12.4395C5.89121 12.2794 6.02489 12.1413 6.18129 12.0329C6.33769 11.9244 6.51377 11.8479 6.69978 11.8077H6.69904ZM6.69904 17.4615C6.75814 17.4578 6.81749 17.4578 6.8766 17.4615C7.02292 17.4383 7.17182 17.4383 7.31814 17.4615H24.2797C24.467 17.4589 24.6529 17.4936 24.8266 17.5635C25.0004 17.6333 25.1585 17.737 25.2918 17.8685C25.4252 18 25.5308 18.1567 25.6031 18.3295C25.6754 18.5023 25.7127 18.6877 25.7127 18.875C25.7127 19.0623 25.6754 19.2476 25.6031 19.4204C25.5308 19.5932 25.4252 19.7498 25.2918 19.8814C25.1585 20.0129 25.0004 20.1165 24.8266 20.1864C24.6529 20.2563 24.467 20.291 24.2797 20.2884H7.31814C7.13233 20.3295 6.94021 20.3336 6.75283 20.3004C6.56545 20.2671 6.38646 20.1973 6.22612 20.0948C6.06578 19.9923 5.92726 19.8592 5.81845 19.703C5.70963 19.5469 5.63274 19.3708 5.59207 19.1849C5.55141 18.999 5.54792 18.8069 5.58161 18.6196C5.6153 18.4323 5.68541 18.2535 5.78831 18.0934C5.89121 17.9333 6.02489 17.795 6.18129 17.6866C6.33769 17.5782 6.51377 17.5017 6.69978 17.4615H6.69904Z" fill="#4DA6FF"/>
</svg>
