<svg width="60" height="60" viewBox="0 0 60 60" fill="none"
    xmlns="http://www.w3.org/2000/svg">
    <path d="M15.4903 13.5C13.1656 13.5 11.25 15.4155 11.25 17.7403V34.7018C11.25 37.027 13.1242 39.0013 15.4903 38.9423H16.9039V43.1826V46.5396L19.2891 44.1545L24.5012 38.9423H43.7594C46.0841 38.9423 48 37.0266 48 34.7018V17.7403C48 15.4155 46.0841 13.5 43.7594 13.5H15.4903ZM17.699 19.1539C17.7581 19.1502 17.8175 19.1502 17.8766 19.1539C18.0229 19.1307 18.1718 19.1307 18.3181 19.1539H29.6259C29.8131 19.1513 29.999 19.1858 30.1728 19.2557C30.3465 19.3256 30.5046 19.4294 30.638 19.5609C30.7713 19.6924 30.8772 19.8491 30.9495 20.0219C31.0218 20.1947 31.0591 20.38 31.0591 20.5673C31.0591 20.7545 31.0218 20.94 30.9495 21.1128C30.8772 21.2856 30.7713 21.4422 30.638 21.5737C30.5046 21.7053 30.3465 21.8089 30.1728 21.8788C29.999 21.9487 29.8131 21.9834 29.6259 21.9808H18.3181C18.1323 22.0219 17.9402 22.026 17.7528 21.9928C17.5654 21.9595 17.3865 21.8897 17.2261 21.7872C17.0658 21.6847 16.9273 21.5514 16.8184 21.3953C16.7096 21.2392 16.6327 21.0631 16.5921 20.8772C16.5514 20.6913 16.5479 20.4992 16.5816 20.3119C16.6153 20.1246 16.6854 19.9458 16.7883 19.7857C16.8912 19.6256 17.0249 19.4874 17.1813 19.379C17.3377 19.2706 17.5138 19.1941 17.6998 19.1539H17.699ZM17.699 24.8077C17.7581 24.8041 17.8175 24.8041 17.8766 24.8077C18.0229 24.7846 18.1718 24.7846 18.3181 24.8077H40.9336C41.1209 24.8051 41.3067 24.8397 41.4805 24.9096C41.6542 24.9795 41.8123 25.0831 41.9457 25.2147C42.079 25.3462 42.185 25.5028 42.2572 25.6756C42.3295 25.8484 42.3666 26.0339 42.3666 26.2211C42.3666 26.4084 42.3295 26.5939 42.2572 26.7666C42.185 26.9394 42.079 27.0961 41.9457 27.2276C41.8123 27.3591 41.6542 27.4628 41.4805 27.5327C41.3067 27.6026 41.1209 27.6372 40.9336 27.6347H18.3181C18.1323 27.6758 17.9402 27.6798 17.7528 27.6466C17.5654 27.6134 17.3865 27.5434 17.2261 27.4409C17.0658 27.3384 16.9273 27.2053 16.8184 27.0492C16.7096 26.893 16.6327 26.717 16.5921 26.5311C16.5514 26.3451 16.5479 26.153 16.5816 25.9657C16.6153 25.7784 16.6854 25.5996 16.7883 25.4395C16.8912 25.2794 17.0249 25.1413 17.1813 25.0329C17.3377 24.9244 17.5138 24.8479 17.6998 24.8077H17.699ZM17.699 30.4615C17.7581 30.4578 17.8175 30.4578 17.8766 30.4615C18.0229 30.4383 18.1718 30.4383 18.3181 30.4615H35.2797C35.467 30.4589 35.6529 30.4936 35.8266 30.5635C36.0004 30.6333 36.1585 30.737 36.2918 30.8685C36.4252 31 36.5308 31.1567 36.6031 31.3295C36.6754 31.5023 36.7127 31.6877 36.7127 31.875C36.7127 32.0623 36.6754 32.2476 36.6031 32.4204C36.5308 32.5932 36.4252 32.7498 36.2918 32.8814C36.1585 33.0129 36.0004 33.1165 35.8266 33.1864C35.6529 33.2563 35.467 33.291 35.2797 33.2884H18.3181C18.1323 33.3295 17.9402 33.3336 17.7528 33.3004C17.5654 33.2671 17.3865 33.1973 17.2261 33.0948C17.0658 32.9923 16.9273 32.8592 16.8184 32.703C16.7096 32.5469 16.6327 32.3708 16.5921 32.1849C16.5514 31.999 16.5479 31.8069 16.5816 31.6196C16.6153 31.4323 16.6854 31.2535 16.7883 31.0934C16.8912 30.9333 17.0249 30.795 17.1813 30.6866C17.3377 30.5782 17.5138 30.5017 17.6998 30.4615H17.699Z" fill="#4DA6FF"/>
</svg>
