<svg width="49" height="45" viewBox="0 0 49 45" fill="none" xmlns="http://www.w3.org/2000/svg">
<path d="M5.65378 0C2.55419 0 0 2.55394 0 5.65378V28.2691C0 31.3693 2.49897 34.0018 5.65378 33.923H7.53849V39.5768V44.0528L10.7188 40.8726L17.6683 33.923H43.3459C46.4455 33.923 49 31.3689 49 28.2691V5.65378C49 2.55394 46.4455 0 43.3459 0H5.65378ZM8.59872 7.53849C8.67752 7.53359 8.75666 7.53359 8.83547 7.53849C9.03056 7.50763 9.2291 7.50763 9.42419 7.53849H24.5012C24.7508 7.53505 24.9987 7.58113 25.2303 7.67429C25.462 7.76746 25.6728 7.90587 25.8506 8.08122C26.0284 8.25656 26.1696 8.46548 26.266 8.69584C26.3623 8.9262 26.4121 9.17332 26.4121 9.42303C26.4121 9.67273 26.3623 9.92001 26.266 10.1504C26.1696 10.3807 26.0284 10.5897 25.8506 10.765C25.6728 10.9403 25.462 11.0786 25.2303 11.1718C24.9987 11.2649 24.7508 11.3112 24.5012 11.3077H9.42419C9.17644 11.3626 8.92028 11.368 8.67044 11.3237C8.42059 11.2794 8.18194 11.1862 7.96816 11.0496C7.75437 10.9129 7.56968 10.7353 7.42459 10.5271C7.27951 10.3189 7.17698 10.0841 7.12276 9.83626C7.06854 9.58838 7.0639 9.33225 7.10882 9.08251C7.15374 8.83278 7.24722 8.59434 7.38442 8.38089C7.52162 8.16744 7.69986 7.98323 7.90839 7.83866C8.11692 7.69409 8.3517 7.5921 8.59971 7.53849H8.59872ZM8.59872 15.077C8.67752 15.0721 8.75666 15.0721 8.83547 15.077C9.03056 15.0461 9.2291 15.0461 9.42419 15.077H39.5781C39.8278 15.0735 40.0756 15.1196 40.3073 15.2128C40.539 15.3059 40.7498 15.4442 40.9276 15.6195C41.1054 15.7949 41.2466 16.0038 41.343 16.2342C41.4393 16.4645 41.4887 16.7118 41.4887 16.9615C41.4887 17.2112 41.4393 17.4585 41.343 17.6889C41.2466 17.9192 41.1054 18.1281 40.9276 18.3035C40.7498 18.4788 40.539 18.6171 40.3073 18.7102C40.0756 18.8034 39.8278 18.8497 39.5781 18.8462H9.42419C9.17644 18.901 8.92028 18.9065 8.67044 18.8622C8.42059 18.8178 8.18194 18.7246 7.96816 18.5879C7.75437 18.4512 7.56968 18.2737 7.42459 18.0656C7.27951 17.8574 7.17698 17.6226 7.12276 17.3747C7.06854 17.1269 7.0639 16.8707 7.10882 16.621C7.15374 16.3713 7.24722 16.1328 7.38442 15.9194C7.52162 15.7059 7.69986 15.5217 7.90839 15.3771C8.11692 15.2326 8.3517 15.1306 8.59971 15.077H8.59872ZM8.59872 22.6153C8.67752 22.6104 8.75666 22.6104 8.83547 22.6153C9.03056 22.5844 9.2291 22.5844 9.42419 22.6153H32.0396C32.2893 22.6119 32.5372 22.6581 32.7688 22.7513C33.0005 22.8444 33.2113 22.9827 33.3891 23.158C33.5669 23.3334 33.7078 23.5423 33.8041 23.7726C33.9005 24.003 33.9503 24.2503 33.9503 24.5C33.9503 24.7497 33.9005 24.9968 33.8041 25.2272C33.7078 25.4575 33.5669 25.6665 33.3891 25.8418C33.2113 26.0171 33.0005 26.1554 32.7688 26.2486C32.5372 26.3417 32.2893 26.388 32.0396 26.3845H9.42419C9.17644 26.4394 8.92028 26.4448 8.67044 26.4005C8.42059 26.3562 8.18194 26.263 7.96816 26.1264C7.75437 25.9897 7.56968 25.8122 7.42459 25.6041C7.27951 25.3959 7.17698 25.1611 7.12276 24.9132C7.06854 24.6653 7.0639 24.4092 7.10882 24.1595C7.15374 23.9097 7.24722 23.6713 7.38442 23.4579C7.52162 23.2444 7.69986 23.06 7.90839 22.9155C8.11692 22.7709 8.3517 22.6689 8.59971 22.6153H8.59872Z" fill="#4DA6FF"/>
</svg>
