<svg width="56" height="56" viewBox="0 0 56 56" fill="none"
    xmlns="http://www.w3.org/2000/svg">
    <path d="M42.1824 35.1569L37.5678 37.7567C37.014 38.0684 36.3734 38.1904 35.7438 38.1039C35.1142 38.0174 34.5302 37.7273 34.0809 37.2778L18.679 21.8758C18.2298 21.4264 17.9399 20.8424 17.8534 20.2129C17.767 19.5834 17.8887 18.9429 18.2001 18.389L20.7998 13.7743C21.2678 12.9438 21.451 11.9829 21.3215 11.0384C21.192 10.094 20.7568 9.21789 20.0826 8.54399L13.1662 1.62757C12.7608 1.222 12.2795 0.900263 11.7497 0.680755C11.22 0.461248 10.6521 0.348267 10.0787 0.348267C9.50528 0.348267 8.93747 0.461248 8.40772 0.680755C7.87796 0.900263 7.39665 1.222 6.99127 1.62757L3.85085 4.76578C2.01444 6.60216 0.844674 8.99979 0.527569 11.5774C0.210464 14.155 0.764219 16.7647 2.10079 18.9914L3.67651 21.6176C11.7234 35.0288 23.0813 46.1473 36.6608 53.9067L36.972 54.0855C41.6109 56.736 47.3422 55.9636 51.0564 52.2516L54.3358 48.9721C54.7414 48.5667 55.0631 48.0854 55.2826 47.5557C55.5021 47.0259 55.6151 46.4581 55.6151 45.8847C55.6151 45.3112 55.5021 44.7434 55.2826 44.2137C55.0631 43.6839 54.7414 43.2026 54.3358 42.7972L47.415 35.8764C46.7412 35.2013 45.8648 34.7654 44.9199 34.6355C43.9749 34.5056 43.0134 34.6887 42.1824 35.1569Z" fill="#27AC0E"/>
</svg>
