<svg width="60" height="60" viewBox="0 0 60 60" fill="none"
    xmlns="http://www.w3.org/2000/svg">
    <path d="M39.4181 34.1859L36.4699 35.8428C36.1161 36.0415 35.7069 36.1193 35.3046 36.0641C34.9024 36.009 34.5292 35.8241 34.2422 35.5376L24.4022 25.7209C24.1153 25.4345 23.93 25.0623 23.8748 24.661C23.8196 24.2598 23.8973 23.8516 24.0963 23.4985L25.7572 20.5573C26.0562 20.028 26.1732 19.4155 26.0905 18.8136C26.0077 18.2116 25.7297 17.6532 25.299 17.2237L20.8802 12.8154C20.6212 12.5569 20.3137 12.3518 19.9753 12.2119C19.6368 12.072 19.2741 12 18.9077 12C18.5414 12 18.1786 12.072 17.8401 12.2119C17.5017 12.3518 17.1942 12.5569 16.9352 12.8154L14.9289 14.8156C13.7556 15.986 13.0083 17.5142 12.8057 19.1571C12.6031 20.8 12.9569 22.4633 13.8108 23.8825L14.8175 25.5564C19.9584 34.1042 27.2148 41.1907 35.8905 46.1363L36.0893 46.2503C39.053 47.9396 42.7146 47.4473 45.0875 45.0814L47.1827 42.9912C47.4418 42.7328 47.6473 42.426 47.7876 42.0884C47.9278 41.7507 48 41.3888 48 41.0233C48 40.6579 47.9278 40.2959 47.7876 39.9583C47.6473 39.6207 47.4418 39.3139 47.1827 39.0555L42.7611 34.6444C42.3306 34.2141 41.7707 33.9363 41.167 33.8535C40.5633 33.7707 39.949 33.8874 39.4181 34.1859Z" fill="#27AC0E"/>
</svg>
