<svg width="36" height="36" viewBox="0 0 36 36" fill="none"
    xmlns="http://www.w3.org/2000/svg">
    <path d="M27.4181 22.1859L24.4699 23.8428C24.1161 24.0415 23.7069 24.1193 23.3046 24.0641C22.9024 24.009 22.5292 23.8241 22.2422 23.5376L12.4022 13.7209C12.1153 13.4345 11.93 13.0623 11.8748 12.661C11.8196 12.2598 11.8973 11.8516 12.0963 11.4985L13.7572 8.55731C14.0562 8.02796 14.1732 7.41552 14.0905 6.81355C14.0077 6.21159 13.7297 5.65319 13.299 5.22367L8.88021 0.815386C8.62123 0.556885 8.31372 0.351824 7.97527 0.211917C7.63683 0.0720102 7.27406 0 6.90771 0C6.54135 0 6.17859 0.0720102 5.84014 0.211917C5.50169 0.351824 5.19419 0.556885 4.9352 0.815386L2.92885 2.81557C1.7556 3.98602 1.00826 5.51418 0.805671 7.15707C0.603079 8.79997 0.956863 10.4633 1.81077 11.8825L2.81747 13.5564C7.95845 22.1042 15.2148 29.1907 23.8905 34.1363L24.0893 34.2503C27.053 35.9396 30.7146 35.4473 33.0875 33.0814L35.1827 30.9912C35.4418 30.7328 35.6473 30.426 35.7876 30.0884C35.9278 29.7507 36 29.3888 36 29.0233C36 28.6579 35.9278 28.2959 35.7876 27.9583C35.6473 27.6207 35.4418 27.3139 35.1827 27.0555L30.7611 22.6444C30.3306 22.2141 29.7707 21.9363 29.167 21.8535C28.5633 21.7707 27.949 21.8874 27.4181 22.1859Z" fill="#27AC0E"/>
</svg>
