<svg width="60" height="60" viewBox="0 0 60 60" fill="none"
    xmlns="http://www.w3.org/2000/svg">
    <path d="M45.7251 38.7455C47.2169 36.0722 48 33.0616 48 30C48 26.9384 47.2169 23.9278 45.7251 21.2545C45.7173 21.1676 45.6908 21.0833 45.6473 21.0077C45.6038 20.932 45.5444 20.8667 45.4731 20.8163C43.4613 17.4241 40.3911 14.7867 36.7348 13.3097C33.0784 11.8327 29.0383 11.5978 25.2354 12.6412C21.4326 13.6845 18.0777 15.9483 15.6864 19.0846C13.2952 22.2208 12 26.0558 12 30C12 33.9442 13.2952 37.7792 15.6864 40.9154C18.0777 44.0517 21.4326 46.3155 25.2354 47.3588C29.0383 48.4022 33.0784 48.1673 36.7348 46.6903C40.3911 45.2133 43.4613 42.5759 45.4731 39.1837C45.5444 39.1333 45.6038 39.068 45.6473 38.9923C45.6908 38.9167 45.7173 38.8324 45.7251 38.7455ZM19.6907 39.3103H22.5322C23.1271 41.6526 24.2148 43.841 25.7224 45.7295C23.0707 44.2986 20.9543 42.0462 19.6907 39.3103ZM13.265 30.6207H16.364C16.4206 33.1671 16.9082 35.6855 17.8061 38.069H15.324C14.0627 35.7822 13.3574 33.2307 13.265 30.6207ZM15.3252 21.931H17.8074C16.9094 24.3145 16.4218 26.8329 16.3652 29.3793H13.265C13.3578 26.7692 14.0635 24.2177 15.3252 21.931ZM40.3177 20.6897H37.4762C36.8812 18.3474 35.7936 16.159 34.286 14.2705C36.9377 15.7014 39.0541 17.9538 40.3177 20.6897ZM46.7434 29.3793H43.6444C43.5878 26.8329 43.1002 24.3145 42.2022 21.931H44.6844C45.9456 24.2178 46.651 26.7693 46.7434 29.3793ZM42.4033 29.3793H38.6844C38.6576 26.8719 38.3607 24.3748 37.7989 21.931H40.8774C41.8293 24.3019 42.3462 26.825 42.4033 29.3793ZM29.3836 21.931V29.3793H22.5651C22.5983 26.8687 22.916 24.37 23.512 21.931H29.3836ZM23.8546 20.6897C25.0957 16.6018 27.1137 13.7522 29.3836 13.3072V20.6897H23.8546ZM29.3836 30.6207V38.069H23.512C22.916 35.63 22.5983 33.1313 22.5651 30.6207H29.3836ZM29.3836 39.3103V46.6928C27.1137 46.2478 25.0963 43.3982 23.8546 39.3103H29.3836ZM30.6247 38.069V30.6207H37.4433C37.4101 33.1313 37.0924 35.63 36.4963 38.069H30.6247ZM36.1538 39.3103C34.9127 43.3982 32.8941 46.2478 30.6247 46.6928V39.3103H36.1538ZM30.6247 29.3793V21.931H36.4963C37.0924 24.37 37.4101 26.8687 37.4433 29.3793H30.6247ZM30.6247 20.6897V13.3072C32.8941 13.7522 34.9115 16.6018 36.1538 20.6897H30.6247ZM25.7224 14.2705C24.2148 16.159 23.1271 18.3474 22.5322 20.6897H19.6907C20.9543 17.9538 23.0707 15.7014 25.7224 14.2705ZM22.2089 21.931C21.6473 24.3748 21.3506 26.872 21.324 29.3793H17.6051C17.662 26.8251 18.1787 24.302 19.1304 21.931H22.2089ZM17.6051 30.6207H21.324C21.3506 33.128 21.6473 35.6252 22.2089 38.069H19.1304C18.1787 35.698 17.662 33.1749 17.6051 30.6207ZM34.286 45.7295C35.7936 43.841 36.8812 41.6526 37.4762 39.3103H40.3177C39.0541 42.0462 36.9377 44.2986 34.286 45.7295ZM37.7989 38.069C38.3607 35.6252 38.6576 33.1281 38.6844 30.6207H42.4033C42.3462 33.175 41.8293 35.6981 40.8774 38.069H37.7989ZM43.6444 30.6207H46.7434C46.6506 33.2308 45.9448 35.7823 44.6832 38.069H42.201C43.0994 35.6856 43.5874 33.1672 43.6444 30.6207ZM43.9274 20.6897H41.6841C40.735 18.5695 39.3624 16.6659 37.6505 15.096C40.1812 16.4009 42.3405 18.3252 43.9274 20.6897ZM22.3572 15.096C20.6458 16.6661 19.2734 18.5696 18.3243 20.6897H16.081C17.6676 18.3252 19.8268 16.4009 22.3572 15.096ZM16.081 39.3103H18.3243C19.2735 41.4304 20.6462 43.334 22.3578 44.904C19.8271 43.5991 17.6678 41.6748 16.081 39.3103ZM37.6505 44.904C39.3624 43.3341 40.735 41.4305 41.6841 39.3103H43.9274C42.3405 41.6748 40.1812 43.5991 37.6505 44.904Z" fill="#515151" stroke="#515151"/>
</svg>
