<svg width="60" height="60" viewBox="0 0 60 60" fill="none" xmlns="http://www.w3.org/2000/svg">
<path d="M55.3612 44.09C57.7651 39.783 59.0272 34.9325 59.0272 30C59.0272 25.0675 57.7651 20.217 55.3612 15.91C55.3487 15.7699 55.3059 15.6343 55.2358 15.5124C55.1657 15.3905 55.0699 15.2853 54.9552 15.204C51.713 9.73878 46.7656 5.48973 40.8734 3.11012C34.9812 0.730513 28.4706 0.35209 22.3424 2.03303C16.2142 3.71397 10.8078 7.36122 6.95433 12.414C3.10085 17.4668 1.01367 23.6455 1.01367 30C1.01367 36.3545 3.10085 42.5332 6.95433 47.586C10.8078 52.6388 16.2142 56.286 22.3424 57.967C28.4706 59.6479 34.9812 59.2695 40.8734 56.8899C46.7656 54.5103 51.713 50.2612 54.9552 44.796C55.0699 44.7147 55.1657 44.6095 55.2358 44.4876C55.3059 44.3657 55.3487 44.2301 55.3612 44.09ZM13.4072 45H17.9862C18.9449 48.7737 20.6976 52.2995 23.1272 55.342C18.854 53.0366 15.4434 49.4078 13.4072 45ZM3.05217 31H8.04617C8.13737 35.1026 8.92316 39.16 10.3702 43H6.37017C4.33774 39.3158 3.20109 35.205 3.05217 31ZM6.37217 17H10.3722C8.92516 20.84 8.13937 24.8974 8.04817 29H3.05217C3.20171 24.7949 4.33905 20.684 6.37217 17ZM46.6472 15H42.0682C41.1094 11.2263 39.3568 7.70054 36.9272 4.65801C41.2004 6.96342 44.6109 10.5922 46.6472 15ZM57.0022 29H52.0082C51.917 24.8974 51.1312 20.84 49.6842 17H53.6842C55.7166 20.6842 56.8533 24.795 57.0022 29ZM50.0082 29H44.0152C43.9719 24.9604 43.4935 20.9371 42.5882 17H47.5492C49.0832 20.8198 49.9162 24.8848 50.0082 29ZM29.0272 17V29H18.0392C18.0927 24.9552 18.6047 20.9295 19.5652 17H29.0272ZM20.1172 15C22.1172 8.41401 25.3692 3.82301 29.0272 3.10601V15H20.1172ZM29.0272 31V43H19.5652C18.6047 39.0705 18.0927 35.0448 18.0392 31H29.0272ZM29.0272 45V56.894C25.3692 56.177 22.1182 51.586 20.1172 45H29.0272ZM31.0272 43V31H42.0152C41.9616 35.0448 41.4497 39.0705 40.4892 43H31.0272ZM39.9372 45C37.9372 51.586 34.6842 56.177 31.0272 56.894V45H39.9372ZM31.0272 29V17H40.4892C41.4497 20.9295 41.9616 24.9552 42.0152 29H31.0272ZM31.0272 15V3.10601C34.6842 3.82301 37.9352 8.41401 39.9372 15H31.0272ZM23.1272 4.65801C20.6976 7.70054 18.9449 11.2263 17.9862 15H13.4072C15.4434 10.5922 18.854 6.96342 23.1272 4.65801ZM17.4652 17C16.5602 20.9372 16.0821 24.9604 16.0392 29H10.0462C10.1379 24.8848 10.9705 20.8198 12.5042 17H17.4652ZM10.0462 31H16.0392C16.0821 35.0396 16.5602 39.0628 17.4652 43H12.5042C10.9705 39.1802 10.1379 35.1152 10.0462 31ZM36.9272 55.342C39.3568 52.2995 41.1094 48.7737 42.0682 45H46.6472C44.6109 49.4078 41.2004 53.0366 36.9272 55.342ZM42.5882 43C43.4935 39.0629 43.9719 35.0397 44.0152 31H50.0082C49.9162 35.1153 49.0832 39.1802 47.5492 43H42.5882ZM52.0082 31H57.0022C56.8526 35.2051 55.7153 39.316 53.6822 43H49.6822C51.1299 39.1601 51.9163 35.1027 52.0082 31ZM52.4642 15H48.8492C47.3198 11.5842 45.1077 8.5173 42.3492 5.98801C46.4273 8.09037 49.907 11.1906 52.4642 15ZM17.7042 5.98801C14.9462 8.51762 12.7346 11.5844 11.2052 15H7.59017C10.147 11.1907 13.6264 8.0904 17.7042 5.98801ZM7.59017 45H11.2052C12.7349 48.4157 14.9468 51.4825 17.7052 54.012C13.627 51.9098 10.1473 48.8095 7.59017 45ZM42.3492 54.012C45.1077 51.4827 47.3198 48.4158 48.8492 45H52.4642C49.907 48.8094 46.4273 51.9096 42.3492 54.012Z" fill="#515151" stroke="#515151"/>
</svg>
