<svg width="38" height="38" viewBox="0 0 38 38" fill="none"
    xmlns="http://www.w3.org/2000/svg">
    <path d="M34.7251 27.7455C36.2169 25.0722 37 22.0616 37 19C37 15.9384 36.2169 12.9278 34.7251 10.2545C34.7173 10.1676 34.6908 10.0833 34.6473 10.0077C34.6038 9.93202 34.5444 9.86672 34.4731 9.81628C32.4613 6.42407 29.3911 3.78673 25.7348 2.30973C22.0784 0.832732 18.0383 0.597849 14.2354 1.64119C10.4326 2.68454 7.0777 4.94834 4.68645 8.08457C2.29519 11.2208 1 15.0558 1 19C1 22.9442 2.29519 26.7792 4.68645 29.9154C7.0777 33.0517 10.4326 35.3155 14.2354 36.3588C18.0383 37.4022 22.0784 37.1673 25.7348 35.6903C29.3911 34.2133 32.4613 31.5759 34.4731 28.1837C34.5444 28.1333 34.6038 28.068 34.6473 27.9923C34.6908 27.9167 34.7173 27.8324 34.7251 27.7455ZM8.69073 28.3103H11.5322C12.1271 30.6526 13.2148 32.841 14.7224 34.7295C12.0707 33.2986 9.95432 31.0462 8.69073 28.3103ZM2.26498 19.6207H5.36398C5.42058 22.1671 5.9082 24.6855 6.80613 27.069H4.32395C3.06274 24.7822 2.35739 22.2307 2.26498 19.6207ZM4.32519 10.931H6.80737C5.90944 13.3145 5.42182 15.8329 5.36523 18.3793H2.26498C2.35777 15.7692 3.06355 13.2177 4.32519 10.931ZM29.3177 9.68966H26.4762C25.8812 7.34737 24.7936 5.15896 23.286 3.27049C25.9377 4.70143 28.0541 6.95377 29.3177 9.68966ZM35.7434 18.3793H32.6444C32.5878 15.8329 32.1002 13.3145 31.2022 10.931H33.6844C34.9456 13.2178 35.651 15.7693 35.7434 18.3793ZM31.4033 18.3793H27.6844C27.6576 15.8719 27.3607 13.3748 26.7989 10.931H29.8774C30.8293 13.3019 31.3462 15.825 31.4033 18.3793ZM18.3836 10.931V18.3793H11.5651C11.5983 15.8687 11.916 13.37 12.512 10.931H18.3836ZM12.8546 9.68966C14.0957 5.6018 16.1137 2.75221 18.3836 2.30718V9.68966H12.8546ZM18.3836 19.6207V27.069H12.512C11.916 24.63 11.5983 22.1313 11.5651 19.6207H18.3836ZM18.3836 28.3103V35.6928C16.1137 35.2478 14.0963 32.3982 12.8546 28.3103H18.3836ZM19.6247 27.069V19.6207H26.4433C26.4101 22.1313 26.0924 24.63 25.4963 27.069H19.6247ZM25.1538 28.3103C23.9127 32.3982 21.8941 35.2478 19.6247 35.6928V28.3103H25.1538ZM19.6247 18.3793V10.931H25.4963C26.0924 13.37 26.4101 15.8687 26.4433 18.3793H19.6247ZM19.6247 9.68966V2.30718C21.8941 2.75221 23.9115 5.6018 25.1538 9.68966H19.6247ZM14.7224 3.27049C13.2148 5.15896 12.1271 7.34737 11.5322 9.68966H8.69073C9.95432 6.95377 12.0707 4.70143 14.7224 3.27049ZM11.2089 10.931C10.6473 13.3748 10.3506 15.872 10.324 18.3793H6.60507C6.66198 15.8251 7.17867 13.302 8.13037 10.931H11.2089ZM6.60507 19.6207H10.324C10.3506 22.128 10.6473 24.6252 11.2089 27.069H8.13037C7.17867 24.698 6.66198 22.1749 6.60507 19.6207ZM23.286 34.7295C24.7936 32.841 25.8812 30.6526 26.4762 28.3103H29.3177C28.0541 31.0462 25.9377 33.2986 23.286 34.7295ZM26.7989 27.069C27.3607 24.6252 27.6576 22.1281 27.6844 19.6207H31.4033C31.3462 22.175 30.8293 24.6981 29.8774 27.069H26.7989ZM32.6444 19.6207H35.7434C35.6506 22.2308 34.9448 24.7823 33.6832 27.069H31.201C32.0994 24.6856 32.5874 22.1672 32.6444 19.6207ZM32.9274 9.68966H30.6841C29.735 7.56948 28.3624 5.66591 26.6505 4.096C29.1812 5.40092 31.3405 7.32521 32.9274 9.68966ZM11.3572 4.096C9.64577 5.66611 8.27336 7.56964 7.32429 9.68966H5.08102C6.66765 7.32524 8.82675 5.40094 11.3572 4.096ZM5.08102 28.3103H7.32429C8.27354 30.4304 9.64617 32.334 11.3578 33.904C8.82714 32.5991 6.66782 30.6748 5.08102 28.3103ZM26.6505 33.904C28.3624 32.3341 29.735 30.4305 30.6841 28.3103H32.9274C31.3405 30.6748 29.1812 32.5991 26.6505 33.904Z" fill="#515151" stroke="#515151"/>
</svg>
