<svg width="48" height="49" viewBox="0 0 48 49" fill="none" xmlns="http://www.w3.org/2000/svg">
<path d="M23.9032 0.604485C19.6678 0.603492 15.5094 1.73722 11.8606 3.88777C8.21184 6.03832 5.20583 9.12715 3.1552 12.833C1.10458 16.5389 0.0842482 20.7265 0.200311 24.9603C0.316373 29.1941 1.56459 33.3195 3.81516 36.9075L4.37892 37.804L1.9844 46.5474L10.9549 44.1948L11.8204 44.7085C15.4728 46.8711 19.6395 48.0118 23.8841 48.0112H23.8936C30.1749 48.0045 36.1966 45.5048 40.6362 41.0613C45.0758 36.6178 47.5701 30.5939 47.5714 24.3126C47.5727 18.0314 45.0807 12.0064 40.643 7.56116C36.2052 3.1159 30.1845 0.613813 23.9032 0.604485H23.9032ZM37.8448 34.4845C37.3201 35.3503 36.622 36.0982 35.7943 36.6811C34.9666 37.264 34.0272 37.6693 33.0352 37.8715C31.5377 38.1277 30.001 38.0312 28.5472 37.5895C27.1678 37.161 25.8119 36.66 24.4852 36.0888C19.5642 33.6192 15.3696 29.9128 12.3132 25.3331C10.6468 23.2125 9.63567 20.6515 9.4038 17.9645C9.38401 16.8551 9.59555 15.7538 10.0249 14.7306C10.4543 13.7075 11.0921 12.7851 11.8977 12.0221C12.1358 11.7505 12.4275 11.5311 12.7545 11.3777C13.0815 11.2243 13.4366 11.1402 13.7977 11.1307C14.2725 11.1307 14.7481 11.1351 15.1632 11.1559C15.6006 11.1776 16.188 10.9896 16.7664 12.3788C17.3602 13.8048 18.7852 17.3108 18.9632 17.6674C19.0761 17.854 19.1407 18.0659 19.1511 18.2838C19.1615 18.5017 19.1174 18.7188 19.0228 18.9154C18.8432 19.3435 18.6032 19.7437 18.3101 20.1038C17.9539 20.5198 17.5618 21.0326 17.2415 21.3518C16.8846 21.7071 16.5132 22.0926 16.9288 22.8054C17.999 24.6372 19.3348 26.3001 20.8928 27.74C22.5827 29.2427 24.5218 30.4392 26.6228 31.2757C27.3352 31.6324 27.7508 31.5728 28.1664 31.0974C28.5821 30.6221 29.9477 29.0174 30.4224 28.3045C30.8972 27.5915 31.3724 27.7102 32.0254 27.948C32.6785 28.1858 36.182 29.909 36.8946 30.2654C37.6072 30.6219 38.0821 30.8003 38.2601 31.0974C38.4553 32.2429 38.3109 33.4204 37.8448 34.4848V34.4845Z" fill="#27CC64"/>
</svg>
