<svg width="36" height="36" viewBox="0 0 36 36" fill="none"
    xmlns="http://www.w3.org/2000/svg">
    <path d="M17.7838 4.8857e-07C14.6073 -0.00074408 11.4885 0.849553 8.75193 2.46246C6.01533 4.07538 3.76081 6.392 2.22285 9.17141C0.684883 11.9508 -0.0803686 15.0915 0.00667834 18.2669C0.0937253 21.4422 1.02989 24.5363 2.71782 27.2273L3.14064 27.8996L1.34475 34.4572L8.07264 32.6928L8.72175 33.078C11.461 34.7 14.5861 35.5555 17.7695 35.5551H17.7767C22.4876 35.55 27.0039 33.6752 30.3336 30.3426C33.6633 27.01 35.534 22.4921 35.535 17.7811C35.5359 13.0702 33.667 8.55146 30.3387 5.21751C27.0103 1.88356 22.4948 0.00699604 17.7838 4.8857e-07H17.7838ZM28.24 25.41C27.8466 26.0594 27.323 26.6203 26.7022 27.0574C26.0814 27.4946 25.3768 27.7986 24.6329 27.9503C23.5097 28.1424 22.3572 28.07 21.2669 27.7388C20.2323 27.4174 19.2154 27.0417 18.2203 26.6132C14.5296 24.7611 11.3837 21.9812 9.09135 18.5465C7.84156 16.956 7.0832 15.0353 6.9093 13.02C6.89446 12.188 7.05311 11.362 7.37514 10.5946C7.69717 9.82729 8.17552 9.13545 8.77971 8.5632C8.95829 8.35952 9.17707 8.19499 9.42231 8.07994C9.66754 7.96489 9.93392 7.90182 10.2047 7.89468C10.5608 7.89468 10.9175 7.89798 11.2288 7.91355C11.5569 7.92984 11.9975 7.78887 12.4313 8.83074C12.8766 9.90024 13.9454 12.5297 14.0788 12.7972C14.1635 12.9372 14.212 13.0961 14.2198 13.2595C14.2276 13.4229 14.1945 13.5857 14.1235 13.7332C13.9888 14.0543 13.8088 14.3544 13.589 14.6245C13.3219 14.9365 13.0278 15.3211 12.7876 15.5605C12.5199 15.827 12.2414 16.1161 12.553 16.6507C13.3557 18.0245 14.3576 19.2717 15.526 20.3517C16.7935 21.4787 18.2478 22.376 19.8235 23.0034C20.3578 23.2709 20.6695 23.2262 20.9813 22.8697C21.293 22.5132 22.3172 21.3097 22.6733 20.775C23.0293 20.2403 23.3857 20.3293 23.8755 20.5077C24.3653 20.686 26.9929 21.9784 27.5274 22.2457C28.0619 22.5131 28.418 22.6469 28.5515 22.8697C28.6979 23.7288 28.5896 24.612 28.24 25.4102V25.41Z" fill="#27CC64"/>
</svg>
