<svg width="60" height="60" viewBox="0 0 60 60" fill="none"
    xmlns="http://www.w3.org/2000/svg">
    <path d="M29.7838 12C26.6073 11.9993 23.4885 12.8496 20.7519 14.4625C18.0153 16.0754 15.7608 18.392 14.2228 21.1714C12.6849 23.9508 11.9196 27.0915 12.0067 30.2669C12.0937 33.4422 13.0299 36.5363 14.7178 39.2273L15.1406 39.8996L13.3447 46.4572L20.0726 44.6928L20.7217 45.078C23.461 46.7 26.5861 47.5555 29.7695 47.5551H29.7767C34.4876 47.55 39.0039 45.6752 42.3336 42.3426C45.6633 39.01 47.534 34.4921 47.535 29.7811C47.5359 25.0702 45.667 20.5515 42.3387 17.2175C39.0103 13.8836 34.4948 12.007 29.7838 12H29.7838ZM40.24 37.41C39.8466 38.0594 39.323 38.6203 38.7022 39.0574C38.0814 39.4946 37.3768 39.7986 36.6329 39.9503C35.5097 40.1424 34.3572 40.07 33.2669 39.7388C32.2323 39.4174 31.2154 39.0417 30.2203 38.6132C26.5296 36.7611 23.3837 33.9812 21.0913 30.5465C19.8416 28.956 19.0832 27.0353 18.9093 25.02C18.8945 24.188 19.0531 23.362 19.3751 22.5946C19.6972 21.8273 20.1755 21.1354 20.7797 20.5632C20.9583 20.3595 21.1771 20.195 21.4223 20.0799C21.6675 19.9649 21.9339 19.9018 22.2047 19.8947C22.5608 19.8947 22.9175 19.898 23.2288 19.9136C23.5569 19.9298 23.9975 19.7889 24.4313 20.8307C24.8766 21.9002 25.9454 24.5297 26.0788 24.7972C26.1635 24.9372 26.212 25.0961 26.2198 25.2595C26.2276 25.4229 26.1945 25.5857 26.1235 25.7332C25.9888 26.0543 25.8088 26.3544 25.589 26.6245C25.3219 26.9365 25.0278 27.3211 24.7876 27.5605C24.5199 27.827 24.2414 28.1161 24.553 28.6507C25.3557 30.0245 26.3576 31.2717 27.526 32.3517C28.7935 33.4787 30.2478 34.376 31.8235 35.0034C32.3578 35.2709 32.6695 35.2262 32.9813 34.8697C33.293 34.5132 34.3172 33.3097 34.6733 32.775C35.0293 32.2403 35.3857 32.3293 35.8755 32.5077C36.3653 32.686 38.9929 33.9784 39.5274 34.2457C40.0619 34.5131 40.418 34.6469 40.5515 34.8697C40.6979 35.7288 40.5896 36.612 40.24 37.4102V37.41Z" fill="#27CC64"/>
</svg>
