<svg xmlns="http://www.w3.org/2000/svg" width="28" height="28" viewBox="0 0 28 28" fill="none" style="background-color: #000;">
<path d="M14 0C11.2311 0 8.52431 0.821085 6.22202 2.35942C3.91973 3.89776 2.12532 6.08426 1.06569 8.64243C0.00606598 11.2006 -0.271181 14.0155 0.269012 16.7313C0.809205 19.447 2.14258 21.9416 4.10051 23.8995C6.05845 25.8574 8.55301 27.1908 11.2687 27.731C13.9845 28.2712 16.7994 27.9939 19.3576 26.9343C21.9157 25.8747 24.1022 24.0803 25.6406 21.778C27.1789 19.4757 28 16.7689 28 14C28 12.1615 27.6379 10.341 26.9343 8.64243C26.2307 6.94387 25.1995 5.40052 23.8995 4.1005C22.5995 2.80048 21.0561 1.76925 19.3576 1.06569C17.659 0.362121 15.8385 0 14 0V0ZM14 25.2C11.7849 25.2 9.61945 24.5431 7.77762 23.3125C5.93579 22.0818 4.50026 20.3326 3.65256 18.286C2.80485 16.2395 2.58306 13.9876 3.01521 11.815C3.44737 9.6424 4.51406 7.64675 6.08041 6.0804C7.64676 4.51405 9.64241 3.44736 11.815 3.0152C13.9876 2.58305 16.2395 2.80485 18.2861 3.65255C20.3326 4.50025 22.0818 5.93578 23.3125 7.77761C24.5431 9.61944 25.2 11.7848 25.2 14C25.2 16.9704 24.02 19.8192 21.9196 21.9196C19.8192 24.02 16.9704 25.2 14 25.2V25.2ZM19.6 12.6H15.4V8.4C15.4 8.02869 15.2525 7.6726 14.99 7.41005C14.7274 7.1475 14.3713 7 14 7C13.6287 7 13.2726 7.1475 13.0101 7.41005C12.7475 7.6726 12.6 8.02869 12.6 8.4V12.6H8.4C8.0287 12.6 7.67261 12.7475 7.41006 13.01C7.1475 13.2726 7 13.6287 7 14C7 14.3713 7.1475 14.7274 7.41006 14.9899C7.67261 15.2525 8.0287 15.4 8.4 15.4H12.6V19.6C12.6 19.9713 12.7475 20.3274 13.0101 20.5899C13.2726 20.8525 13.6287 21 14 21C14.3713 21 14.7274 20.8525 14.99 20.5899C15.2525 20.3274 15.4 19.9713 15.4 19.6V15.4H19.6C19.9713 15.4 20.3274 15.2525 20.59 14.9899C20.8525 14.7274 21 14.3713 21 14C21 13.6287 20.8525 13.2726 20.59 13.01C20.3274 12.7475 19.9713 12.6 19.6 12.6Z" fill="#fff"/>
</svg>