<svg width="28" height="28" viewBox="0 0 28 28" fill="none" xmlns="http://www.w3.org/2000/svg">
<path d="M22.983 18C22.2284 18.0056 21.4848 18.1821 20.8081 18.5163C20.1314 18.8506 19.5392 19.3339 19.0759 19.93L9.80274 15.29C9.92202 14.8702 9.98585 14.4365 9.9926 14C9.98585 13.5636 9.92202 13.1299 9.80274 12.71L19.0759 8.07001C19.5392 8.66611 20.1314 9.14943 20.8081 9.48369C21.4848 9.81796 22.2284 9.99448 22.983 10C23.9712 10 24.9371 9.70677 25.7588 9.15736C26.5804 8.60795 27.2208 7.82706 27.599 6.91343C27.9771 5.9998 28.0761 4.99446 27.8833 4.02456C27.6905 3.05465 27.2146 2.16373 26.5159 1.46447C25.8172 0.765207 24.9269 0.289002 23.9577 0.096076C22.9885 -0.0968504 21.9839 0.00216642 21.071 0.380605C20.158 0.759044 19.3777 1.39991 18.8287 2.22215C18.2797 3.0444 17.9867 4.0111 17.9867 5.00001C17.9934 5.43646 18.0573 5.87015 18.1765 6.29001L8.90341 10.93C8.44008 10.3339 7.84785 9.8506 7.17116 9.51634C6.49447 9.18207 5.75091 9.00555 4.9963 9.00001C3.6712 9.00001 2.40037 9.5268 1.46338 10.4645C0.526394 11.4022 0 12.6739 0 14C0 15.3261 0.526394 16.5979 1.46338 17.5356C2.40037 18.4732 3.6712 19 4.9963 19C5.75091 18.9945 6.49447 18.818 7.17116 18.4837C7.84785 18.1494 8.44008 17.6661 8.90341 17.07L18.1765 21.71C17.907 22.7201 17.9607 23.7892 18.3299 24.7672C18.6991 25.7451 19.3653 26.5827 20.2349 27.162C21.1044 27.7413 22.1336 28.0334 23.1776 27.997C24.2216 27.9606 25.228 27.5976 26.0552 26.9591C26.8823 26.3207 27.4887 25.4388 27.7891 24.4375C28.0894 23.4362 28.0686 22.3659 27.7295 21.3771C27.3904 20.3882 26.7501 19.5307 25.8987 18.9249C25.0473 18.3191 24.0276 17.9957 22.983 18V18ZM22.983 2.00001C23.5759 2.00001 24.1555 2.17595 24.6485 2.5056C25.1414 2.83524 25.5257 3.30378 25.7526 3.85196C25.9795 4.40014 26.0388 5.00334 25.9232 5.58528C25.8075 6.16723 25.522 6.70178 25.1027 7.12133C24.6835 7.54089 24.1493 7.82661 23.5678 7.94237C22.9863 8.05813 22.3836 7.99872 21.8358 7.77165C21.288 7.54459 20.8198 7.16007 20.4904 6.66672C20.161 6.17337 19.9852 5.59335 19.9852 5.00001C19.9852 4.20436 20.301 3.4413 20.8632 2.87869C21.4254 2.31608 22.1879 2.00001 22.983 2.00001V2.00001ZM4.9963 17C4.40339 17 3.8238 16.8241 3.33082 16.4944C2.83784 16.1648 2.45361 15.6963 2.22671 15.1481C1.99982 14.5999 1.94045 13.9967 2.05612 13.4148C2.17179 12.8328 2.4573 12.2983 2.87655 11.8787C3.2958 11.4591 3.82995 11.1734 4.41146 11.0577C4.99297 10.9419 5.59573 11.0013 6.1435 11.2284C6.69127 11.4554 7.15946 11.84 7.48886 12.3333C7.81826 12.8267 7.99408 13.4067 7.99408 14C7.99408 14.7957 7.67824 15.5587 7.11605 16.1213C6.55386 16.684 5.79136 17 4.9963 17ZM22.983 26C22.3901 26 21.8105 25.8241 21.3175 25.4944C20.8245 25.1648 20.4403 24.6963 20.2134 24.1481C19.9865 23.5999 19.9271 22.9967 20.0428 22.4148C20.1585 21.8328 20.444 21.2983 20.8632 20.8787C21.2825 20.4592 21.8166 20.1734 22.3981 20.0577C22.9797 19.9419 23.5824 20.0013 24.1302 20.2284C24.678 20.4555 25.1461 20.84 25.4755 21.3333C25.8049 21.8267 25.9808 22.4067 25.9808 23C25.9808 23.7957 25.6649 24.5587 25.1027 25.1214C24.5405 25.684 23.778 26 22.983 26V26Z" fill="white"/>
</svg>
