<svg width="80" height="14" viewBox="0 0 80 14" fill="none"
    xmlns="http://www.w3.org/2000/svg">
    <path d="M7.70496 11.8995L7.63725 11.8472C7.21642 12.393 6.44328 12.6596 5.72887 12.6596C3.91002 12.6596 2.68618 10.8706 2.68618 8.77421C2.68618 6.85139 3.60655 5.91559 4.79955 5.91559C6.29702 5.91559 6.91291 7.34492 6.40448 8.77421L6.43333 8.78366L7.85222 6.77924C7.40248 6.20417 6.60947 5.7002 5.34779 5.7002C3.33193 5.7002 1.22852 6.99567 1.22852 9.46225C1.22852 11.6109 2.86229 13.1846 5.06422 13.1846C6.42338 13.1846 7.28504 12.598 7.70496 11.8995Z" fill="white" />
    <path d="M11.139 7.99219C9.56397 7.99219 8.53613 9.0409 8.53613 10.5528C8.53613 12.094 9.56397 13.1124 11.139 13.1124C12.7141 13.1124 13.741 12.0637 13.741 10.5528C13.741 9.01058 12.7141 7.99219 11.139 7.99219ZM11.5201 12.9378C10.3461 12.9378 9.73012 11.1383 9.73012 9.77073C9.73012 8.77428 10.0525 8.16678 10.757 8.16678C11.941 8.16678 12.548 9.96626 12.548 11.3443C12.548 12.3209 12.2246 12.9378 11.5201 12.9378Z" fill="white" />
    <path d="M17.6433 8.00244C16.9488 8.00244 16.4205 8.43427 16.1956 9.09193H16.0683V8.76361L16.117 8.00244L14.2285 8.15719V8.19797C14.4344 8.2189 14.6882 8.28999 14.8255 8.38302V12.3312L14.7767 13.0401H16.4493C16.1558 12.8341 16.0683 12.6396 16.0683 12.0844V10.0487C16.1459 9.33869 16.3907 8.72181 16.8414 8.72181C17.2026 8.72181 17.3886 9.21534 17.1637 9.83223H17.2025L18.1816 8.12579C17.9956 8.03384 17.8383 8.00244 17.6433 8.00244Z" fill="white" />
    <path d="M22.5142 13.0403H24.1968C23.9033 12.8343 23.8157 12.6398 23.8157 12.0846V9.86377C23.8157 8.31106 22.9839 7.99219 22.368 7.99219C21.4874 7.99219 20.7143 8.58923 20.2645 8.91748V8.76382L20.3133 8.00259L18.4248 8.15733V8.19811C18.6308 8.21904 18.8845 8.29013 19.0218 8.38324V12.3314L18.9631 13.0403H20.6457C20.3521 12.8343 20.2645 12.6398 20.2645 12.0846V9.16425C20.6357 8.8767 21.1153 8.46581 21.7223 8.46581C22.182 8.46581 22.573 8.73242 22.573 9.88361V12.3314L22.5142 13.0403Z" fill="white" />
    <path d="M29.5871 12.0323C29.2837 12.4547 28.6081 12.6084 28.1385 12.6084C26.9654 12.6084 26.1724 11.6423 26.1524 10.1826H28.7355C29.9882 10.1826 29.812 7.99219 27.6986 7.99219C26.241 7.99219 24.8809 8.96872 24.8809 10.6239C24.8809 12.094 25.9475 13.1124 27.5126 13.1124C28.5494 13.1124 29.3424 12.6492 29.6359 12.0741L29.5871 12.0323ZM27.3763 8.15733C28.5106 8.15733 28.7842 9.97672 28.1195 9.98712L26.1524 10.007C26.1922 8.85584 26.7106 8.15733 27.3763 8.15733Z" fill="white" />
    <path d="M33.3631 8.00244C32.6686 8.00244 32.1403 8.43427 31.9154 9.09193H31.788V8.76361L31.8367 8.00244L29.9482 8.15719V8.19797C30.1542 8.2189 30.4079 8.28999 30.5453 8.38302V12.3312L30.4965 13.0401H32.1691C31.8755 12.8341 31.788 12.6396 31.788 12.0844V10.0487C31.8657 9.33869 32.1104 8.72181 32.5611 8.72181C32.9223 8.72181 33.1084 9.21534 32.8835 9.83223H32.9223L33.9014 8.12579C33.7153 8.03384 33.5581 8.00244 33.3631 8.00244Z" fill="white" />
    <path d="M37.3227 5.84351H34.1914V5.89579C34.5934 5.94702 34.9357 6.05994 34.9357 6.43009V12.2488C34.9357 12.6189 34.5934 12.8343 34.1914 12.9891V13.0403H37.1266C39.4649 13.0403 41.1962 11.6936 41.1962 9.25737C41.1962 7.09825 39.8559 5.84351 37.3227 5.84351ZM37.6262 12.8552C37.1078 12.8552 36.657 12.7423 36.2759 12.5677V6.00871H36.9316C38.9077 6.00871 39.7783 7.56038 39.7783 9.83246C39.7783 12.1557 38.9166 12.8552 37.6262 12.8552Z" fill="white" />
    <path d="M47.0546 12.7109V8.76382L47.1133 8.05389H45.2845V8.07483C45.7244 8.28075 45.8129 8.47525 45.8129 9.0305V11.9508C45.4208 12.2791 44.9512 12.6294 44.3254 12.6294C43.8945 12.6294 43.5035 12.3721 43.5035 11.221V8.76382L43.5622 8.05389H41.7324V8.07483C42.1732 8.28075 42.2607 8.47525 42.2607 9.0305V11.2409C42.2607 12.7935 43.0926 13.1124 43.6796 13.1124C44.5801 13.1124 45.3522 12.5781 45.8129 12.1976V13.0915L47.6029 12.9379V12.896C47.4467 12.8761 47.192 12.804 47.0546 12.7109Z" fill="white" />
    <path d="M53.6184 13.0404C53.1099 12.7727 52.8363 12.4956 52.1607 11.6832L50.7229 9.93598L51.3299 9.29816C52.1706 8.41365 52.8263 8.16688 53.2373 8.11564L53.2572 8.05393H51.5547L51.5348 8.11564C52.0144 8.19821 51.9169 8.41365 51.7308 8.60917L49.7737 10.6449V5.45355L49.8224 4.99036L47.6514 6.05999V6.12169C48.2772 5.92616 48.532 5.87492 48.532 6.28584V12.4026L48.4434 13.0404H50.3319V12.9996C49.8423 12.8866 49.7737 12.5981 49.7737 12.0428V10.6763H49.9697L51.7497 12.8657V13.0404H53.6184Z" fill="white" />
    <path d="M59.0086 12.1976V8.37277C58.3817 8.11554 57.7071 7.99219 57.0813 7.99219C55.0068 7.99219 54.0088 9.26775 54.0088 10.7682C54.0088 12.1976 54.9381 13.1124 56.3669 13.1124C56.8266 13.1124 57.2176 13.01 57.531 12.8343C57.531 12.8448 57.5211 12.8448 57.5211 12.8448L59.3897 13.1636V13.1323C59.0962 12.9273 59.0086 12.7527 59.0086 12.1976ZM55.2515 10.1722C55.2515 8.97919 55.7211 8.18771 56.6405 8.18771C57.1102 8.18771 57.4624 8.3937 57.7659 8.74289V12.0637C57.7659 12.2174 57.7559 12.3314 57.7459 12.4339C57.5509 12.6597 57.3062 12.783 56.9828 12.783C55.9947 12.783 55.2515 11.6622 55.2515 10.1722Z" fill="white" />
    <path d="M65.1715 12.1976V8.37277C64.5448 8.11554 63.8702 7.99219 63.2444 7.99219C61.1698 7.99219 60.1719 9.26775 60.1719 10.7682C60.1719 12.1976 61.1012 13.1124 62.53 13.1124C62.9897 13.1124 63.3807 13.01 63.6941 12.8343C63.6941 12.8448 63.6842 12.8448 63.6842 12.8448L65.5531 13.1636V13.1323C65.2595 12.9273 65.1715 12.7527 65.1715 12.1976ZM61.4146 10.1722C61.4146 8.97919 61.8843 8.18771 62.8036 8.18771C63.2732 8.18771 63.6255 8.3937 63.929 8.74289V12.0637C63.929 12.2174 63.919 12.3314 63.909 12.4339C63.7141 12.6597 63.4693 12.783 63.1459 12.783C62.1578 12.783 61.4146 11.6622 61.4146 10.1722Z" fill="white" />
    <path d="M70.1293 13.0403H71.8121C71.5185 12.8343 71.4311 12.6398 71.4311 12.0846V9.86377C71.4311 8.31106 70.5995 7.99219 69.9831 7.99219C69.1029 7.99219 68.3294 8.58923 67.88 8.91748V8.76382L67.9285 8.00259L66.04 8.15733V8.19811C66.2463 8.21904 66.4999 8.29013 66.637 8.38324V12.3314L66.5781 13.0403H68.2609C67.9673 12.8343 67.88 12.6398 67.88 12.0846V9.16425C68.2512 8.8767 68.7304 8.46581 69.3377 8.46581C69.7969 8.46581 70.1881 8.73242 70.1881 9.88361V12.3314L70.1293 13.0403Z" fill="white" />
    <path d="M74.1184 0.747559C73.0662 0.747559 72.208 1.64886 72.208 2.75509C72.208 3.86132 73.0662 4.76262 74.1184 4.76262C75.1713 4.76262 76.0289 3.86132 76.0289 2.75509C76.0289 1.64886 75.1713 0.747559 74.1184 0.747559ZM74.1184 1.05601C75.0135 1.05601 75.7346 1.81511 75.7346 2.75509C75.7346 3.69507 75.0135 4.45313 74.1184 4.45313C73.224 4.45313 72.5016 3.69507 72.5016 2.75509C72.5016 1.81511 73.224 1.05601 74.1184 1.05601ZM73.3831 1.67395V3.83623H73.678V3.21829H74.0454L74.4787 3.83623H74.8441L74.3732 3.16705C74.652 3.05622 74.8531 2.77705 74.8531 2.4456C74.8531 2.02109 74.5226 1.67395 74.1184 1.67395H73.3831ZM73.678 1.9824H74.1184C74.3642 1.9824 74.5595 2.18838 74.5595 2.4456C74.5595 2.70385 74.3642 2.90984 74.1184 2.90984H73.678V1.9824Z" fill="white" />
</svg> 